<?xml version="1.0" encoding="UTF-8"?>
<svg xmlns="http://www.w3.org/2000/svg" xmlns:xlink="http://www.w3.org/1999/xlink" width="50px" height="50px" viewBox="0 0 50 50" version="1.1">
<g id="surface155464">
<path style=" stroke:none;fill-rule:nonzero;fill:rgb(36.470588%,25.098039%,21.568627%);fill-opacity:1;" d="M 43.75 18.019531 C 43.75 39.375 25 45.832031 25 45.832031 C 25 45.832031 6.25 39.375 6.25 18.019531 C 6.25 15.417969 6.457031 13.230469 6.667969 11.457031 C 6.980469 8.855469 8.75 6.769531 11.25 6.144531 C 14.480469 5.207031 19.582031 4.167969 25 4.167969 C 30.417969 4.167969 35.519531 5.207031 38.855469 6.144531 C 41.355469 6.769531 43.125 8.957031 43.4375 11.457031 C 43.542969 13.230469 43.75 15.519531 43.75 18.019531 Z M 43.75 18.019531 "/>
<path style=" stroke:none;fill-rule:nonzero;fill:rgb(29.803922%,68.627451%,31.372549%);fill-opacity:1;" d="M 25 7.292969 C 30.105469 7.292969 34.894531 8.332031 38.019531 9.167969 C 39.269531 9.480469 40.105469 10.519531 40.3125 11.875 C 40.519531 13.855469 40.625 15.9375 40.625 18.019531 C 40.625 34.269531 28.644531 40.832031 25 42.394531 C 21.355469 40.730469 9.375 34.167969 9.375 18.019531 C 9.375 15.9375 9.480469 13.855469 9.6875 11.875 C 9.792969 10.519531 10.730469 9.480469 11.980469 9.167969 C 15.105469 8.332031 19.894531 7.292969 25 7.292969 M 25 4.167969 C 19.582031 4.167969 14.480469 5.207031 11.144531 6.144531 C 8.75 6.769531 6.875 8.957031 6.667969 11.457031 C 6.457031 13.230469 6.25 15.519531 6.25 18.019531 C 6.25 39.375 25 45.832031 25 45.832031 C 25 45.832031 43.75 39.375 43.75 18.019531 C 43.75 15.417969 43.542969 13.230469 43.332031 11.457031 C 43.019531 8.855469 41.25 6.769531 38.75 6.144531 C 35.519531 5.207031 30.417969 4.167969 25 4.167969 Z M 25 4.167969 "/>
<path style=" stroke:none;fill-rule:nonzero;fill:rgb(86.27451%,92.941176%,78.431373%);fill-opacity:1;" d="M 23.957031 29.167969 L 26.042969 29.167969 L 26.042969 37.5 L 23.957031 37.5 Z M 23.957031 29.167969 "/>
<path style=" stroke:none;fill-rule:nonzero;fill:rgb(29.803922%,68.627451%,31.372549%);fill-opacity:1;" d="M 25 10.417969 C 25 10.417969 18.75 15.625 18.75 23.957031 C 18.75 29.375 22.1875 32.8125 23.957031 34.375 L 25 31.25 L 26.042969 34.375 C 27.8125 32.8125 31.25 29.375 31.25 23.957031 C 31.25 15.625 25 10.417969 25 10.417969 Z M 25 10.417969 "/>
<path style=" stroke:none;fill-rule:nonzero;fill:rgb(50.588235%,78.039216%,51.764706%);fill-opacity:1;" d="M 25 10.417969 C 25 10.417969 18.75 15.625 18.75 23.957031 C 18.75 29.375 22.1875 32.8125 23.957031 34.375 L 25 31.25 Z M 25 10.417969 "/>
</g>
</svg>
