<svg xmlns="http://www.w3.org/2000/svg" viewBox="0 0 64 64" width="64px" height="64px"><path fill="#f7a1c8" d="M9,7h46c1.105,0,2,0.895,2,2v46c0,1.105-0.895,2-2,2H9c-1.105,0-2-0.895-2-2V9C7,7.895,7.895,7,9,7z"/><path fill="#ef8ebe" d="M11,32h42c2.209,0,4,1.791,4,4v18c0,1.657-1.343,3-3,3H10c-1.657,0-3-1.343-3-3V36	C7,33.791,8.791,32,11,32z"/><path fill="#ce6ba4" d="M15,13h34c1.105,0,2,0.895,2,2v34c0,1.105-0.895,2-2,2H15c-1.105,0-2-0.895-2-2V15	C13,13.895,13.895,13,15,13z"/><path fill="#8d6c9f" d="M50,12H14c-1.105,0-2,0.895-2,2v36c0,1.105,0.895,2,2,2h3c0.552,0,1-0.448,1-1s-0.448-1-1-1h-3V14h36	v36h-3c-0.552,0-1,0.448-1,1s0.448,1,1,1h3c1.105,0,2-0.895,2-2V14C52,12.895,51.105,12,50,12z"/><path fill="#8d6c9f" d="M55,6H9C7.343,6,6,7.343,6,9v46c0,1.657,1.343,3,3,3l0,0h46c1.657,0,3-1.343,3-3l0,0V9	C58,7.343,56.657,6,55,6z M56,55c0,0.552-0.448,1-1,1H9c-0.552,0-1-0.448-1-1V9c0-0.552,0.448-1,1-1h46c0.552,0,1,0.448,1,1V55z"/><path fill="#8d6c9f" d="M27,48c-0.552,0-1,0.448-1,1v2c0,0.552,0.448,1,1,1s1-0.448,1-1v-2C28,48.448,27.552,48,27,48z M32,48c-0.552,0-1,0.448-1,1v2c0,0.552,0.448,1,1,1s1-0.448,1-1v-2C33,48.448,32.552,48,32,48z M37,48c-0.552,0-1,0.448-1,1v2	c0,0.552,0.448,1,1,1s1-0.448,1-1v-2C38,48.448,37.552,48,37,48z M42,48c-0.552,0-1,0.448-1,1v2c0,0.552,0.448,1,1,1s1-0.448,1-1v-2	C43,48.448,42.552,48,42,48z M22,48c-0.552,0-1,0.448-1,1v2c0,0.552,0.448,1,1,1s1-0.448,1-1v-2C23,48.448,22.552,48,22,48z"/><path fill="#faefde" d="M32.87,40.503l-4.743-8.082l4.594-7.861c0.278-0.478,0.117-1.089-0.361-1.367	c-0.478-0.278-1.089-0.117-1.367,0.361l-4.026,6.889l-4.054-6.908c-0.278-0.478-0.889-0.64-1.367-0.361	c-0.478,0.278-0.64,0.889-0.362,1.367l4.626,7.882l-4.673,7.996c-0.278,0.478-0.117,1.089,0.361,1.367	c0.478,0.278,1.089,0.117,1.367-0.362l4.105-7.024l4.172,7.108c0.278,0.478,0.889,0.64,1.367,0.361	C32.987,41.592,33.148,40.981,32.87,40.503z"/><path fill="#faefde" d="M41.959,24c-0.553,0-1,0.447-1,1v5h-2c-2.206,0-4,1.794-4,4v4c0,2.206,1.794,4,4,4h1	c0.462,0,0.895-0.114,1.287-0.302C41.427,41.884,41.679,42,41.959,42c0.553,0,1-0.447,1-1v-2v-8v-6	C42.959,24.447,42.512,24,41.959,24z M40.959,39c0,0.552-0.448,1-1,1h-1c-1.103,0-2-0.897-2-2v-4c0-1.103,0.897-2,2-2h2V39z"/></svg>