<?xml version="1.0" encoding="UTF-8"?>
<svg xmlns="http://www.w3.org/2000/svg" xmlns:xlink="http://www.w3.org/1999/xlink" width="50px" height="50px" viewBox="0 0 50 50" version="1.1">
<g id="surface154210">
<path style=" stroke:none;fill-rule:nonzero;fill:rgb(21.960784%,55.686275%,23.529412%);fill-opacity:1;" d="M 17.921875 19.917969 L 12.808594 22.746094 C 12.617188 22.851562 12.5 23.046875 12.5 23.257812 L 12.5 28.917969 C 12.5 29.128906 12.617188 29.324219 12.808594 29.429688 L 17.921875 32.261719 C 18.113281 32.367188 18.347656 32.367188 18.539062 32.261719 L 23.652344 29.429688 C 23.839844 29.324219 23.957031 29.128906 23.957031 28.917969 L 23.957031 23.257812 C 23.957031 23.046875 23.839844 22.851562 23.648438 22.746094 L 18.539062 19.917969 C 18.441406 19.867188 18.335938 19.839844 18.230469 19.839844 C 18.121094 19.839844 18.015625 19.867188 17.917969 19.917969 M 44.21875 25.011719 L 43.367188 25.484375 C 43.335938 25.503906 43.316406 25.535156 43.316406 25.570312 L 43.316406 26.511719 C 43.316406 26.550781 43.335938 26.582031 43.367188 26.597656 L 44.21875 27.070312 C 44.253906 27.089844 44.289062 27.089844 44.324219 27.070312 L 45.175781 26.597656 C 45.207031 26.582031 45.226562 26.550781 45.226562 26.511719 L 45.226562 25.570312 C 45.226562 25.535156 45.207031 25.503906 45.175781 25.484375 L 44.320312 25.011719 C 44.304688 25.003906 44.289062 25 44.269531 25 C 44.253906 25 44.234375 25.003906 44.21875 25.011719 "/>
<path style=" stroke:none;fill-rule:nonzero;fill:rgb(21.568627%,27.843137%,30.980392%);fill-opacity:1;" d="M 37.242188 13.921875 L 34.753906 12.53125 C 34.675781 12.488281 34.578125 12.488281 34.5 12.535156 C 34.425781 12.582031 34.375 12.664062 34.375 12.753906 L 34.375 21.140625 L 32.082031 19.871094 C 31.984375 19.816406 31.878906 19.792969 31.769531 19.792969 C 31.664062 19.792969 31.558594 19.816406 31.460938 19.871094 L 26.351562 22.699219 C 26.160156 22.804688 26.042969 23 26.042969 23.210938 L 26.042969 28.871094 C 26.042969 29.082031 26.160156 29.277344 26.351562 29.382812 L 31.464844 32.210938 C 31.652344 32.316406 31.890625 32.316406 32.082031 32.210938 L 37.191406 29.382812 C 37.382812 29.277344 37.5 29.082031 37.5 28.871094 L 37.5 14.363281 C 37.5 14.179688 37.398438 14.011719 37.242188 13.921875 Z M 34.234375 27.558594 L 31.914062 28.847656 C 31.824219 28.894531 31.71875 28.894531 31.632812 28.847656 L 29.308594 27.558594 C 29.21875 27.511719 29.167969 27.421875 29.167969 27.328125 L 29.167969 24.753906 C 29.167969 24.660156 29.21875 24.570312 29.308594 24.519531 L 31.632812 23.234375 L 31.628906 23.234375 C 31.675781 23.210938 31.722656 23.199219 31.769531 23.199219 C 31.820312 23.199219 31.867188 23.210938 31.910156 23.234375 L 34.234375 24.519531 C 34.320312 24.570312 34.375 24.660156 34.375 24.753906 L 34.375 27.328125 C 34.375 27.421875 34.320312 27.511719 34.234375 27.558594 Z M 34.234375 27.558594 "/>
<path style=" stroke:none;fill-rule:nonzero;fill:rgb(18.039216%,49.019608%,19.607843%);fill-opacity:1;" d="M 17.921875 19.917969 L 12.5 28.917969 C 12.5 29.128906 12.617188 29.324219 12.808594 29.429688 L 17.921875 32.261719 C 18.113281 32.367188 18.347656 32.367188 18.539062 32.261719 L 23.957031 23.257812 C 23.957031 23.046875 23.839844 22.851562 23.648438 22.746094 L 18.539062 19.917969 C 18.441406 19.867188 18.335938 19.839844 18.230469 19.839844 C 18.121094 19.839844 18.015625 19.867188 17.917969 19.917969 "/>
<path style=" stroke:none;fill-rule:nonzero;fill:rgb(29.803922%,68.627451%,31.372549%);fill-opacity:1;" d="M 17.921875 19.917969 L 12.808594 22.746094 C 12.617188 22.851562 12.5 23.046875 12.5 23.257812 L 17.921875 32.261719 C 18.113281 32.367188 18.347656 32.367188 18.539062 32.261719 L 23.648438 29.429688 C 23.839844 29.324219 23.957031 29.128906 23.957031 28.917969 L 18.539062 19.917969 C 18.441406 19.867188 18.335938 19.839844 18.230469 19.839844 C 18.121094 19.839844 18.015625 19.867188 17.917969 19.917969 "/>
<path style=" stroke:none;fill-rule:nonzero;fill:rgb(21.568627%,27.843137%,30.980392%);fill-opacity:1;" d="M 49.691406 22.699219 L 44.582031 19.871094 C 44.484375 19.816406 44.378906 19.792969 44.269531 19.792969 C 44.164062 19.792969 44.058594 19.816406 43.960938 19.871094 L 38.851562 22.699219 C 38.660156 22.804688 38.542969 23.003906 38.542969 23.222656 L 38.542969 28.859375 C 38.542969 29.078125 38.660156 29.277344 38.851562 29.382812 L 43.964844 32.214844 C 44.15625 32.320312 44.390625 32.320312 44.582031 32.214844 L 46.9375 30.910156 C 47.152344 30.789062 47.152344 30.480469 46.9375 30.359375 L 41.808594 27.5625 C 41.722656 27.511719 41.667969 27.421875 41.667969 27.324219 L 41.667969 24.753906 C 41.667969 24.660156 41.71875 24.570312 41.800781 24.523438 L 44.128906 23.238281 C 44.171875 23.214844 44.222656 23.203125 44.269531 23.203125 C 44.320312 23.203125 44.367188 23.214844 44.410156 23.238281 L 46.738281 24.527344 C 46.820312 24.570312 46.875 24.660156 46.875 24.757812 L 46.875 26.851562 C 46.875 26.941406 46.921875 27.023438 47 27.070312 C 47.078125 27.113281 47.175781 27.113281 47.253906 27.070312 L 49.75 25.617188 C 49.902344 25.527344 50 25.363281 50 25.183594 L 50 23.226562 C 50 23.003906 49.882812 22.804688 49.691406 22.699219 Z M 11.148438 22.699219 L 6.039062 19.871094 C 5.941406 19.816406 5.835938 19.792969 5.730469 19.792969 C 5.621094 19.792969 5.515625 19.816406 5.417969 19.871094 L 5.421875 19.871094 L 0.308594 22.699219 C 0.117188 22.804688 0 23.003906 0 23.222656 L 0 31 C 0 31.089844 0.046875 31.171875 0.125 31.214844 C 0.203125 31.261719 0.300781 31.261719 0.378906 31.214844 L 2.875 29.765625 C 3.03125 29.675781 3.125 29.507812 3.125 29.332031 L 3.125 24.753906 C 3.125 24.660156 3.175781 24.570312 3.261719 24.523438 L 5.589844 23.238281 C 5.632812 23.210938 5.679688 23.199219 5.730469 23.199219 C 5.777344 23.199219 5.824219 23.214844 5.871094 23.238281 L 8.199219 24.523438 C 8.28125 24.570312 8.332031 24.660156 8.332031 24.753906 L 8.332031 29.332031 C 8.332031 29.511719 8.429688 29.675781 8.582031 29.765625 L 11.082031 31.214844 C 11.160156 31.261719 11.253906 31.261719 11.332031 31.21875 C 11.410156 31.171875 11.457031 31.089844 11.457031 31 L 11.457031 23.222656 C 11.457031 23.003906 11.339844 22.804688 11.148438 22.699219 Z M 11.148438 22.699219 "/>
</g>
</svg>
