<?xml version="1.0" encoding="UTF-8" standalone="yes"?>
<svg xmlns="http://www.w3.org/2000/svg" xmlns:xlink="http://www.w3.org/1999/xlink" width="50px" height="50px" viewBox="0 0 50 50" version="1.1" fill="#333333">
  <g id="surface155411">
    <path style=" stroke:none;fill-rule:nonzero;fill:#333333;fill-opacity:1;" d="M 42.378906 5.554688 C 42.0625 5.203125 41.613281 5 41.136719 5 L 8.863281 5 C 8.386719 5 7.9375 5.203125 7.621094 5.554688 C 7.304688 5.910156 7.152344 6.378906 7.203125 6.851562 L 10.875 39.886719 C 10.949219 40.558594 11.421875 41.121094 12.074219 41.308594 L 24.539062 44.867188 C 24.691406 44.910156 24.84375 44.933594 25 44.933594 C 25.152344 44.933594 25.308594 44.910156 25.457031 44.867188 L 37.921875 41.308594 C 38.574219 41.121094 39.046875 40.558594 39.121094 39.886719 L 42.792969 6.851562 C 42.847656 6.378906 42.695312 5.910156 42.378906 5.554688 Z M 34.191406 21.789062 L 33.449219 33.933594 L 25.054688 36.675781 L 16.65625 33.933594 L 16.339844 28.125 L 20.589844 28.125 L 20.695312 30.765625 L 25.054688 32.242188 L 29.410156 30.765625 L 29.730469 26.015625 L 20.375 26.015625 L 20.164062 21.792969 L 29.941406 21.792969 L 30.261719 17.566406 L 15.59375 17.566406 L 15.273438 13.34375 L 34.726562 13.34375 Z M 34.191406 21.789062 "/>
  </g>
</svg>