<?xml version="1.0" encoding="UTF-8" standalone="yes"?>
<svg xmlns="http://www.w3.org/2000/svg" xmlns:xlink="http://www.w3.org/1999/xlink" width="50px" height="50px" viewBox="0 0 50 50" version="1.1" fill="#333333">
  <g id="surface154404">
    <path style=" stroke:none;fill-rule:nonzero;fill:#333333;fill-opacity:1;" d="M 17.820312 5.25 C 16.5 5.160156 15.199219 5.398438 14.0625 6.054688 C 12.546875 6.929688 11.535156 8.425781 10.992188 10.148438 C 10.449219 11.867188 10.324219 13.851562 10.523438 16.019531 C 10.542969 16.238281 10.582031 16.46875 10.609375 16.691406 C 10.402344 16.777344 10.183594 16.859375 9.980469 16.953125 C 8.007812 17.863281 6.351562 18.964844 5.132812 20.292969 C 3.914062 21.625 3.125 23.25 3.125 25 C 3.125 26.75 3.914062 28.375 5.132812 29.707031 C 6.351562 31.035156 8.007812 32.136719 9.980469 33.046875 C 10.183594 33.140625 10.402344 33.222656 10.609375 33.308594 C 10.582031 33.53125 10.542969 33.761719 10.523438 33.980469 C 10.324219 36.148438 10.449219 38.132812 10.992188 39.851562 C 11.535156 41.574219 12.546875 43.070312 14.0625 43.945312 C 15.578125 44.820312 17.378906 44.949219 19.140625 44.558594 C 20.902344 44.167969 22.683594 43.285156 24.460938 42.027344 C 24.640625 41.902344 24.820312 41.753906 25 41.621094 C 25.179688 41.753906 25.359375 41.902344 25.539062 42.027344 C 27.316406 43.285156 29.097656 44.167969 30.859375 44.558594 C 32.621094 44.949219 34.421875 44.820312 35.9375 43.945312 C 37.453125 43.070312 38.464844 41.574219 39.007812 39.851562 C 39.550781 38.132812 39.675781 36.148438 39.476562 33.980469 C 39.457031 33.761719 39.417969 33.53125 39.390625 33.308594 C 39.597656 33.222656 39.816406 33.140625 40.019531 33.046875 C 41.992188 32.136719 43.648438 31.035156 44.867188 29.707031 C 46.085938 28.375 46.875 26.75 46.875 25 C 46.875 23.25 46.085938 21.625 44.867188 20.292969 C 43.648438 18.964844 41.992188 17.863281 40.019531 16.953125 C 39.816406 16.859375 39.597656 16.777344 39.390625 16.691406 C 39.417969 16.46875 39.457031 16.238281 39.476562 16.019531 C 39.675781 13.851562 39.550781 11.867188 39.007812 10.148438 C 38.464844 8.425781 37.453125 6.929688 35.9375 6.054688 C 34.421875 5.179688 32.621094 5.050781 30.859375 5.441406 C 29.097656 5.832031 27.316406 6.714844 25.539062 7.972656 C 25.359375 8.097656 25.179688 8.246094 25 8.378906 C 24.820312 8.246094 24.640625 8.097656 24.460938 7.972656 C 22.683594 6.714844 20.902344 5.832031 19.140625 5.441406 C 18.699219 5.34375 18.257812 5.277344 17.820312 5.25 Z M 17.613281 8.363281 C 17.882812 8.382812 18.164062 8.425781 18.464844 8.492188 C 19.648438 8.753906 21.0625 9.417969 22.550781 10.457031 C 21.308594 11.632812 20.085938 12.972656 18.921875 14.472656 C 17.039062 14.734375 15.269531 15.121094 13.628906 15.605469 C 13.476562 13.796875 13.609375 12.238281 13.972656 11.085938 C 14.34375 9.90625 14.898438 9.179688 15.625 8.761719 C 16.167969 8.449219 16.816406 8.300781 17.613281 8.363281 Z M 32.386719 8.363281 C 33.183594 8.300781 33.832031 8.449219 34.375 8.761719 C 35.101562 9.179688 35.65625 9.90625 36.027344 11.085938 C 36.390625 12.238281 36.523438 13.796875 36.371094 15.605469 C 34.730469 15.121094 32.960938 14.734375 31.078125 14.472656 C 29.914062 12.972656 28.691406 11.632812 27.449219 10.457031 C 28.9375 9.417969 30.351562 8.753906 31.535156 8.492188 C 31.835938 8.425781 32.117188 8.382812 32.386719 8.363281 Z M 25 12.4375 C 25.550781 12.945312 26.097656 13.507812 26.644531 14.097656 C 26.101562 14.078125 25.554688 14.0625 25 14.0625 C 24.445312 14.0625 23.898438 14.078125 23.355469 14.097656 C 23.902344 13.507812 24.449219 12.945312 25 12.4375 Z M 25 17.1875 C 26.507812 17.1875 27.96875 17.277344 29.375 17.425781 C 30.207031 18.566406 31.011719 19.789062 31.765625 21.09375 C 32.519531 22.398438 33.171875 23.707031 33.746094 25 C 33.171875 26.292969 32.519531 27.601562 31.765625 28.90625 C 31.011719 30.210938 30.207031 31.433594 29.375 32.574219 C 27.96875 32.722656 26.507812 32.8125 25 32.8125 C 23.492188 32.8125 22.03125 32.722656 20.625 32.574219 C 19.792969 31.433594 18.988281 30.210938 18.234375 28.90625 C 17.480469 27.601562 16.828125 26.292969 16.253906 25 C 16.828125 23.707031 17.480469 22.398438 18.234375 21.09375 C 18.988281 19.789062 19.792969 18.566406 20.625 17.425781 C 22.03125 17.277344 23.492188 17.1875 25 17.1875 Z M 16.382812 18.125 C 16.09375 18.585938 15.804688 19.050781 15.527344 19.53125 C 15.25 20.011719 14.992188 20.492188 14.738281 20.976562 C 14.5 20.207031 14.285156 19.449219 14.121094 18.71875 C 14.835938 18.496094 15.597656 18.304688 16.382812 18.125 Z M 33.617188 18.125 C 34.402344 18.304688 35.164062 18.496094 35.878906 18.71875 C 35.714844 19.449219 35.5 20.207031 35.261719 20.976562 C 35.007812 20.492188 34.75 20.011719 34.472656 19.53125 C 34.195312 19.050781 33.90625 18.585938 33.617188 18.125 Z M 11.179688 19.847656 C 11.578125 21.511719 12.128906 23.238281 12.84375 25 C 12.128906 26.761719 11.578125 28.488281 11.179688 30.152344 C 9.535156 29.378906 8.253906 28.484375 7.4375 27.59375 C 6.601562 26.679688 6.25 25.835938 6.25 25 C 6.25 24.164062 6.601562 23.320312 7.4375 22.40625 C 8.253906 21.515625 9.535156 20.621094 11.179688 19.847656 Z M 38.820312 19.847656 C 40.464844 20.621094 41.746094 21.515625 42.5625 22.40625 C 43.398438 23.320312 43.75 24.164062 43.75 25 C 43.75 25.835938 43.398438 26.679688 42.5625 27.59375 C 41.746094 28.484375 40.464844 29.378906 38.820312 30.152344 C 38.421875 28.488281 37.871094 26.761719 37.15625 25 C 37.871094 23.238281 38.421875 21.511719 38.820312 19.847656 Z M 25 20.3125 C 22.429688 20.3125 20.3125 22.429688 20.3125 25 C 20.3125 27.570312 22.429688 29.6875 25 29.6875 C 27.570312 29.6875 29.6875 27.570312 29.6875 25 C 29.6875 22.429688 27.570312 20.3125 25 20.3125 Z M 25 23.4375 C 25.882812 23.4375 26.5625 24.117188 26.5625 25 C 26.5625 25.882812 25.882812 26.5625 25 26.5625 C 24.117188 26.5625 23.4375 25.882812 23.4375 25 C 23.4375 24.117188 24.117188 23.4375 25 23.4375 Z M 14.738281 29.023438 C 14.992188 29.507812 15.25 29.988281 15.527344 30.46875 C 15.804688 30.949219 16.09375 31.414062 16.382812 31.875 C 15.597656 31.695312 14.835938 31.503906 14.121094 31.28125 C 14.285156 30.550781 14.5 29.792969 14.738281 29.023438 Z M 35.261719 29.023438 C 35.5 29.792969 35.714844 30.550781 35.878906 31.28125 C 35.164062 31.503906 34.402344 31.695312 33.617188 31.875 C 33.90625 31.414062 34.195312 30.949219 34.472656 30.46875 C 34.75 29.988281 35.007812 29.507812 35.261719 29.023438 Z M 13.628906 34.394531 C 15.269531 34.878906 17.039062 35.265625 18.921875 35.527344 C 20.085938 37.027344 21.308594 38.367188 22.550781 39.542969 C 21.0625 40.582031 19.648438 41.246094 18.464844 41.507812 C 17.257812 41.773438 16.351562 41.65625 15.625 41.238281 C 14.898438 40.820312 14.34375 40.09375 13.972656 38.914062 C 13.609375 37.761719 13.476562 36.203125 13.628906 34.394531 Z M 36.371094 34.394531 C 36.523438 36.203125 36.390625 37.761719 36.027344 38.914062 C 35.65625 40.09375 35.101562 40.820312 34.375 41.238281 C 33.648438 41.65625 32.742188 41.773438 31.535156 41.507812 C 30.351562 41.246094 28.9375 40.582031 27.449219 39.542969 C 28.691406 38.367188 29.914062 37.027344 31.078125 35.527344 C 32.960938 35.265625 34.730469 34.878906 36.371094 34.394531 Z M 23.355469 35.902344 C 23.898438 35.921875 24.445312 35.9375 25 35.9375 C 25.554688 35.9375 26.101562 35.921875 26.644531 35.902344 C 26.097656 36.492188 25.550781 37.054688 25 37.5625 C 24.449219 37.054688 23.902344 36.492188 23.355469 35.902344 Z M 23.355469 35.902344 "/>
  </g>
</svg>