<?xml version="1.0" encoding="UTF-8" standalone="yes"?>
<svg xmlns="http://www.w3.org/2000/svg" xmlns:xlink="http://www.w3.org/1999/xlink" width="50px" height="50px" viewBox="0 0 50 50" version="1.1" fill="#333333">
  <g id="surface155468">
    <path style=" stroke:none;fill-rule:nonzero;fill:#333333;fill-opacity:1;" d="M 42.378906 5.554688 C 42.0625 5.203125 41.613281 5 41.136719 5 L 8.863281 5 C 8.386719 5 7.9375 5.203125 7.621094 5.554688 C 7.304688 5.910156 7.152344 6.378906 7.203125 6.851562 L 10.875 39.886719 C 10.949219 40.558594 11.421875 41.121094 12.074219 41.308594 L 24.539062 44.867188 C 24.691406 44.910156 24.84375 44.933594 25 44.933594 C 25.152344 44.933594 25.308594 44.910156 25.457031 44.867188 L 37.921875 41.308594 C 38.574219 41.121094 39.046875 40.558594 39.121094 39.886719 L 42.792969 6.851562 C 42.847656 6.378906 42.695312 5.910156 42.378906 5.554688 Z M 34.382812 17.382812 L 19.5 17.382812 L 19.851562 21.621094 L 34.023438 21.621094 L 32.960938 34.136719 L 25.003906 36.667969 L 24.925781 36.640625 L 17.058594 34.132812 L 16.628906 29.035156 L 20.484375 29.035156 L 20.652344 31.015625 L 25.046875 31.984375 L 29.363281 31.011719 L 29.824219 25.660156 L 16.339844 25.660156 L 15.296875 13.332031 L 34.726562 13.332031 Z M 34.382812 17.382812 "/>
  </g>
</svg>