<svg height="60" width="120" xmlns="http://www.w3.org/2000/svg" xmlns:xlink="http://www.w3.org/1999/xlink"><defs><path id="a" d="m359.9 65.5c0 .7-.6 1.3-1.3 1.3h-64.1c-.7 0-1.3-.6-1.3-1.3v-64.2c0-.7.6-1.3 1.3-1.3h64.1c.7 0 1.3.6 1.3 1.3z"/></defs><g fill="#ff0065" transform="matrix(.30564046 0 0 .30564521 5 19.75384)"><use height="100%" width="100%" xlink:href="#a"/><path d="m66.8 65.5c0 .7-.6 1.3-1.3 1.3h-64.2c-.7 0-1.3-.6-1.3-1.3v-64.2c0-.7.6-1.3 1.3-1.3h64.1c.7 0 1.3.6 1.3 1.3zm146.6-63.5c0-1.1-.9-2-2-2h-62.8c-1.1 0-2 .9-2 2v62.8c0 1.1.9 2 2 2h46.8l18-18zm-73.3 63.5c0 .7-.6 1.3-1.3 1.3h-64.2c-.7 0-1.3-.6-1.3-1.3v-64.2c0-.7.6-1.3 1.3-1.3h64.1c.7 0 1.3.6 1.3 1.3v64.2z"/><use height="100%" width="100%" x="-73.300003" xlink:href="#a"/></g><g stroke-width=".305643"><path d="m60.290358 26.722551c.305641 0 .733537.06113.916922.122258.672409.152821 1.191997.519597 1.558766 1.100323.580717.947499.458461 2.322903-.550153 2.995322-.122256.06113-.213948.152823-.336204.244517a74.053626 74.054777 0 0 0 1.28369 1.986693c.06113.06113 0 .183387-.0917.183387h-2.017223c-.0917 0-.152821-.03057-.213949-.122258l-1.069741-1.681048h-.855794v1.55879c0 .122258-.122256.244516-.244512.244516h-1.528198c-.122257 0-.244513-.122258-.244513-.244516v-6.112905c0-.122257.122256-.244515.244513-.244515zm-1.375382 3.178709h1.375382c.122256 0 .244513-.03057.366769-.0917.275077-.122259.397333-.366774.397333-.672419 0-.336211-.122256-.489033-.366769-.641855-.15282-.0917-.30564-.122258-.458461-.122258h-1.314254v1.528224m-39.702694-2.964749v6.143469a.20783551.20783874 0 0 1 -.213949.213951h-1.589331a.20783551.20783874 0 0 1 -.213948-.213953v-3.056452c-.641845.886372-1.314254 1.772743-1.956099 2.720243-.122256-.183387-1.925536-2.689677-2.017227-2.842501v3.209275a.20783551.20783874 0 0 1 -.213949.213952h-1.58933a.20783551.20783874 0 0 1 -.213948-.213952v-6.174033a.20783551.20783874 0 0 1 .213948-.213951h1.405947c.06113 0 .122256.03057.183383.0917l2.170048 2.995323 2.200612-2.995323c.03056-.06113.122256-.0917.183384-.0917h1.43651c.0917 0 .213949.0917.213949.213951m21.639344-.213951c.122256 0 .244512.0917.244512.244516v3.453791c-.03057.794677-.275077 1.55879-.886358 2.139516-.489025.489032-1.100305.733548-1.772714.855806-.397333.06113-.82523.0917-1.222562.06113-.855793-.06113-1.650458-.33621-2.261739-.978064-.397332-.427903-.641845-.9475-.733538-1.558791-.06113-.305645-.06113-.641855-.06113-.9475v-2.995324c0-.122257.122257-.244515.244513-.244515h1.497638c.122256 0 .244512.0917.244512.244515v2.964759c0 .33621.03057.702984.152821 1.00863.122256.27508.275076.489033.550153.641855.366768.183386.733537.213952 1.130869.122257.51959-.0917.855794-.397337.97805-.916936.06113-.183386.06113-.366774.06113-.55016v-3.270405c0-.122257.0917-.244515.244512-.244515h1.589331zm42.514587 0 2.934148 6.387984c.03057.0917-.03056.213952-.122256.213952h-1.772714c-.122256 0-.213949-.06113-.275077-.183387l-.275076-.672419h-2.842457l-.275076.672419c-.06113.122258-.15282.183387-.275076.183387h-1.772715c-.122256 0-.183384-.122258-.122256-.213952l2.964712-6.387984zm-.275077 4.156774-.702972-1.833872-.702974 1.833872zm21.180894-3.912258v4.645807h2.78133c.12225 0 .24451.122257.24451.244516v1.22258c0 .122259-.12226.244517-.24451.244517h-4.55405c-.12225 0-.24451-.122258-.24451-.244517v-6.112903c0-.122258.12226-.244516.24451-.244516h1.49764c.18339 0 .27508.0917.27508.244516" fill="#fff"/><path d="m64.722145 40.17094h-5.134759l5.28758-5.318227h5.165322z" fill="#b0044b"/><path d="m70.223673 34.669326h-4.890247c-.336204 0-.611281.275081-.611281.611291v4.890323z" fill="#ff5ba0"/></g></svg>