<svg 
  xmlns="http://www.w3.org/2000/svg" 
  xmlns:xlink="http://www.w3.org/1999/xlink" 
  xmlns:sketch="http://www.bohemiancoding.com/sketch/ns" 
  viewBox="-20 0 100 125" height="150px" version="1.1" x="0px" y="0px">
  <title>Curly Bracket-2</title>
  <desc>Created with Sketch.</desc>
  <g stroke="none" stroke-width="1" fill="none" fill-rule="evenodd" sketch:type="MSPage">
  <path d="M55.3092733,35.7263379 L55.3092733,19.7611511 C55.3092733,5.19298741 41.2482931,4.73823645 38,5.06039373 L38,14.4674869 L38,14.4674869 C42.5288557,14.6651171 46.2344206,18.5360459 46.2344206,23.0694391 L46.2344206,40.8198511 C46.2344206,44.6862425 48.2591211,48.0726751 51.2997009,50.000073 C48.2591211,51.9274709 46.2344206,55.3133993 46.2344206,59.1797907 L46.2344206,76.9307069 C46.2344206,81.4641 42.5288557,85.3345247 38,85.5321549 L38,85.5321549 L38,94.9397522 C41.2482931,95.2614053 55.3092733,94.8066544 55.3092733,80.2384907 L55.3092733,64.2738081 C55.3092733,64.2738081 54.8051149,54.0222494 62.0312185,54.0222494 L62.0312185,45.9773924 C54.8051149,45.9773924 55.3092733,35.7263379 55.3092733,35.7263379" fill="#000000" sketch:type="MSShapeGroup" transform="translate(50.015609, 50.000000) scale(-1, 1) translate(-50.015609, -50.000000) "/>
  </g>
 </svg>