<svg id="Layer_1" data-name="Layer 1" xmlns="http://www.w3.org/2000/svg" viewBox="0 0 532.83 605.57"><defs><style>.cls-1{fill:#feed49;}.cls-2{fill:#4bae17;}.cls-3{fill:#8f80ae;}.cls-4{fill:#fe8b84;}.cls-5{fill:#439612;}.cls-6{fill:#fe7062;}.cls-7{fill:#feed4a;}.cls-8{fill:#fefefe;}.cls-9{fill:#ab99c3;}</style></defs><path class="cls-1" d="M887,506.36c-.21.91-.43,1.83-.64,2.74-.07,1.24,0,2.51-.23,3.73Q883.7,528,881.2,543.12l-.3.78c-2.88,10.63-5.37,21.38-8.72,31.86a240.63,240.63,0,0,1-21.25,47.46c-8.13,14-17.35,27.34-28.44,39.18-7.73,8.25-16,16-24.35,23.66-2.86,2.62-5.46,6.25-10.16,6q-34,0-68-.1c-12.36,0-24.72.07-37.07.1-2.67-.35-5.53-.19-8-1.13-22.28-8.54-41.64-21.71-58.74-38.19a167.58,167.58,0,0,1-14.94-17,148.89,148.89,0,0,1-19.32-31.1c-1.52-3.36-3.28-6.61-4.94-9.91l-1-3.19c-3.12-11.32-6.89-22.51-9.17-34A236.22,236.22,0,0,1,563,524.54c-.5-9.23.22-18.55.7-27.81.35-6.59,1.2-13.14,1.82-19.71l.12-3.38.63-2.08.06-2c.48-2.25,1-4.49,1.43-6.74,1.8-8.58,3.53-17.18,5.48-25.73.22-1,1.68-1.65,2.57-2.47,10.24-.87,20.49-1.7,30.74-2.63,11.25-1,22.49-2.17,33.75-3.18,9-.82,18-1.48,27-2.27S685.09,424.91,694,424c3.88-.4,7.73-1.06,11.59-1.6l17.08-1.21,29.16-2.42,28.65-2.54c1.58,0,3.17.14,4.73,0q18.47-1.68,36.92-3.45l5.46-.69h2.73l4.1-.63c3.37-.2,6.75-.35,10.12-.63,6.07-.52,12.12-1.14,18.19-1.68,6.59-.59,13.19-1.13,20.22-1.72,1.17,8.83,2.3,17.38,3.44,25.93.21.91.41,1.82.62,2.73l.06,1.36c.21,2.28.41,4.55.62,6.83q0,27.3,0,54.59c-.19,1.82-.39,3.64-.58,5.46ZM773.53,529.14c-3.71.07-8.06,4.76-7.85,8.45a6.9,6.9,0,0,0,7,6.14c3.58-.19,7.84-4.78,7.69-8.29A6.83,6.83,0,0,0,773.53,529.14Zm-.6,123.16a6.16,6.16,0,0,0-6-6.57,6.78,6.78,0,0,0-6.8,6.65,6.55,6.55,0,0,0,6.39,6.63A6.62,6.62,0,0,0,772.93,652.3Zm23.19-144a6.78,6.78,0,0,0,6.73-6.74,6.44,6.44,0,0,0-6.08-6.55,6.7,6.7,0,0,0-6.69,6.39A6.35,6.35,0,0,0,796.12,508.25ZM851,426.7a6.75,6.75,0,0,0-6.89,6.2A6.5,6.5,0,0,0,850,440a6.64,6.64,0,0,0,6.83-6.19A6.32,6.32,0,0,0,851,426.7Zm-211.79,96c0-3.82-2.39-6.16-6.17-6.17a6.4,6.4,0,0,0-6.59,6.71,6.28,6.28,0,0,0,6.3,6.29A6.42,6.42,0,0,0,639.22,522.69ZM775.84,608.4a6.19,6.19,0,0,0,6.1,6.42,6.41,6.41,0,0,0,6.68-6.63,6,6,0,0,0-6.07-6.36A6.38,6.38,0,0,0,775.84,608.4Zm-63.39-56.31a6.35,6.35,0,0,0,6.52-6.41,6.28,6.28,0,0,0-6.35-6.55,6.46,6.46,0,0,0-6.47,6.86A5.94,5.94,0,0,0,712.45,552.09Zm52.61-69.61a6.37,6.37,0,0,0,6.49-6.77,6.15,6.15,0,0,0-6.26-6.19,6.31,6.31,0,0,0-6.5,6.41A6.12,6.12,0,0,0,765.06,482.48ZM662.7,572a6.34,6.34,0,0,0,6.49-6.4,6.43,6.43,0,0,0-6.37-6.6,6.83,6.83,0,0,0-6.48,6.61A6,6,0,0,0,662.7,572Zm37,81.06a6.34,6.34,0,0,0-6.4,6.54,6.19,6.19,0,0,0,6.45,6.43,6.3,6.3,0,0,0,6.29-6.6C706.06,655.45,703.59,653,699.72,653ZM598.06,450.62a6.37,6.37,0,1,0-12.71-.77A6.35,6.35,0,0,0,591,457C594.52,457.38,597.75,454.43,598.06,450.62Zm50.34,3.29a6.5,6.5,0,0,0,.28-13,6.78,6.78,0,0,0-6.56,6.86A6.06,6.06,0,0,0,648.4,453.91Zm85.44,213.41a6.29,6.29,0,0,0-6.4,6.46,6.56,6.56,0,0,0,6.46,6.53,6.48,6.48,0,0,0,6.31-6.7C740.25,669.65,737.85,667.28,733.84,667.32ZM612.74,483.85a6.32,6.32,0,0,0,6.65-6.59,6.23,6.23,0,0,0-6.16-6.38,6.47,6.47,0,0,0-6.65,6.68A6.12,6.12,0,0,0,612.74,483.85Zm117.85,141.3c-.11,4.18,2,6.6,5.88,6.72a6.22,6.22,0,0,0,6.48-6.35c.13-4.08-2.11-6.57-6-6.63S730.69,621.14,730.59,625.15ZM646.65,638c-.08,4,2.35,6.72,6,6.71a6.24,6.24,0,0,0,6.37-6.49c.07-3.92-2.41-6.68-6-6.75S646.73,634.16,646.65,638Zm-1.37-35.45c0,3.78,2.35,6.5,5.76,6.63a6.37,6.37,0,0,0,6.61-6.67c0-3.82-2.62-6.64-6.21-6.62S645.31,598.71,645.28,602.58ZM863.41,465.34a6.5,6.5,0,0,0-.25,13,6.83,6.83,0,0,0,6.55-6.87A6.11,6.11,0,0,0,863.41,465.34Zm-252.29,90.3c0,4.06,2.27,6.59,6.08,6.63a6.38,6.38,0,0,0,6.33-6.57c.08-4-2.23-6.43-6.15-6.43S611.17,551.56,611.12,555.64Zm-.48,39.88c.06-4.12-2.21-6.6-6-6.59a6.23,6.23,0,0,0-6.37,6.47c-.07,4.09,2.17,6.49,6.08,6.5S610.59,599.42,610.64,595.52Zm202,42.48c0-3.9-2.63-6.6-6.29-6.49s-6.14,2.82-6.14,6.75a6.18,6.18,0,0,0,5.95,6.48C809.9,644.8,812.63,642,812.62,638Zm2.74-72.5c0-4-2.16-6.4-5.78-6.53a6.39,6.39,0,0,0-6.59,6.66c0,4,2.26,6.36,6.25,6.32S815.35,569.66,815.36,565.5Zm-1.36-101c0-3.78-2.38-6.45-5.84-6.55a6.37,6.37,0,0,0-6.53,6.68c0,4.12,2.17,6.34,6.2,6.3S814,468.61,814,464.53ZM697.31,448.72c0-3.66-2.57-6.37-6-6.35-3.77,0-6.44,2.88-6.38,6.85.06,3.74,2.51,6.29,6.09,6.34C694.77,455.61,697.33,452.82,697.31,448.72Zm0,71.2c0-3.77-2.4-6.37-5.89-6.4a6.31,6.31,0,0,0-6.48,6.73c0,3.71,2.5,6.34,6,6.43C694.67,526.77,697.32,524,697.31,519.92Zm10.15,75.45a6.13,6.13,0,0,0-6-6.43,6.51,6.51,0,0,0-6.68,6.6,6.08,6.08,0,0,0,6.41,6.36A6.22,6.22,0,0,0,707.46,595.37ZM595,515.83c0-3.79-2.62-6.72-6.07-6.66a6.34,6.34,0,0,0-6.3,6.58c-.09,4.09,2.11,6.39,6.11,6.39S594.9,519.91,595,515.83Zm-2.77,38.36c0-3.93-2.17-6.26-6-6.32-4-.07-6.36,2.21-6.44,6.26-.08,3.73,2.37,6.58,5.78,6.71C589.33,561,592.15,558.15,592.19,554.19Zm166.45,28.46a6.22,6.22,0,0,0-6.17-6.63,6.34,6.34,0,0,0-6.24,6.58c0,4,2,6.33,5.73,6.41C756,589.1,758.57,586.65,758.64,582.65Zm-18.92-83.19c-3.91,0-6.31,2.33-6.37,6.28s2.48,6.68,6,6.72a6.28,6.28,0,0,0,6.35-6.48C745.85,501.89,743.63,499.5,739.72,499.46Zm-15.2-22.31a6.08,6.08,0,0,0-6.16-6.26,6.58,6.58,0,0,0-6.51,6.78,6.07,6.07,0,0,0,6.58,6.18A6.21,6.21,0,0,0,724.52,477.15Zm34.12-31.24a6.13,6.13,0,0,0-6.13-6.37,6.26,6.26,0,0,0-6.28,6.58c0,4.15,2.22,6.47,6.2,6.41C756.1,452.49,758.67,449.75,758.64,445.91Zm38.82-18.27c0,4.19,2.15,6.47,6.14,6.43,3.68,0,6.24-2.76,6.22-6.6a6,6,0,0,0-6.09-6.36C800.07,421.08,797.47,423.79,797.46,427.64Zm50.66,95c0-3.92-2.28-6.18-6.11-6.15s-6.25,2.57-6.26,6.51a6.1,6.1,0,0,0,6.32,6.48C845.66,529.4,848.15,526.58,848.12,522.68Zm-5.94,62.08a6.12,6.12,0,0,0-6.43,6.38c-.07,3.71,2.36,6.47,5.82,6.62,3.76.16,6.53-2.66,6.55-6.66S846,584.82,842.18,584.76ZM676.08,477.45c0-3.73-2.39-6.44-5.88-6.57a6.24,6.24,0,0,0-6.49,6.35c-.09,4.19,2.1,6.62,6,6.62A6.05,6.05,0,0,0,676.08,477.45Z" transform="translate(-499.73 -90.38)"/><path class="cls-2" d="M722.64,421.19l-17.08,1.21c-3.7-6.25-6.89-12.9-11.24-18.67A114.21,114.21,0,0,0,678.2,386c-12.05-10.44-25.93-17.93-41.75-20.85-8.52-1.58-17.28-1.75-25.9-2.85-9.57-1.22-19.18-2.32-28.61-4.28-17.14-3.58-33.55-9.28-48.41-18.89a72.37,72.37,0,0,1-29.7-37.07c-2.17-6.06-2.9-12.74-3.58-19.21a78.84,78.84,0,0,1-.11-17c1.62-14.16,5.45-27.53,14.83-38.89,10.77-13,24.83-19.82,41.16-22.14,17.92-2.55,35.27.12,52.13,6.69C628.5,219.4,645.44,232,660,247.85a156.88,156.88,0,0,1,22.44,31.89c6.21,11.54,12.55,23,18.31,34.78C713.62,340.86,724.32,368,731,396.67c.58,2.47,1.58,4.84,2.38,7.26-.54,1.91-1.07,3.82-1.77,6.32-.49-1-.77-1.44-.94-1.92a243.76,243.76,0,0,0-18.1-39.16A248.29,248.29,0,0,0,674,318.5c-5.92-6.06-12.5-11.48-18.94-17A212,212,0,0,0,617.87,276a234.6,234.6,0,0,0-48.94-20.22c-4.66-1.29-8.45,1.6-8.17,6.44.25,4.35,3.56,5.38,6.91,6.32a206,206,0,0,1,48.56,21c20.5,12,39.38,26.29,54.91,44.45,7.92,9.26,15.55,18.83,22.59,28.77,11.93,16.84,20.52,35.42,26.88,55A16.64,16.64,0,0,0,722.64,421.19Z" transform="translate(-499.73 -90.38)"/><path class="cls-2" d="M780.45,416.23l-28.65,2.54a5.29,5.29,0,0,1,.19-1.34A126.7,126.7,0,0,1,789.84,368a109.61,109.61,0,0,1,47.51-22.3,154.88,154.88,0,0,1,24.83-2.9c6.37-.21,12.82.93,19.17,1.86a118,118,0,0,1,47,17.71c5.13,3.29,9.78,7.32,14.79,10.8,2.91,2,7.12.81,9.28-2.27,1.61-2.3.69-5.17-2-7.6-10-8.93-21.39-15.52-33.47-21.05a134,134,0,0,0-52.59-11.83c-6.41-.17-12.86.65-19.26,1.28-14.73,1.47-28.55,6.13-41.63,12.81a133.36,133.36,0,0,0-46.85,40.06c-2.05,2.76-4,5.58-6,8.38l-.88-.36q3.1-13.31,6.2-26.61c3.66-5.27,7-10.81,11-15.73,6.34-7.7,12.62-15.58,19.92-22.31C807,309.36,831,297.59,857.64,291.61a213.39,213.39,0,0,1,28.59-4.16,223.62,223.62,0,0,1,28.82-.7c24.84,1.1,49.38,4.28,72.69,13.64,10.7,4.29,20.61,10,28.85,18.16,17.22,17,20.07,39.22,10.69,60.52-7,16-18.62,28.06-33.78,36.55a78.15,78.15,0,0,1-27.23,9c-12.52,1.83-24-1.3-35-6.37-19.87-9.14-39.47-18.84-59.28-28.11-9.23-4.32-18.55-8.63-28.71-10.28-4.95-.8-10-.72-15.06-1-5.44-.36-10.44,1.38-15.12,3.79C798.53,390.16,788.75,402.5,780.45,416.23Z" transform="translate(-499.73 -90.38)"/><path class="cls-3" d="M-25.56,133.23" transform="translate(-499.73 -90.38)"/><path class="cls-4" d="M827.44,192.44c-2.41,7.81-4.55,15.72-7.31,23.41-3.22,8.92-8.8,16.6-15.31,23.27a63,63,0,0,1-24.6,15.9c-7.5,2.55-15.4,3.93-23.12,5.82l-5.68.55-7.19.71c-14.47-.47-28.49-2.67-41.37-9.94-11.43-6.45-19.94-15.69-26.28-27a109.44,109.44,0,0,1-12.74-37.7c-.13-.85-.3-1.7-.46-2.56a37.81,37.81,0,0,1,5.11.11c15.51,2.35,30.18,7.11,43.31,15.88,2.3,1.53,3.58,1,5.61-.2,4.24-2.58,8.49-5.44,13.13-7,13.85-4.65,26.83-4.43,36.65,8.71.47.63,2.27.74,3.25.44,3.24-1,6.35-2.43,9.58-3.47C795.44,194.47,811.2,191.79,827.44,192.44Z" transform="translate(-499.73 -90.38)"/><path class="cls-5" d="M744.23,262.1l7.19-.71,5.68-.55a338.17,338.17,0,0,1,2.81,60.83c-.56,11.53-2.17,23-3.27,34.53-.32,3.25-.5,6.51-.74,9.77q-3.09,13.3-6.2,26.61l.88.36c2-2.8,4-5.62,6-8.38a133.36,133.36,0,0,1,46.85-40.06c13.08-6.68,26.9-11.34,41.63-12.81,6.4-.63,12.85-1.45,19.26-1.28a134,134,0,0,1,52.59,11.83c12.08,5.53,23.51,12.12,33.47,21.05,2.72,2.43,3.64,5.3,2,7.6-2.16,3.08-6.37,4.29-9.28,2.27-5-3.48-9.66-7.51-14.79-10.8a118,118,0,0,0-47-17.71c-6.35-.93-12.8-2.07-19.17-1.86a154.88,154.88,0,0,0-24.83,2.9A109.61,109.61,0,0,0,789.84,368,126.7,126.7,0,0,0,752,417.43a5.29,5.29,0,0,0-.19,1.34l-29.16,2.42a16.64,16.64,0,0,1-2-3.35c-6.36-19.62-15-38.2-26.88-55-7-9.94-14.67-19.51-22.59-28.77-15.53-18.16-34.41-32.41-54.91-44.45a206,206,0,0,0-48.56-21c-3.35-.94-6.66-2-6.91-6.32-.28-4.84,3.51-7.73,8.17-6.44A234.6,234.6,0,0,1,617.87,276a212,212,0,0,1,37.21,25.46c6.44,5.52,13,10.94,18.94,17a248.29,248.29,0,0,1,38.53,50.67,243.76,243.76,0,0,1,18.1,39.16c.17.48.45.93.94,1.92.7-2.5,1.23-4.41,1.77-6.32,1.56-6,3.31-12,4.64-18,1.63-7.36,3-14.8,4.33-22.22,1-5.19,2-10.39,2.57-15.64.72-6.44,1.07-12.92,1.44-19.39.48-8.23,1.2-16.47,1.09-24.7s-1.11-16.37-1.75-24.55C745.23,273.64,744.71,267.87,744.23,262.1Z" transform="translate(-499.73 -90.38)"/><path class="cls-6" d="M827.44,192.44c-16.24-.65-32,2-47.42,6.94-3.23,1-6.34,2.47-9.58,3.47-1,.3-2.78.19-3.25-.44-9.82-13.14-22.8-13.36-36.65-8.71-4.64,1.56-8.89,4.42-13.13,7-2,1.23-3.31,1.73-5.61.2-13.13-8.77-27.8-13.53-43.31-15.88a37.81,37.81,0,0,0-5.11-.11c-3.25-17.4-2.41-34.92-1.57-52.77,6.25.54,11.43,3.39,16.49,6.37,9.63,5.68,17.69,13.28,25.44,21.25a17,17,0,0,0,3,2l6.45,8.46,7.27-11.81c5.1-6.11,10-12.38,15.37-18.26,3.94-4.33,8.42-8.17,12.71-12.17,2.23-2.07,4.23-3,7.17-.36,6.59,5.8,10.88,13.16,15.19,20.55,1.76,3,3.14,6.23,4.8,9.3a15.46,15.46,0,0,0,2,2.38l3.93,10.67c2-2.89,3.52-5,5-7.1s3.22-4.28,4.83-6.42c6.86-5.9,13.89-11.62,22.31-15.18,5.39-2.28,11-4,17.44-6.35,0,3.36,0,5.58,0,7.81-.07,8.06.29,16.16-.34,24.18C830.22,175.83,828.63,184.12,827.44,192.44Z" transform="translate(-499.73 -90.38)"/><path class="cls-7" d="M720.41,158.41l-7.27,11.81-6.45-8.46c0-14.19,0-28.38-.07-42.58a5.24,5.24,0,0,0-1.73-3.24A15.07,15.07,0,0,1,706,92.62c7-5.37,19.84-.47,21.91,8.37,1.58,6.77-.93,12.49-6.91,16.19a4,4,0,0,0-1.86,2.71c.11,12.47.38,24.94.65,37.41C719.81,157.67,720.2,158,720.41,158.41Z" transform="translate(-499.73 -90.38)"/><path class="cls-7" d="M791.46,157c-1.61,2.14-3.25,4.26-4.83,6.42s-3,4.21-5,7.1l-3.93-10.67c.93-6.75,2-13.48,2.72-20.24.54-5.15.54-10.35.84-15.52a3.73,3.73,0,0,0-2.4-4.17c-4.86-2.34-8.69-10.19-6.29-16.81a14.13,14.13,0,0,1,14.32-9.54c5.72.31,10.09,3,12.46,8.41a13.86,13.86,0,0,1-2.81,15.36c-1.81,1.72-2.29,3.51-2.45,5.93-.71,10.35-1.71,20.67-2.59,31C791.38,155.18,791.45,156.09,791.46,157Z" transform="translate(-499.73 -90.38)"/><path class="cls-8" d="M788,692.08c4.7.23,7.3-3.4,10.16-6,8.33-7.66,16.62-15.41,24.35-23.66,11.09-11.84,20.31-25.15,28.44-39.18a240.63,240.63,0,0,0,21.25-47.46c3.35-10.48,5.84-21.23,8.72-31.86.65,1.23,1.83,2.46,1.84,3.69,0,4.69-.27,9.38-.66,14a4.47,4.47,0,0,1-1.62,3.05,9.12,9.12,0,0,0-4.13,9.24,10.17,10.17,0,0,1,.26,4c-.25,1-1.26,2.53-2.12,2.66-2.12.33-2.54,1.39-2.58,3.23-.07,3-.62,6.1-.45,9.12.22,3.93-1.62,5.3-4.93,5-.23,2.44-.62,4.64-.6,6.83,0,2.46-.83,3.77-3.39,4.13-.6.08-1.29,1.41-1.45,2.26a15,15,0,0,0-.05,4.07c.25,2.67-.39,4.39-3.54,4.52-.67,0-1.62,1.35-1.86,2.24a37.94,37.94,0,0,0-.76,5.34c0,.23,0,.6-.06.66-3.23,1.86-4.21,6.06-7.16,7.72-2.35,1.32-3,2.49-3,4.85,0,5.28,0,5.28-5.14,6.7-.23,2.66-1.5,4-4.11,5.71-2.28,1.47-3.83,5-7,6.49-.25.12-.06,1.08-.16,1.63-.42,2.51-.31,5.2-3.77,6-1,.23-1.6,2-2.25,3.17-.25.45.08,1.33-.22,1.64-2.57,2.62-5.24,5.15-7.86,7.72-.78.77-2,1.5-2.16,2.4-.42,2.24-1.57,3.13-3.71,3.08-1.25,0-2.5,0-3.75,0-2-.09-2.76.62-3.8,2.68-1.67,3.31-5.61,5-8.15,7.91C791.79,696.62,788.47,694.76,788,692.08Z" transform="translate(-499.73 -90.38)"/><path class="cls-8" d="M577,594.78c1.66,3.3,3.42,6.55,4.94,9.91a148.89,148.89,0,0,0,19.32,31.1,167.58,167.58,0,0,0,14.94,17c17.1,16.48,36.46,29.65,58.74,38.19,2.44.94,5.3.78,8,1.13-.73,1.09-1.38,3-2.2,3.1a79,79,0,0,1-10.32-.08c-.4,0-1-.71-1.1-1.17-.65-3.91-3.59-3.41-6.29-3.31s-4.94-.35-5.48-3.7c-.12-.7-1.5-1.51-2.41-1.69a18.64,18.64,0,0,0-4.42-.07c-2,.09-3.41-.38-3.27-2.76.13-2.12-1.06-2.55-2.94-2.82-1.13-.17-2.83-1.31-3-2.24-.49-2.66-1.86-3.36-4.27-3.13a14.62,14.62,0,0,1-3.74,0c-.79-.13-2.15-.77-2.15-1.16.05-3.28-2.83-3.41-4.48-5-2.25-2.13-4.41-4.43-6.62-6.65-1.55-1.56-1.92-4-4.93-3.77-.78,0-1.89-.93-2.41-1.73-1.61-2.47-3-5.11-4.54-7.62a4.24,4.24,0,0,0-1.62-1.16c-.5-.26-1.25-.2-1.58-.57a114.15,114.15,0,0,1-8.25-9.92c-1.94-.74-4.78-.36-4.74-3.93,0-2.37,0-4.73,0-7.25-3-.33-5.35-1-5.72-4.44-.08-.73-1.83-1.51-2.94-1.83-2-.57-2.39-1.53-2-3.52a32.73,32.73,0,0,0,.08-5.82c-1.73-1.17-4.56-2.09-4.76-3.41C576.17,602.62,574.09,598.56,577,594.78Z" transform="translate(-499.73 -90.38)"/><path class="cls-8" d="M565.48,477c-.62,6.57-1.47,13.12-1.82,19.71-.48,9.26-1.2,18.58-.7,27.81a236.22,236.22,0,0,0,3.84,33.06c2.28,11.48,6.05,22.67,9.17,34-3.49.75-4.64-1.19-5-4.23-.38-3.36-.84-6.71-1.44-10-.13-.72-1-1.83-1.52-1.87-3.45-.2-3.15-2.49-3.09-4.86.13-4.71.16-9.41.16-14.12,0-.49-.4-1.34-.75-1.41-5.16-1.11-3.84-6-4.67-9.06s.36-6.77.69-10.19c0-.33.36-.72.27-1-2.89-7.1,1.28-13.92.81-20.92-.06-.9.26-2-.15-2.69-3-5.19-1-10.53-.69-15.82.06-1.1-.46-2.21-.48-3.32-.06-4.26-.18-8.53,0-12.78S563.45,477.26,565.48,477Z" transform="translate(-499.73 -90.38)"/><path class="cls-8" d="M780.45,416.23c8.3-13.73,18.08-26.07,32.67-33.62,4.68-2.41,9.68-4.15,15.12-3.79-.31,3.67-2,5.29-5.5,5.42-1.92.06-3.82.37-5.74.42-2.85.07-5.38.39-5.77,4-.05.49-.88,1.15-1.45,1.28-2.26.48-4.11,1.18-4.31,4,0,.47-1.25.78-1.79,1.3-1,.94-1.89,2-2.77,3-.5.59-.75,1.66-1.33,1.85A5.8,5.8,0,0,0,795.1,405c-.12.73-1.91,1.16-2.94,1.74-.69.4-2,.89-2,1.2a4.4,4.4,0,0,0,1.26,2.79,5.52,5.52,0,0,0,3.22.75c5.56-.14,11.11-.55,16.67-.58a97.22,97.22,0,0,1,10,.82c.26,0,.47.68.7,1q-18.45,1.74-36.92,3.45C783.62,416.37,782,416.23,780.45,416.23Z" transform="translate(-499.73 -90.38)"/><path class="cls-8" d="M887.62,498.86q0-27.3,0-54.59c5.62,0,6.26,1.05,5.58,6.86-.5,4.32-.24,8.73-.5,13.08-.19,3.1-.88,6.18-1,9.28,0,1.72.91,3.44,1.05,5.19a83.7,83.7,0,0,1,.23,8.53c0,1.66-.74,3.34-.58,5C893,497.14,892.56,497.83,887.62,498.86Z" transform="translate(-499.73 -90.38)"/><path class="cls-8" d="M886.36,433.35c-1.14-8.55-2.27-17.1-3.44-25.93-7,.59-13.63,1.13-20.22,1.72-6.07.54-12.12,1.16-18.19,1.68-3.37.28-6.75.43-10.12.63,1.11-3.18,3-5.42,6.7-5.4,7,0,14.1-.05,21.14,0,5,.05,9.94.4,14.91.39,1.74,0,3.48-1,5.23-1,4.81-.09,5.54,1.23,5.36,6-.21,5.64.38,11.31.31,17C888,430,887,431.68,886.36,433.35Z" transform="translate(-499.73 -90.38)"/><path class="cls-8" d="M881.2,543.12q2.47-15.14,4.93-30.29c.19-1.22.16-2.49.23-3.73.62,1.51,1.74,3,1.77,4.55.08,4-.37,8-.5,12.06-.09,2.78.18,5.58-.08,8.34s-1,5.24-1.52,8.13Z" transform="translate(-499.73 -90.38)"/><path class="cls-8" d="M575.77,434.6c-.89.82-2.35,1.5-2.57,2.47-2,8.55-3.68,17.15-5.48,25.73-.47,2.25-1,4.49-1.43,6.74-.45-.4-1.24-.77-1.28-1.21a38.47,38.47,0,0,1-.14-5.26c.2-5.19.38-10.38.77-15.55.07-.95,1-2.47,1.7-2.63,3.33-.75,3-3.12,3-5.54a14.61,14.61,0,0,1,.1-4.39,3.72,3.72,0,0,1,2.29-2.18C574,432.45,575.87,432.15,575.77,434.6Z" transform="translate(-499.73 -90.38)"/><path class="cls-8" d="M830.29,412.08h-2.73Q828.93,409.4,830.29,412.08Z" transform="translate(-499.73 -90.38)"/><path class="cls-8" d="M566.23,471.56l-.63,2.08Z" transform="translate(-499.73 -90.38)"/><path class="cls-8" d="M887,506.36c0-.68,0-1.36,0-2l1.15.88Z" transform="translate(-499.73 -90.38)"/><path class="cls-8" d="M887,437.44l-.06-1.36,1,.65Z" transform="translate(-499.73 -90.38)"/><path class="cls-9" d="M773.53,529.14a6.83,6.83,0,0,1,6.79,6.3c.15,3.51-4.11,8.1-7.69,8.29a6.9,6.9,0,0,1-7-6.14C765.47,533.9,769.82,529.21,773.53,529.14Z" transform="translate(-499.73 -90.38)"/><path class="cls-9" d="M772.93,652.3a6.62,6.62,0,0,1-6.37,6.71,6.55,6.55,0,0,1-6.39-6.63,6.78,6.78,0,0,1,6.8-6.65A6.16,6.16,0,0,1,772.93,652.3Z" transform="translate(-499.73 -90.38)"/><path class="cls-9" d="M796.12,508.25a6.35,6.35,0,0,1-6-6.9,6.7,6.7,0,0,1,6.69-6.39,6.44,6.44,0,0,1,6.08,6.55A6.78,6.78,0,0,1,796.12,508.25Z" transform="translate(-499.73 -90.38)"/><path class="cls-9" d="M851,426.7a6.32,6.32,0,0,1,5.84,7.06A6.64,6.64,0,0,1,850,440a6.5,6.5,0,0,1-5.9-7.05A6.75,6.75,0,0,1,851,426.7Z" transform="translate(-499.73 -90.38)"/><path class="cls-9" d="M639.22,522.69a6.42,6.42,0,0,1-6.46,6.83,6.28,6.28,0,0,1-6.3-6.29,6.4,6.4,0,0,1,6.59-6.71C636.83,516.53,639.18,518.87,639.22,522.69Z" transform="translate(-499.73 -90.38)"/><path class="cls-9" d="M775.84,608.4a6.38,6.38,0,0,1,6.71-6.57,6,6,0,0,1,6.07,6.36,6.41,6.41,0,0,1-6.68,6.63A6.19,6.19,0,0,1,775.84,608.4Z" transform="translate(-499.73 -90.38)"/><path class="cls-9" d="M712.45,552.09a5.94,5.94,0,0,1-6.3-6.1,6.46,6.46,0,0,1,6.47-6.86,6.28,6.28,0,0,1,6.35,6.55A6.35,6.35,0,0,1,712.45,552.09Z" transform="translate(-499.73 -90.38)"/><path class="cls-9" d="M765.06,482.48a6.12,6.12,0,0,1-6.27-6.55,6.31,6.31,0,0,1,6.5-6.41,6.15,6.15,0,0,1,6.26,6.19A6.37,6.37,0,0,1,765.06,482.48Z" transform="translate(-499.73 -90.38)"/><path class="cls-9" d="M662.7,572a6,6,0,0,1-6.36-6.39,6.83,6.83,0,0,1,6.48-6.61,6.43,6.43,0,0,1,6.37,6.6A6.34,6.34,0,0,1,662.7,572Z" transform="translate(-499.73 -90.38)"/><path class="cls-9" d="M699.72,653c3.87-.07,6.34,2.43,6.34,6.37a6.3,6.3,0,0,1-6.29,6.6,6.19,6.19,0,0,1-6.45-6.43A6.34,6.34,0,0,1,699.72,653Z" transform="translate(-499.73 -90.38)"/><path class="cls-9" d="M598.06,450.62c-.31,3.81-3.54,6.76-7,6.41a6.35,6.35,0,0,1-5.69-7.18,6.37,6.37,0,1,1,12.71.77Z" transform="translate(-499.73 -90.38)"/><path class="cls-9" d="M648.4,453.91a6.06,6.06,0,0,1-6.28-6.14,6.78,6.78,0,0,1,6.56-6.86,6.5,6.5,0,0,1-.28,13Z" transform="translate(-499.73 -90.38)"/><path class="cls-9" d="M733.84,667.32c4,0,6.41,2.33,6.37,6.29a6.48,6.48,0,0,1-6.31,6.7,6.56,6.56,0,0,1-6.46-6.53A6.29,6.29,0,0,1,733.84,667.32Z" transform="translate(-499.73 -90.38)"/><path class="cls-9" d="M612.74,483.85a6.12,6.12,0,0,1-6.16-6.29,6.47,6.47,0,0,1,6.65-6.68,6.23,6.23,0,0,1,6.16,6.38A6.32,6.32,0,0,1,612.74,483.85Z" transform="translate(-499.73 -90.38)"/><path class="cls-9" d="M730.59,625.15c.1-4,2.46-6.33,6.39-6.26s6.1,2.55,6,6.63a6.22,6.22,0,0,1-6.48,6.35C732.6,631.75,730.48,629.33,730.59,625.15Z" transform="translate(-499.73 -90.38)"/><path class="cls-9" d="M646.65,638c.08-3.87,2.71-6.59,6.32-6.53s6.12,2.83,6,6.75a6.24,6.24,0,0,1-6.37,6.49C649,644.75,646.57,642,646.65,638Z" transform="translate(-499.73 -90.38)"/><path class="cls-9" d="M645.28,602.58c0-3.87,2.59-6.64,6.16-6.66s6.24,2.8,6.21,6.62a6.37,6.37,0,0,1-6.61,6.67C647.63,609.08,645.26,606.36,645.28,602.58Z" transform="translate(-499.73 -90.38)"/><path class="cls-9" d="M863.41,465.34a6.11,6.11,0,0,1,6.3,6.13,6.83,6.83,0,0,1-6.55,6.87,6.5,6.5,0,0,1,.25-13Z" transform="translate(-499.73 -90.38)"/><path class="cls-9" d="M611.12,555.64c0-4.08,2.3-6.36,6.26-6.37s6.23,2.41,6.15,6.43a6.38,6.38,0,0,1-6.33,6.57C613.39,562.23,611.07,559.7,611.12,555.64Z" transform="translate(-499.73 -90.38)"/><path class="cls-9" d="M610.64,595.52c0,3.9-2.52,6.4-6.32,6.38s-6.15-2.41-6.08-6.5a6.23,6.23,0,0,1,6.37-6.47C608.43,588.92,610.7,591.4,610.64,595.52Z" transform="translate(-499.73 -90.38)"/><path class="cls-9" d="M812.62,638c0,4-2.72,6.8-6.48,6.74a6.18,6.18,0,0,1-5.95-6.48c0-3.93,2.47-6.63,6.14-6.75S812.61,634.1,812.62,638Z" transform="translate(-499.73 -90.38)"/><path class="cls-9" d="M815.36,565.5c0,4.16-2.15,6.42-6.12,6.45s-6.28-2.28-6.25-6.32a6.39,6.39,0,0,1,6.59-6.66C813.2,559.1,815.37,561.54,815.36,565.5Z" transform="translate(-499.73 -90.38)"/><path class="cls-9" d="M814,464.53c0,4.08-2.24,6.4-6.17,6.43s-6.23-2.18-6.2-6.3a6.37,6.37,0,0,1,6.53-6.68C811.62,458.08,814,460.75,814,464.53Z" transform="translate(-499.73 -90.38)"/><path class="cls-9" d="M697.31,448.72c0,4.1-2.54,6.89-6.28,6.84-3.58-.05-6-2.6-6.09-6.34-.06-4,2.61-6.84,6.38-6.85C694.74,442.35,697.29,445.06,697.31,448.72Z" transform="translate(-499.73 -90.38)"/><path class="cls-9" d="M697.31,519.92c0,4-2.64,6.85-6.35,6.76-3.52-.09-6-2.72-6-6.43a6.31,6.31,0,0,1,6.48-6.73C694.91,513.55,697.31,516.15,697.31,519.92Z" transform="translate(-499.73 -90.38)"/><path class="cls-9" d="M707.46,595.37a6.22,6.22,0,0,1-6.28,6.53,6.08,6.08,0,0,1-6.41-6.36,6.51,6.51,0,0,1,6.68-6.6A6.13,6.13,0,0,1,707.46,595.37Z" transform="translate(-499.73 -90.38)"/><path class="cls-9" d="M595,515.83c-.06,4.08-2.28,6.32-6.26,6.31s-6.2-2.3-6.11-6.39a6.34,6.34,0,0,1,6.3-6.58C592.34,509.11,595,512,595,515.83Z" transform="translate(-499.73 -90.38)"/><path class="cls-9" d="M592.19,554.19c0,4-2.86,6.78-6.63,6.65-3.41-.13-5.86-3-5.78-6.71.08-4,2.42-6.33,6.44-6.26C590,547.93,592.22,550.26,592.19,554.19Z" transform="translate(-499.73 -90.38)"/><path class="cls-9" d="M758.64,582.65c-.07,4-2.64,6.45-6.68,6.36-3.71-.08-5.77-2.38-5.73-6.41a6.34,6.34,0,0,1,6.24-6.58A6.22,6.22,0,0,1,758.64,582.65Z" transform="translate(-499.73 -90.38)"/><path class="cls-9" d="M739.72,499.46c3.91,0,6.13,2.43,6,6.52a6.28,6.28,0,0,1-6.35,6.48c-3.57,0-6.11-2.86-6-6.72S735.81,499.42,739.72,499.46Z" transform="translate(-499.73 -90.38)"/><path class="cls-9" d="M724.52,477.15a6.21,6.21,0,0,1-6.09,6.7,6.07,6.07,0,0,1-6.58-6.18,6.58,6.58,0,0,1,6.51-6.78A6.08,6.08,0,0,1,724.52,477.15Z" transform="translate(-499.73 -90.38)"/><path class="cls-9" d="M758.64,445.91c0,3.84-2.54,6.58-6.21,6.62-4,.06-6.22-2.26-6.2-6.41a6.26,6.26,0,0,1,6.28-6.58A6.13,6.13,0,0,1,758.64,445.91Z" transform="translate(-499.73 -90.38)"/><path class="cls-9" d="M797.46,427.64c0-3.85,2.61-6.56,6.27-6.53a6,6,0,0,1,6.09,6.36c0,3.84-2.54,6.56-6.22,6.6C799.61,434.11,797.43,431.83,797.46,427.64Z" transform="translate(-499.73 -90.38)"/><path class="cls-9" d="M848.12,522.68c0,3.9-2.46,6.72-6,6.84a6.1,6.1,0,0,1-6.32-6.48c0-3.94,2.47-6.49,6.26-6.51S848.08,518.76,848.12,522.68Z" transform="translate(-499.73 -90.38)"/><path class="cls-9" d="M842.18,584.76c3.77.06,6,2.4,5.94,6.34s-2.79,6.82-6.55,6.66c-3.46-.15-5.89-2.91-5.82-6.62A6.12,6.12,0,0,1,842.18,584.76Z" transform="translate(-499.73 -90.38)"/><path class="cls-9" d="M676.08,477.45a6.05,6.05,0,0,1-6.4,6.4c-3.87,0-6.06-2.43-6-6.62a6.24,6.24,0,0,1,6.49-6.35C673.69,471,676.12,473.72,676.08,477.45Z" transform="translate(-499.73 -90.38)"/></svg>