<svg id="Layer_1" data-name="Layer 1" xmlns="http://www.w3.org/2000/svg" viewBox="0 0 1919.47 887.53"><defs><style>.cls-1{fill:#2d8730;}.cls-2{fill:#fe7062;}.cls-3{fill:#307f05;}.cls-4{fill:#a897c6;}.cls-5{fill:#8f80ae;}.cls-6{fill:#308005;}.cls-7{fill:#fe7061;}.cls-8{fill:#feec49;}.cls-9{fill:#a997c6;}.cls-10{fill:#9dcdde;}.cls-11{fill:#57c257;}.cls-12{fill:#fe7162;}.cls-13{fill:#3f9a09;}.cls-14{fill:#59c459;}.cls-15{fill:#fefefe;}.cls-16{fill:#419b0c;}.cls-17{fill:#3f9a0a;}.cls-18{fill:#fcfdfb;}.cls-19{fill:#1d661d;}</style></defs><path class="cls-1" d="M-1134.86-648.22l6.83-1.46,40-7.05,3,.28c-13.16,6.28-26.66,11.93-39.39,19A208.62,208.62,0,0,0-1185.37-586c-1,1.18-3.86,1.84-5.36,1.32-6.12-2.11-12-4.88-18-7.19-6.41-2.46-12.92-4.67-20.36-7.34.74,2.24,1,3.3,1.44,4.3,5.49,12.65,10.73,25.42,16.65,37.86,2.63,5.51,2.09,10-.32,15.34a168.89,168.89,0,0,0-13.69,51.16c-.8,7.18-1.66,14.35-2.56,22.12h-60c1.54,1.11,1.91,1.44,2.34,1.68,16,8.86,32,17.67,48,26.59,6.23,3.47,11.74,6.07,12.9,15.54,2.24,18.29,7,36.33,11.53,54.25,3.12,12.2,7.78,24,11.75,36l1.16-.36c-.89-3.65-1.72-7.32-2.69-10.95-6.89-26-10.25-52.62-11.17-79.44-.46-13.54,1-27.16,1.78-40.73,1.2-20.3,5.81-40,12.41-59.11,16.13-46.73,44.8-84.15,85.69-111.89,11.07-7.5,23.23-13.39,34.89-20l44-4.78,15-1.15h7l4-.17h6l2,.16h7c13.46,1.4,27,2.54,40.38,4.25a185.37,185.37,0,0,1,57.57,16.9c9.63,6.34,19.24,12.71,28.9,19,2.85,1.85,5.86,3.48,8.79,5.21a6.06,6.06,0,0,0,.88,1.72,133.34,133.34,0,0,1,30.23,42.83c6.45,14.47,10.46,29.72,13.1,45.33-.27,11.7-.55,23.4-.67,35.1,0,.29,1.8.59,2.75.88l.24,4v5c-.72,8.83-1.39,17.67-2.17,26.5-.52,5.84-1.22,11.67-1.83,17.5-.19.62-.37,1.23-.55,1.85q-4.8,21.58-9.58,43.15c-.87,2.12-1.89,4.19-2.6,6.36q-6.78,20.76-13.46,41.55-9.56,20.43-19.12,40.85c-9.77-.64-19.53-1.23-29.29-1.93-26.14-1.9-52.28-3.89-78.42-5.74-17.71-1.26-35.44-2.33-53.15-3.48l-25.9-1.58c-12.72-1-25.42-2-38.14-3-12.39-.95-24.77-1.93-37.17-2.72-13.4-.85-26.81-1.51-40.21-2.25l-23.36-1.88-160.07-11.34c-.29-.75-.61-1.49-.85-2.25q-6-18.86-11.91-37.72-2.41-14.92-4.84-29.85c-.48-1.35-1-2.7-1.43-4.06q-.13-18.48-.28-37c.45-1.37,1.24-2.72,1.32-4.12.74-13.26,4.07-26,8-38.57,2.26-7.21,5.4-14.15,8.15-21.21a10.62,10.62,0,0,0,2.61-2c6.1-9.08,12.19-18.17,18.11-27.36,2.22-3.44,4-7.16,6-10.75,8.25-8.06,16-16.72,24.87-24a300.81,300.81,0,0,1,30.22-21.29c7.62-4.82,16-8.5,24-12.69,4.27-1.7,8.56-3.32,12.79-5.11,10.74-4.54,21.45-9.15,32.17-13.73a7.33,7.33,0,0,1,1.69-1Q-1165.59-639.83-1134.86-648.22Zm60.83-6.38,1,1c1.36,1.45,2.71,2.9,4.08,4.33,6.67,6.92,13.92,13.37,19.9,20.84,20.33,25.38,31.74,55.08,40,86.1A386.37,386.37,0,0,1-997-473.52c1.36,17.15,3.09,34.3,3.83,51.49.64,15.13.36,30.31,0,45.47-.21,9.92-1.25,19.83-1.84,29.74-.44,7.42-.76,14.84-1.14,22.26l1.86.17c3.47-32.45,6.93-64.91,10.47-98.05l40.43-8.32c-10.71-8.94-20.23-16.92-29.79-24.85-6.6-5.46-13.7-9.82-14.09-20.37-.86-23.39-5.61-46.24-12.18-68.72-.59-2-.24-5.28,1.06-6.75,3.93-4.47,8.67-8.23,12.86-12.49,8.25-8.36,16.34-16.87,24.82-25.66a38.51,38.51,0,0,0-4.94,0c-14.74,2-29.51,3.76-44.16,6.28-3.87.67-5-.59-6.32-3.39-10.26-21-23.7-39.65-41-55.33-4.84-4.39-10.58-7.78-15.91-11.62l-1-1-1.1-.77-.26.4Zm-55.25,212.43c-2.4,2.54-4.18,4.23-5.73,6.12-4.18,5.09-4.08,10.45.14,14.1,4.65,4,12.06,3.87,15.56-1.07,4-5.68,9.47-8.64,15.78-10.57,3.91-1.18,6.24-3.53,6.52-7.79.31-4.66-.65-8.63-5.23-10.82-4-1.94-8.13-3.82-12.25-5.6-12.19-5.26-24.34-10.63-36.65-15.62-5.36-2.18-10.33,1.44-10.87,7.27-.71,7.6,1.8,10.76,10.82,14.43C-1144.15-448.85-1137.25-445.66-1129.28-442.17Zm162.69-196.42h-16c-6.28,0-10.35,3.58-10.47,9.23-.15,6.69,3.47,10.53,10.26,10.74,11.93.37,23.87.61,35.8,1,6.39.23,12.65.8,15.66,8,.59,1.41,2.16,2.53,3.49,3.49,3.33,2.4,9.38,2,12.57-.82,3.39-3,4-6.49,2.25-10.78-3.45-8.61-9.71-13.92-18.23-17.11C-942.72-639.12-954.66-638.65-966.59-638.59ZM-865-566.34c-.13-7.89-5.51-11.94-13.85-10.09-8.55,1.89-17,4.21-25.56,6.07-9.18,2-16.76,6-21,14.86-2.08,4.3-4.45,8.48-6.31,12.88-2.25,5.3,0,11.32,4.79,13.5,6.3,2.9,10,1.64,13.58-4.63,1.79-3.17,3.67-6.31,5.27-9.58a12.38,12.38,0,0,1,9.29-7.24c8.41-1.74,16.72-4,25-6C-867.58-558.19-864.95-561.14-865-566.34Zm-188.82,76.1c-.84,1.64-1.38,2.83-2,4-3.71,6.53-3,16.19,1.73,22s14.59,8.89,21.75,6.25c3.84-1.42,6.27-4.23,6.39-8.64.14-5.74-2.7-9.35-10.68-12.1,2.7-2.19,5.27-3.64,7-5.78,5.18-6.47,7.14-15.67-.09-20s-14.78-6.95-23.28-7.13c-6.21-.14-9.69,1.55-10.8,6.2-1.48,6.17.63,10.69,6,13.07C-1056.67-491.89-1055.56-491.18-1053.86-490.24Zm-69.35-67.9c0,.31.14,1.12.17,1.95.29,7.45,1.29,8.94,8.17,11.14,4.72,1.51,9.49,2.89,14.3,4.1,5.86,1.46,10.36-1.9,12.11-8.78,1.21-4.78-1.68-9.6-7.1-10.7a6.11,6.11,0,0,1-5.3-5c-2.21-8.38-8.45-11.62-16.3-13.2-5.59-1.12-11-3-16.6-4.23a9.91,9.91,0,0,0-5.67.13A10.23,10.23,0,0,0-1146-573c0,4.22,1.59,8.09,5.72,9.67C-1134.94-561.31-1129.37-560-1123.21-558.14Zm90.09,182.62c4.27-5.46,8.36-10.61,12.34-15.84,3.42-4.48,1.74-11.75-3-14.66s-9.06-1.53-12.11,2a207.86,207.86,0,0,0-17.58,22.7,15.32,15.32,0,0,0,4.6,21.06,43,43,0,0,0,12.13,5.42c5.26,1.51,10.17-1.77,12-7.14s.07-9.51-5.42-12.18C-1031-374.57-1031.89-374.95-1033.12-375.52ZM-917-487.42c0,8,4.33,11.72,11.73,9.33a35,35,0,0,1,29.1,2.74,12.9,12.9,0,0,0,8,1.14c4.34-.8,6.48-4.25,7.16-8.54.8-5-1.44-8.37-5.61-10.62-12.07-6.52-24.88-9.1-38.39-6C-912.41-497.65-917.81-495.07-917-487.42Zm-353.28-51.49,2.57-.71c6.37-1.76,9.65-6.5,8.23-11.91-1.82-7-5.9-9.41-13.12-7.7-6.77,1.61-13.54,3.21-20.23,5.12-9.41,2.68-11.64,11.32-4.84,18.32q5.4,5.56,11,10.95c5,4.85,11,4.54,15.86-.33C-1266.57-529.43-1268-533.87-1270.31-538.91ZM-869-380.7a30.72,30.72,0,0,0-2.17-6.09c-6.26-11.17-14.52-20.52-25.55-27.26-6-3.66-11.43-2.67-15,2.91-3,4.74-1.53,10.75,3.71,14.12a54.23,54.23,0,0,1,20.18,22.78c2.32,4.91,6.24,6.71,10.94,5.44C-872.71-369.93-869-374.86-869-380.7ZM-1132.33-363c-.87-2-1.24-4.57-2.7-6-9.7-9.34-21.64-13.75-34.9-14.59-4.27-.27-8.24,3.87-9,8.42s1.69,9.66,6.09,10.57A74.82,74.82,0,0,1-1147.44-354C-1140.57-349.63-1133.13-354.53-1132.33-363ZM-1301-448.65c.15-11.42-4-19.43-12.08-25.5-5.13-3.83-11.43-3.38-15.08,1.22-4.19,5.27-3.39,10.49,2.44,14.94,3.6,2.75,5.5,6,4.1,10.68a17.63,17.63,0,0,0-.42,4.43c-.09,4.15,2.11,7,5.71,8.53a9,9,0,0,0,10.18-1.63A15.15,15.15,0,0,0-1301-448.65Zm13.33,53.64c.83,2.07,1.17,4.59,2.58,6.13a222.71,222.71,0,0,0,17.42,17.74c4.72,4.12,10.57,2.91,14.47-1.83,3.49-4.26,3-9.23-1.46-13.74-5.14-5.2-10.34-10.35-15.51-15.52-3.3-3.3-7.14-3.86-11.33-2.08C-1285.42-402.63-1287.17-399.51-1287.64-395Zm365,60.18c-1.94-3.55-2.79-6.6-4.77-8.43-5.32-4.93-11.15-9.3-16.72-13.95-4.79-4-10.33-3.8-14.46.64-3.73,4-3.66,9.59.84,13.68,6,5.43,12.29,10.53,18.65,15.52a7.78,7.78,0,0,0,9.74.17C-926.8-329.1-925-332-922.61-334.83Z" transform="translate(1409.39 752.27)"/><path class="cls-2" d="M-1022-316c17.71,1.15,35.44,2.22,53.15,3.48,26.14,1.85,52.28,3.84,78.42,5.74,9.76.7,19.52,1.29,29.29,1.94l40.86,3.56c-1,11-2,21.78-3,32.56l-1.89,13.16a344.18,344.18,0,0,0-64.22-6.85c-11.76-.1-23.55.91-35.3,1.78-22.77,1.69-45.06,5.82-66.48,14-30.07,11.41-52.8,30.56-64,61.56a191.9,191.9,0,0,0-11.09,80.23A191.39,191.39,0,0,0-1057.63-59c11.45,34.7,33.76,61.15,63.33,81.78,40.81,28.47,87,40.14,136,42.72q-2.79,26.48-5.56,52.94v3c-.54,5.34-4.92,1.72-7.17,3.07-2-.06-4-.18-6-.18l-196.28,0c-2.66,0-5.32-.13-8-.2a152.63,152.63,0,0,0-3.28-40.56c-8.11-37.07-31.13-62.44-63.56-80.08-35.58-19.36-74.17-28.73-114.23-31.75-26.43-2-52.76.05-78.4,7.68-.45-2.65-.91-5.3-1.36-8l-1.11-5a21.66,21.66,0,0,0,.16-3.93c-1.22-9.43-2.52-18.84-3.8-28.26,17.88-5,36.09-9,53.58-15.11,28.57-10,54.89-24.16,74.29-48.34,15.58-19.43,24.28-41.35,22-66.8-2-22.17-12.73-39.48-29.27-53.66-13.11-11.24-28.55-18.07-44.59-23.85-33.64-12.12-67.94-20.69-104-20-.36-1.37-.72-2.73-1.09-4.1-1.49-14.2-3-28.4-4.5-42.77l33.54,1.65,160.07,11.34c4.65,9.73,8.75,19.79,14.08,29.14,10.49,18.4,22.21,36,40,48.37,9.6,6.66,20,11.06,32.12,9.66,14.18-1.64,24.33-10,33.34-20.09,6.32-7,12.24-14.45,18.19-21.81C-1040-293.38-1031-304.71-1022-316Zm35,34.73c0-6.21-3.88-10.32-9.68-10.33-6.34,0-10.39,4.18-10.43,10.81,0,6.39,3.86,10.27,10.25,10.18C-990.67-270.69-986.95-274.71-987-281.26Zm-281.1,228.38c-.1-5.89-4.89-10.79-10.3-10.55-5.76.25-10.71,5.52-10.47,11.15a10.19,10.19,0,0,0,10.65,10.13A10.36,10.36,0,0,0-1268.08-52.88Zm252.4,144.34a10.49,10.49,0,0,0,10.59-10.67,10.54,10.54,0,0,0-10.5-10.34c-5.6.07-10.06,4.71-10.27,10.68S-1021.81,91.45-1015.68,91.46Zm-98.27-116.39c.06-6.33-3.57-10.49-9.3-10.66-6.16-.18-10.62,4.17-10.78,10.51s3.69,10.47,9.94,10.48S-1114-18.42-1113.95-24.93Zm-30.8-88.68a10.75,10.75,0,0,0,10.55-11,10.1,10.1,0,0,0-9.76-10,10.6,10.6,0,0,0-11,10.95A10,10,0,0,0-1144.75-113.61Z" transform="translate(1409.39 752.27)"/><path class="cls-3" d="M-496.07-523.72l-4,.29-39.38,10.51,2.88,10.46c.77,2.08,1.53,4.17,2.3,6.25,2.62,6.3,5.16,12.64,7.88,18.91,6.42,14.84,12.53,29.6,9.42,46.51-2.65,14.41-13.67,20.3-26.73,13.6-11.2-5.74-17.85-15.62-23-26.41-3.52-7.34-5.59-15.38-8.3-23.11l-.13-2.89c0-3.33,0-6.67,0-10l1-9c.56-2.63,1.12-5.26,1.93-9-13,7.24-24.5,14.48-34.38,24.13a.78.78,0,0,0-.51.29l-10.19,9.11c9.61,11.64,19.4,22.24,27.73,33.89,11.57,16.19,23.55,32.4,25.77,53.3.78,7.38-2.14,14.67-8.6,18.29-2.51,1.41-5.15,2.61-7.74,3.9l-8,.28c-9.68-.82-15.6-7-19.61-14.9-7.44-14.58-10.64-30.4-12.15-46.61-.49-5.28-1.45-10.51-2.19-15.77v-7.89c-.23-4.86-.45-9.73-.73-15.71-2,1.75-3.59,2.53-4.33,3.78-4.33,7.31-9.39,14.37-12.43,22.2-3.45,8.87-5,18.46-7.42,27.73-.33,2.33-.65,4.67-1,7v4q0,6,0,12a19,19,0,0,0,.44,3.32c3.34,10.38,7.08,20.63,10,31.11,5.87,20.8,10.26,41.81,5.54,63.57-.17.62-.34,1.24-.52,1.86a74.4,74.4,0,0,1-3.51,7.44c-3.37,5.57-7.74,9.56-14.86,9.77s-11.71-3.63-14.72-9.4c-5.79-11.13-7.66-23.28-8.38-35.66a26.66,26.66,0,0,0,4.35.89c3.93.16,7.57-.32,9.74-4.4a9.88,9.88,0,0,0-1-11.56c-3-3.77-7.15-3.64-11.34-2,.64-4.15,1.34-8.29,1.89-12.44,1.44-10.75,3.2-21.48,4.07-32.28.48-6-.56-12.08-.91-18.13.37-.55.7-1.13,1.11-1.64,3.82-4.66,4-10.44.33-14.41-2.75-3-8-3.16-12.61-.54-6.62,3.75-13.22,7.53-20,11-4.76,2.46-5.43,6.54-4.62,10.95s3.73,6.91,8.19,7.49c1.48.19,3,.26,4.45.39-8.89,9.31-17.75,18.66-26.68,27.94-6.27,6.53-13.23,12.06-22.17,14.56H-746c-11.75-5.94-13.16-19-8.8-27.89,7.09,1.27,10.88-2.2,13.7-8.44,1.82-4,0-7-.89-10.38,5.31-5.06,10.16-10.76,16.05-15,8.24-5.92,17.26-10.76,25.94-16.06l4-1.26,23-6,7-1c1.32-1.13,3.25-2,3.84-3.43,2.37-5.83,3.69-12.17,6.59-17.69,4.31-8.2,9.63-15.87,14.53-23.76,7.08,2.93,11.49,2.49,14.85-1.64,3.55-4.37,7.06-8.76,10.47-13.24s2.85-9.83-1-13.35c-4.11-3.72-9.05-3.6-13.16.79-2.33,2.48-4.09,5.51-6.1,8.29l-26,11.3c.45-1,1-2.07,1.32-3.15,1.24-3.82,1.35-7.62-1.66-10.66s-7-2.95-10.7-1.69-5,4.41-5,8.29c0,7.06,3.34,9.94,12.12,10.17q-5.07,4.22-10.14,8.44c-11.07,9.29-22.77,17.21-37.95,17.65h-2c-6.08,0-10.83-2.3-13-8.3-2-5.46-1.7-10.94,1.64-15.81,2.19-3.2,4.94-6,7.43-9l0,0c5.77-3.67,11.19-8.12,17.38-10.85,9.92-4.38,20.35-7.63,30.56-11.36l5-1a6.88,6.88,0,0,0,1.49.08A165.94,165.94,0,0,1-623-498.77h5c6.71.6,13.35.82,19-3.85,6.32,4.15,12.78,0,14-9.05,20-12.8,42.1-20.49,64.77-26.95-.1-.43-.21-.86-.31-1.3L-552-538.43h-9c-10.82-.06-21.66.31-32.44-.36a62.91,62.91,0,0,1-18.26-4c-5.86-2.26-7.91-8.18-5.86-14,3.91-11.05,12.83-16.28,23.48-18.71,23.43-5.35,46.14-1.74,67.86,7.53,9.54,4.08,18.22,10.16,27.28,15.33-1.16,0-2.32-.06-3.48,0-5.32.45-8.88,4.71-8.58,10.2a9.22,9.22,0,0,0,9.53,8.78c5.09,0,8.28-3.66,8.52-9.42a26.47,26.47,0,0,1,1-4.63c2.89.68,5.81,2.06,8.65,1.9,11.32-.64,22.59-2.18,33.9-2.56,6.66-.22,13.37,1.11,20.06,1.74a12.1,12.1,0,0,0,2,.13c3.25-.22,8.06,1.08,8.42-3.25.17-2.14-3.82-5.62-6.63-6.78-4.5-1.85-9.59-2.26-14.43-3.29.59-1.89,1.3-3.75,1.76-5.68a9.56,9.56,0,0,0-5.42-11c-4.18-2-9.09-1.18-11.43,2.68-1.56,2.58-2,5.83-3,8.78-11.76-4.57-23.73-8.68-35.21-13.87-6.74-3-12-14.12-10.56-19.24,3.34-12,12.21-17.49,21.09-17.64,7.52-.12,14.11,2.27,20.66,5.34-.75.27-1.49.57-2.24.82-4.74,1.59-7.78,7.38-6.22,11.86,2,5.62,6.56,7.83,12,6.17,6.37-2,6.22-7.34,7-12.34,16,10.76,29.32,24.43,41.33,39.21,12.22,15,27.32,23.8,46.4,26.08,2.2.26,4.38.72,7.62,1.27-3.21-4.36-5.77-7.81-8.29-11.3a88.42,88.42,0,0,1-13.25-28.46c-2.49-8.91,2.34-22.91,9.39-27.65,8.81-5.91,22.79-5.2,31.19,1.41,13.53,10.67,15.34,25.32,13.71,40.93-1.11,10.6-3,21.12-4.49,31.69-.34,2.53.13,4.12,3.27,5.49,10.11,4.39,19.86,9.61,29.75,14.51-.3.59-.63,1.17-.9,1.78-2.38,5.3-1.06,10.32,3.42,13.08,4,2.47,7.94,1.51,11.89-2.79a18.75,18.75,0,0,1,2.61-2l5.73,3.42c-1.4-4.15-2.33-7.36-3.54-10.45A61.46,61.46,0,0,1-280-533c.46-10.85,7.23-17,18-17.71,12.39-.85,19.47,6.09,24.94,15.5,8.11,13.92,12.29,29.26,14,45.15,1.24,11.67,1.38,23.44,2.18,35.16a10.59,10.59,0,0,0,1.9,4.73c1.51,2.29,3.34,4.37,5,6.54,1.19,4.75,1.82,9.75,3.75,14.18,1.81,4.16,5.75,5.62,10.33,3.83,6.3,9.73,13,19.25,18.82,29.25a281.22,281.22,0,0,1,26.16,61.12,27,27,0,0,0,2,3.63c3.13-18.68,6.08-36.14,9-53.62,1.39-8.45,3-16.89,3.65-25.41.15-2.11-3-4.71-5.06-6.7-9.94-9.83-20.28-19.27-29.94-29.36A129,129,0,0,1-191-466.55a73.32,73.32,0,0,1-7.82-18.38c-1.83-6.18,5.72-14.66,13.42-16.67,12.26-3.2,21.74,1.79,28.36,11.17,6.28,8.91,10.79,19.07,16,28.71a22.48,22.48,0,0,0,2.73,4.59c3.21-23.2-1-45.28-14.07-64.42-8.47-12.36-20.23-22.48-30.58-33.55-4.28-4.57-8.74-9-13.11-13.48.87-.36,1.73-.75,2.61-1.08,3.72-1.41,6.78-6.28,6.39-10.19a9.3,9.3,0,0,0-8.14-8.63c-4.59-.62-8.16,2.39-11,9.31-10.15-9.35-18.65-19.57-17.74-34.57.39-6.4,8.1-13.12,14.93-13.9,13.66-1.56,22.9,5.75,31,15.15,4.38,5.06,8.27,10.55,12.38,15.85l1.24-.66c-1.44-2.88-2.76-5.81-4.32-8.61-7.14-12.77-14.87-25.18-25.08-35.71-2.91-3-7.2-4.78-11.07-6.67-8-3.91-16.16-7.53-24.24-11.27,1-.39,2.06-.87,3.13-1.17,7.94-2.3,10.26-8.77,5.59-15.75-1.19-1.78-2.48-3.51-3.75-5.24-3.06-4.16-9.65-5.32-13.71-2.43s-4.63,9.31-1.67,13.7a54.85,54.85,0,0,1,3.43,6.91c-10.18-7.16-20.57-14.05-30.46-21.6A139.51,139.51,0,0,1-282.36-700c-5.7-6-10-12.86-6.11-21.45s11-13.43,20.52-14.16c14.15-1.08,25.37,5.62,35.59,14.27,4.51,3.83,8.34,8.46,12.48,12.73-2.6-.22-5.3-1-7.79-.53-4.58.8-7.19,3.81-7.36,8.67-.2,5.44,4,11.32,9.21,12.73,7.5,2,12-2,13.06-11.74,5.89,10.91,11.59,21.93,17.78,32.67,2.15,3.72,5.34,6.9,8.42,10,1.1,1.09,3.28,1.12,5.53,1.81,0-6.08.25-11.52-.05-16.94-.74-13.19,2.88-25,10-36,3.89-6,8.87-10.2,15.95-11.65,8.19-1.67,15,1.49,19,8.75,7.14,13,6.54,26.59,2.24,40.1-3.75,11.78-8.6,23.22-12.52,35-2.64,7.92-4.89,16.26-2.57,24.54,1.79,6.37,5.55,12.17,7.74,18.46,4.95,14.16,9.47,28.46,14.12,42.72a8.2,8.2,0,0,1,0,2.48c-4.26-5.24-9.16-6.49-13.67-3.65-4.09,2.58-5.1,6.41-4.24,10.74s3,8.22,7.64,9.59c4.17,1.24,7.8-.06,10.6-3.53a17.87,17.87,0,0,1,2.49-2.16l2.64,16.17,1,.15c1.79-5.19,3.3-10.5,5.44-15.54,5.21-12.3,10.12-24.78,16.3-36.59,4.85-9.28,12-11.16,20.63-7.56,8.21,3.41,11.75,10.87,9.72,19.82C-71.79-545.39-80-533.1-88.95-521.43c-8.42,10.93-17.75,21.14-26.52,31.79-1.34,1.63-2.66,4-2.61,6a483.25,483.25,0,0,1-4.13,79.14c-3.54,25.75-8.54,51.3-12.9,76.93l-7.93.18-19-.13-13.87-1c-.36-.4-.71-.81-1.06-1.22-10.37-17.11-23.25-31.93-39.92-43.18a11.72,11.72,0,0,0-6.49-1.5,197,197,0,0,1-61.34-8.62c-2.23-.68-5.26,0-7.52.93-14.07,5.94-26.11,15-37.65,24.85-1.63,1.39-3.41,2.59-5.13,3.88.19-1.47.41-2.93.55-4.4.54-5.93-5.07-11.74-10.28-10.34-11.47,3.1-22.94,6.24-34.24,9.88-2.08.67-3.39,3.75-5.06,5.71h0l-1,.79-10.93,3.26c-5.33-2.17-10.58-4.57-16-6.44-5.7-2-10.66.72-12.11,6.58-.6,2.39,0,5.08,0,7.63-3.14.06-6.3.31-9.43.13-3.85-.22-7.67-.8-11.51-1.23,2-.9,4.11-1.5,5.79-2.75,3.47-2.56,5.06-6.19,3.79-10.45-1.16-3.89-3.45-6.23-8.12-6.71s-6.81,2.77-10.16,4.18l-.47-1c3.34-9.24,10.63-14.32,19.12-18.14l5-1.75,30-3.6h10l6.11.26.37.21.4-.13c3,.23,5.92.33,8.86.72,8.1,1.06,16.18,2.24,24.27,3.37l3,.9c3.28.89,6.28,3.08,9.95.3,7.85-5.94,16-11.52,24.48-17.6-1.09-.63-2-1.12-2.85-1.66-8.71-5.38-17.73-10.39-21.48-20.93s1.58-24.55,15.19-24.85c4.54-.1,9.48,0,13.59,1.68,15.45,6.18,30.92,12.45,45.84,19.8,14.16,7,27.73,15.2,41.37,23.19,8.61,5.05,16.87,10.69,25.29,16.06l1.5.86-.69-1.87c-2.06-4-3.69-8.27-6.25-11.91-6.77-9.63-13.72-19.16-21.07-28.36-3.93-4.91-9.48-8.57-13.17-13.62-8.55-11.7-17.68-22.72-29-31.79-12.9-10.3-20.32-13-34-4.88-14.25,8.38-28,17.64-41.91,26.55-7.64,4.89-15.38,9.49-24.7,10.36h-5c-5.24.12-9.44-2.18-13.16-5.63a.69.69,0,0,0-.37-.38,38,38,0,0,1-2.81-4.51c-5.19-11.54-4.27-28.58,10.67-35.56,6.28-2.94,13.17-4.59,19.78-6.82l1.89-.35,4-.09h35l21.82,3c.24-.67.49-1.34.74-2-13.15-6.53-26-13.81-39.55-19.4s-28-9.61-42.06-14.31c-1.74-1-3.39-2.74-5.23-3-8.37-1.1-12.35,5.22-9.67,15q-5.1,10.42-10.22,20.85c-.25,1-.51,2-.76,3.06-.69,3.83-1.55,7.64-2,11.5-.81,6.54-.83,13.21-2.16,19.63-2.84,13.71-15.79,18.68-27.05,12.26-9.16-5.22-12.51-18.67-10.41-28.8,4.22-20.41,13.57-38.3,29.74-52.11a47.48,47.48,0,0,0,4.11-4.65l-42.13-2.31c-.76,11.31-1.28,21.53-2.19,31.73-.74,8.33-1.18,16.81-3.14,24.88C-458-462-464-452.27-475-446.42c-6,3.2-11.49,2.08-14.92-3.82-2.24-3.84-3.44-8.29-5.1-12.47v-9.78l.84-5.11.22-2q2.61-8,5.21-16a6.25,6.25,0,0,0,.7,1.8c2.2,2.67,4,6.21,6.84,7.67,3.55,1.81,7.48.25,10.16-3.07a113.34,113.34,0,0,0,6.94-9c2.42-3.73,1.23-9.28-2.2-12.15-3.84-3.2-8.24-3.05-12.05.55-1.93,1.82-3.66,3.84-5.53,5.71-.11.11-.8-.37-1.21-.57l15.36-23.89Zm243.05,121c-1.46-2.36-2.37-5.6-4.48-6.91a149.45,149.45,0,0,0-17.36-8.79c-4.38-2-10,0-12.14,3.76a9.45,9.45,0,0,0,3.26,12.71A121.3,121.3,0,0,0-266-393.22C-259.37-390.73-254-395-253-402.68ZM-637.6-301.46l-.43-.05v-2c0-6.6-2.49-9.56-8.39-10.08-5.46-.47-9.75,2.66-10.45,8.43a176.42,176.42,0,0,0-1.08,18.81,8.89,8.89,0,0,0,8.71,8.64c4.23.1,8.12-1.57,9.07-6.16C-639-289.66-638.43-295.59-637.6-301.46Zm208.26-162.72c2-.61,4.49-.68,5.95-1.93A88.13,88.13,0,0,0-412.49-477c3.49-4.27,2.91-9.91-.64-13-4-3.53-9.68-3.2-13.86.88q-4.63,4.51-9.15,9.16c-2.8,2.89-3.61,6.27-1.84,10C-436.3-466.46-433.86-463.94-429.34-464.18ZM-545-453.1c0,7.41,7,12,13.36,8.13a28.26,28.26,0,0,0,9-8.95c3-4.66-.16-11-5.5-12.86C-535.16-469.22-545-461.19-545-453.1Zm198.14-113.5c6.23,1.11,9.58-5,9.76-8.91.29-6-6.09-13.09-11.4-13.08-4.68,0-9.29,4.79-9.45,9.79C-358.18-572.45-352.92-566.66-346.89-566.6ZM-607-382a9.1,9.1,0,0,0,9.34,9.38c6.22.06,12.75-5.71,12.62-11.15-.13-5.1-4.42-8.88-10.07-8.85C-601.85-392.56-607-387.92-607-382ZM-250.3-507.6c-5.64-.09-9.59,3.86-9.74,9.74a9.29,9.29,0,0,0,9.13,9.27c5.39.15,9.84-3.75,9.64-9.28C-241.47-503.94-244.62-507.53-250.3-507.6Zm-87.05,50a9.64,9.64,0,0,0,9.31-9.72,9.29,9.29,0,0,0-9.63-9.29A9.64,9.64,0,0,0-347-466.36,9.31,9.31,0,0,0-337.35-457.59Zm168.54-8c5.77,0,9.89-4.13,9.77-9.67-.12-5.18-4.23-9.39-9.11-9.34-5.18.06-9.92,4.71-9.79,9.94C-177.82-469.92-173.36-464.44-168.81-465.6Zm17.86-220c-5.51,0-9.92,3.91-10,8.94-.11,4.85,4.46,9.85,9.18,10,4.88.2,9.75-4.75,9.78-9.94C-142-682.24-145.27-685.58-150.95-685.6ZM-539-476.59c0-5.84-3.37-8.6-9.45-9.14-4.77-.43-8.63,3-9,9.63a9,9,0,0,0,8.84,9.49C-543.44-466.53-539-471.13-539-476.59Zm-44.82-85c-5.88,0-9.08,3-9.19,8.68s3.9,10.37,9.11,10.27,8.91-4.36,8.89-10C-575-558.55-578-561.55-583.84-561.6Z" transform="translate(1409.39 752.27)"/><path class="cls-4" d="M-175.89-328.58l13.87,1c.35,6.95.67,13.9,1.06,20.85q.44,7.69,1,15.37,1.94,25.23,3.92,50.47c.71,9.24,1.3,18.5,2.13,27.73,1.19,13.17,2.64,26.32,3.84,39.48,1.14,12.53,2,25.08,3.18,37.59,1.46,14.8,3.27,29.57,4.82,44.36,1.44,13.81,2.56,27.66,4.15,41.45,2.12,18.38,4.55,36.72,6.85,55.08q3.53,28.29,7,56.56l-64.93,0c-.61-.51-1.18-1.07-1.83-1.53Q-206.38,48.62-222,37.37c-.32-8.79-.69-17.58-1-26.37-.38-12.29-.74-24.57-1-36.86-.38-18.29-1-36.58-1-54.86q.3-117.39.92-234.78l.06-13,24-.25h3.9l19.06.91Z" transform="translate(1409.39 752.27)"/><path class="cls-5" d="M-188.94,61.43l64.93,0h66c4,2.95,8,2,12,0H17l11.13-.07L41,61.41h88l6.12.56a35.25,35.25,0,0,1-2.35,3.91c-8.28,10.07-16.17,20.51-25,30.05C95.13,109.48,80.31,120.27,63,127.11c-6.2,2.44-12.68,4.15-19,6.19q-34.74,0-69.49-.07-103.24,0-206.49,0c-3.66,0-7.32.21-11,.33a10.33,10.33,0,0,0-2.62-1.26c-20.53-3.36-38.59-11.25-53.4-26.51-12.1-12.46-18.36-27.48-23-44.4h117Z" transform="translate(1409.39 752.27)"/><path class="cls-3" d="M365-687.49,344-678.88c9,3.17,11.95,9.25,11.19,17.23-.94,9.83-9.62,17.38-19.56,18.12-11.18.84-21.53-1.75-31.89-5.62a102.33,102.33,0,0,0-21-5.43c-3.21-.45-7,1.47-10.19,3-18.18,9-36.25,18.15-54.35,27.26l-2,1.31.33.74,2.85-1.06c7-1.64,13.85-3.59,20.88-4.83,7.24-1.28,14.62-1,21.24,2.55,9.85,5.35,13.1,14.15,4,22.59-5.89,5.46-13.51,9.05-20.35,13.48.64-5.37,1.54-10.71,1.84-16.09.25-4.59-2.71-8.18-6.8-8.53-3.32-.28-8.33,1.12-10,3.55-3.61,5.19-3.17,11.7-.72,17.59,2.16,5.19,7,5.54,11.77,5.41-14.35,5.65-28.51,11.86-43.1,16.78-15.47,5.22-31.33,9.34-47.09,13.65-4.83,1.32-10,1.28-14.84,2.68-2.63.77-4.75,3.25-7.1,5a10.81,10.81,0,0,1,.13-2c1.26-4.9-.76-8.5-4.83-10.78-4.33-2.44-8.54-1.38-11.5,2.47a45.89,45.89,0,0,0-6.34,10.6c-2.42,6.05,2.08,12.19,8.68,12.61l4.46.28-9,14.69c-1.68-1.28-3.41-2.5-5-3.85-6.77-5.64-12.29-5.4-17.57.83-3.81-8.41-4.82-17.32-5.1-26.44a87.12,87.12,0,0,1,12.41-47.51c2.8,1.59,5.44,3.68,8.44,4.65,4.73,1.53,10.32-1.49,12.33-6,1.92-4.28.55-8.75-3.74-11.68a44.6,44.6,0,0,0-4.65-2.44c4.11-6.8,18.08-11.66,27-7.91,7.7,3.25,12.51,12.36,10.67,25.57,2.57-2.13,4.12-4,6.12-5,11.15-5.47,14.29-15.62,14.59-26.59a75.35,75.35,0,0,1,14.51-42.56c11-15.37,23.57-29.27,40-39,10.27-6.1,21.17-8.49,33-3.26,16.05,7.09,18.27,22,9,34.84-3.61,5-8.29,9.15-12.23,14.45l5.64-2.17c-.17,3.81,2.43,5.37,5.48,5.88,3.8.63,7.61.44,10.23-3.24s2.63-7.28,1.34-11.24c1.54-.45,3.07-1.25,4.64-1.31,8.39-.36,12.88-5,14.65-12.84a4.16,4.16,0,0,1,.73-1.19c6.1,3.07,9.58-1,13.25-4.78,6.13-6.21,6.27-9.69.6-16.08a7.67,7.67,0,0,1-.94-2.24c9.58-13.89,22.07-24.6,36.62-32.89,9.84-5.61,20.44-9,31.64-4.85,12.9,4.8,17.37,16.81,11.5,29.33-1.31,2.8-3.05,5.39-5.18,9.11,3.76-1.13,6.79-1.58,9.38-2.88,23.27-11.63,48-19,73.14-25.13,10.78-2.62,21.73-5.24,33.06-1.72,8.08,2.5,13.18,9.77,13.87,18.4,1.37,17.1-8.29,24.36-21.49,30.59-8.82,4.17-18.29,5.89-28,6.13-13.09.32-26.19,1.17-39.26.83-10.41-.27-20.8-2-31.19-3,0-7.23-1.84-10.4-7-12.28-5.43-2-13.5-.87-16,3.29C365.31-695,365.62-691,365-687.49Zm-8.06-32c-.4-.84-1-3.19-2.42-4.8a50.28,50.28,0,0,0-7.46-6.48,9.7,9.7,0,0,0-13.05,1.7c-2.85,3.33-3,9.08.32,12.27a43.45,43.45,0,0,0,9.46,7.08C350-706.46,357-711,357-719.54Zm82,16.43c1.29-5.07-4.69-9.39-9.22-9.4-5.21,0-10.87,6.26-10.78,11.64a9.34,9.34,0,0,0,9.58,9.27C434.38-691.67,439-696.75,439-703.11ZM180-589.47c0-5.85-3.43-9.71-8.83-9.84S162-595.53,162-589.8s3.39,9.77,8.77,9.9S179.94-583.88,180-589.47ZM206.9-620.6c-5.68,0-9.93,4.19-9.8,9.63.1,4.58,4.73,9.27,9.25,9.36,5.12.12,9.59-4.49,9.63-9.92A9.22,9.22,0,0,0,206.9-620.6ZM462-715.33c0-6.14-2.9-9.26-8.49-9.27a9.19,9.19,0,0,0-9.51,9.83,9.27,9.27,0,0,0,9.16,9.18C458.57-705.68,462-709.46,462-715.33Z" transform="translate(1409.39 752.27)"/><path class="cls-4" d="M-2,61.39H-46c1.31-3.43,4.17-7.08,3.7-10.23-3.26-21.74-7.16-43.38-11-65-4.5-25.56-9.21-51.08-13.65-76.65-4.86-28-9.44-56.07-14.28-84.08Q-90-225.42-99-276.18q-4.42-25.15-8.93-50.28c9.76.25,19.51.53,29.27.7a26,26,0,0,0,4.73-.76l18-.07c8.19.62,16.37,1.44,24.58,1.82,7.43.35,14.88.23,22.32.32Q-8.56-234.84-8-145.23c.09,12.29.64,24.57.93,36.85C-6.69-92.1-6.48-75.81-6-59.54-5.47-41.3-4.67-23.06-4.07-4.82-3.34,17.25-2.69,39.32-2,61.39Z" transform="translate(1409.39 752.27)"/><path class="cls-3" d="M161-368.71l-.94-.93c-4.12-3-8.11-6.24-12.47-8.85-1.12-.68-4.2,0-5,1q-16.44,21-32.39,42.41c-2.55,3.43-4.17,7.56-6.22,11.37l-14.85.54-8.17-.48a26.86,26.86,0,0,1,1.29-2.64,568.51,568.51,0,0,1,51.93-69.16c5-5.68,9.89-11.44,14.84-17.16l-.06,0,1.62-1.09c3.31-1.43,6.61-2.88,9.94-4.27,4.38-1.84,7-7,5.73-11.26A9.59,9.59,0,0,0,154.78-436a51.16,51.16,0,0,0-20.95,9.81c-9.18,7.31-9.34,12.47.11,19.44-16.28,7.78-32.53,15.6-48.84,23.32-10.51,5-17.38,12.64-18.4,24.59-1,11.72-1.74,23.47-2.59,35.21l-18.22,0c0-7.15-.15-14.31.14-21.45s-2.22-12.74-7-18.11S31-374.79,27-380.62c.56-.19,1.27-.71,1.67-.53,6.85,3.13,13.9,4.45,21.34,2.53,6-2.47,12.12-4.76,18-7.53,1.66-.79,2.67-3,4-4.52,7.63-8.38,15.59-16.48,22.81-25.2,11.9-14.39,26.4-25.84,41.17-36.9,7.58-5.68,16.05-10.25,26.3-9.91s17.2,5.75,19.39,16c-4.87.54-7.4,3.31-7.61,8.15s2.77,9,6.67,9.83c8.39,1.7,14.42-.31,16.3-5.69a12.49,12.49,0,0,0,.42-5.21,24.64,24.64,0,0,0-1.4-4.69A58.91,58.91,0,0,1,224.09-447c2.88.41,6.18-1.4,9.15-2.56,14.16-5.56,28-12.38,42.52-16.51,10.74-3,22.53-3.43,32.91,3.45a27.09,27.09,0,0,1,12.06,17.3c1,4.65-2,12.08-6.7,14.36-5.08,2.43-10.68,3.75-16.06,5.55l-26.07.1-1.6.19,1.42,1.52c14.3,14.06,28.56,28.17,42.94,42.14,6,5.86,12.81,10.61,21.13,12.85a290,290,0,0,1,52.36,19.9A39.91,39.91,0,0,1,410-307.45c-1.9,13.89-15.24,22.63-28.12,17.94.25-.6.33-1.42.78-1.76,12.71-9.58,16.38-22.75,15.3-37.91-.41-5.8-4.26-9.61-10-9.42-5.44.19-9.81,4.7-8.92,10.4,1.4,8.89-1.56,15.79-7.74,21.86-1.21,1.19-1.62,3.18-2.39,4.8l-13-17c7.67-2.1,12.77-7.88,18.35-12.91,3.32-3,3.75-9.13,1.31-12.71s-8.33-5.23-12.05-2.47c-6.37,4.72-13.59,8.89-16.5,17.05-3.14-1.57-6.15-3.52-9.45-4.64-5.59-1.89-8.3-.12-7.47,5.64,1.28,8.79,3.65,17.42,5.56,26.12l1.41,9.91-.09,32-.9,5c-3,10.64-5.81,21.41-14.61,29.16a.68.68,0,0,0-.38.38c-3.14,1.15-6.2,3-9.43,3.34-11.35,1.19-17.95-9-19.5-20.87,2.61.33,5.22.77,7.84,1,4.38.33,7.42-1.67,8.71-5.87s-1.21-9.26-4.66-11.63c-4.6-3.17-8.61.27-12.88.53a26.33,26.33,0,0,1,.45-4.2c1.66-6.29,3.42-12.54,5.15-18.8a2.32,2.32,0,0,0,.21-.89l7.21-14,1-2c.75-.78,1.5-1.57,2.26-2.35,1.09,1.64,2.49,3.14,3.2,4.93,1.81,4.54,6.38,8.38,10.7,8.28s7.38-2.32,8.89-6.59c1.72-4.85-.58-8.12-3.72-11.41A11.43,11.43,0,0,1,324-312c-1.43-6.51-2.58-13.08-3.83-19.62-.38-4.16-.61-8.34-1.15-12.47-1-7.31-7-11.33-11.09-16.6-.14-3.54,1-7.93-.67-10.45a161.69,161.69,0,0,0-15.72-19.21c-3.23-3.52-8.67-3.19-12.25-.12-3.79,3.24-4.82,8.69-1.85,12.58q7,9.06,14.53,17.65c1.44,1.63,3.83,2.43,5.78,3.61-.27,4.1-.18,8.26-.89,12.29-1.68,9.64-4.83,18.68-12.31,25.59-7.23,6.68-20.32,10.51-28.92-.93-2.32-3.11-3.23-7.28-4.78-11l.09-5c.73-3.43,1.29-6.92,2.23-10.29,2.19-7.87,4.78-15.63,6.78-23.55,1.65-6.52,3.38-13.16,3.81-19.83.4-6.09,2.06-12.8-2.89-18.21.17-9.74-9.15-17.1-17.89-14.13L230-426.48l-10,.05h-4l-5-.16a26.86,26.86,0,0,0-5.27.69c-12.76,4.31-24.8,10-35,19.06-3.21,2.87-6.36,5.82-10.41,9.54L177-393.77l1.9.42c13.9,4.73,27.49,10.17,39.33,19.05,9,6.78,17.16,14.34,15.55,27.29l-2,5.31c-6.26,9.24-18.1,11.23-29,7.23-10.17-3.73-16.63-11.89-24-19.1C173.17-359,166.94-363.69,161-368.71Zm19.79,11c1.89,2.59,3.39,5.64,5.77,7.64,2.18,1.84,5.25,2.74,8,3.72a8.86,8.86,0,0,0,10.61-3.88c2.48-4.68,2.15-9.38-1.58-12.07a32.36,32.36,0,0,0-10.08-5.13C186.71-369.22,182.05-365.37,180.81-357.66Z" transform="translate(1409.39 752.27)"/><path class="cls-4" d="M45.89-323.7l18.22,0,6.79.36c-.3,3.79-.88,7.58-.86,11.36.26,47.27.5,94.54,1,141.8.13,11.92,1.24,23.83,1.85,35.75C74-114,74.9-93.65,76-73.28Q76.82-58.16,78.12-43c1.21,14.51,2.61,29,3.94,43.5C76,14,67,25.62,57.81,37.12l-1,1-8.1,9.06.16.2-.19-.17L28.11,61.33,17,61.4c-.66-15.59-1.38-31.17-2-46.77-.74-19.91-1.37-39.84-2-59.76Q12.46-61.57,12-78q-.55-21.19-1-42.38c-.37-18.29-.91-36.59-1-54.88-.11-49.66,0-99.33,0-149Z" transform="translate(1409.39 752.27)"/><path class="cls-3" d="M-56-326.59l-18,.07c1.75-11.4,3.57-22.8,5.16-34.23a9.9,9.9,0,0,0-1-5.29c-5-10.52-10.2-20.95-15.33-31.41a13.3,13.3,0,0,1,2.6-1.15c4-.88,7.23-2.75,8.28-6.91A9.5,9.5,0,0,0-78-416.08c-4.5-3.3-9.16-6.38-13.75-9.55-.1-6.61-.66-13.24-.19-19.8.59-8.13,4.35-14.57,12.43-17.63,8.55-3.24,16.54-1.29,22.27,5.14,4.9,5.5,8,12.59,11.4,18.15,9.81-15.51,9.14-32.53,1.4-50.91-7.07-16.81-12.28-34.53-16.82-52.23-3.47-13.53-2.29-27.33,5-40,3.52-6.08,9.71-9.74,16.13-8.65,6.89,1.16,12.11,4.74,14.09,11.92-4.06,3.11-3.55,7.28-2.18,11.27,1.3,3.82,4.68,4.46,8.44,4.84,5.4.55,7.43-3.68,10.56-6.41,3.76-3.28,4.2-7.57,2.51-11.82-1.59-4-5.25-5.21-9.4-4.93,0-16.81-.33-33.63.23-50.43.53-16.1,5.15-31.29,12.64-45.59,4.81-9.18,10.7-17.53,19.33-23.49,13.29-9.18,27.22-2.9,28.9,13,1.49,14.15-2.6,27.36-8.83,39.6-8.68,17.05-18.6,33.48-27.93,50.2-1.6,2.87-2.65,6-4.41,8.8-5.88,9.17-4.18,18.9-2.76,28.9,4.45-9,8.34-17.91,13.2-26.29,4.53-7.83,9.56-15.42,17.32-20.77,14.13-9.75,32.67-.15,35.75,12.82,1.93,8.14-1.56,14.48-5.37,20.72C53-564.51,39.62-554,26.22-543.83,17.49-537.17,7.8-531.76-.82-525c-2.52,2-3.16,6.67-4.1,10.26C-6.43-508.91-7.48-503-9-496A42.54,42.54,0,0,0-5-499c6-6.08,14.15-7.05,21.31-2.44,4.9,3.16,6.6,11.07,2.63,18.33-3.74,6.84-8.64,13.08-13.32,19.37-2.93,3.94-6.39,7.48-9.61,11.2-5.1-4.65-10.25-9.25-15.21-14-.47-.45.07-2.1.32-3.14,2.44-9.94,5.07-19.85,7.31-29.83,1-4.6-3.25-10.08-8-10.94-5.34-1-9,1.57-10.5,7.25-2,7.69-3.69,15.44-6,23-1.59,5.33-.7,9.68,3.33,13.35-3.9,6.88-3.39,10.66,2,16.12,4.3,4.38,8.52,8.85,12.77,13.28-3.76,4.38-7.43,8.84-11.3,13.12C-38-414.67-39-401.85-42.84-390.22a351.62,351.62,0,0,0-9.46,36.36C-54.2-344.91-54.81-335.69-56-326.59Zm65-335c-10.83.86-12.76,7.3-12,14.05.48,4.12,5.12,8.51,9.08,8.79,3.68.26,9-3.12,9.58-6.64,1-5.75.72-11.33-4.7-15.21a30.09,30.09,0,0,0,4.46-.09,10.46,10.46,0,0,0,8.49-10.09c-.13-4.5-4.07-8.67-8.34-8.82-5.83-.2-10.24,2.75-10.27,8.25C5.3-668.1,7.68-664.85,9-661.59Zm-62.23,261c1.69,0,2.52,0,3.36,0,6,0,9.43-2.63,9.85-7.52.56-6.37-2.42-10.68-8.49-11.3a27.32,27.32,0,0,0-9.81.88c-5.74,1.58-7.84,6.54-5.79,12.12S-57.57-400-53.25-400.6Zm18-118c6.32,0,9.28-2.92,9.27-9a10.82,10.82,0,0,0-11.06-11A9.23,9.23,0,0,0-46-529.17,10.56,10.56,0,0,0-35.3-518.6Zm77.27-65c0-5.94-2.91-9-8.55-9-6.5,0-9.36,2.83-9.45,9.32-.06,5.36,4.14,9.78,9.17,9.63S42-578,42-583.61Z" transform="translate(1409.39 752.27)"/><path class="cls-6" d="M-478.86-128.6v5c.28,15,1.18,30,.66,45-.49,14-6,26.41-17,35.4-9,7.37-24.73,9.21-30.69-4.52l-1-14.86c.28-.68.56-1.36.83-2,0-1,.07-1.93.11-2.89l10-24.11c3.85-.05,8.05.86,11.44-.4s5.24-5.08,4.43-9.21c-.88-4.43-3.21-7.61-8-8.42,2.06-4.88,4.45-9.65,6.11-14.66,2.55-7.68,4.6-15.53,6.85-23.31l0-4c.28-5.75.66-11.5.75-17.26,0-1.2-1-2.43-1.58-3.64.56-1.9,1.21-3.78,1.69-5.69,1.15-4.57-1.38-9.85-5.25-11.1-5.37-1.74-10.34.47-12.27,5.44s-.32,10.35,4.45,11.88c3.22,1,7,.32,10.51.4a48.51,48.51,0,0,1-3.7,4.59c-7.74,7.59-14.82,16.14-23.54,22.37-9.72,7-21.1,3.54-24.42-7.75-2.12-7.23.62-13.64,5-19.16a127.18,127.18,0,0,1,30.91-28c11.87-7.57,23.94-14.83,35.8-22.43a20.89,20.89,0,0,0,5.81-5.89c5.46-8.17,10.65-16.51,15.94-24.79,3.47,3.08,7.32,3.89,11.24,1.17,3.5-2.43,5.27-5.9,3.83-10.27-.87-2.66-2-5.22-3-7.83l8.18-11.54a2.82,2.82,0,0,0-2.52.38C-447.58-274-457.66-267-468-260.42c-11.16,7.06-21.7,5.27-27.17-4.16l-.74-1.06c-1.1-9.52,2.21-17.31,9.67-23.12,4.19-3.26,8.87-5.88,13.33-8.79l1.88-.08c-.51,1.39-1.11,2.75-1.52,4.18-1.2,4.21.7,10.43,3.94,12.47,4,2.5,8.12,1.91,11.6-.75a9.45,9.45,0,0,0,3.08-11.45c-1.38-3.45-4.05-6.37-6.16-9.53,4.81-1.6,9.52-3.58,14.43-4.72,7.15-1.67,14.45-2.73,21.68-4.05l14-.27c1.63-.74,3.59-1.13,4.85-2.29,9.17-8.42,18.2-17,27.28-25.52,8-2.05,15.89-4.19,23.87-6.12,4.64-1.13,9.35-1.95,14-2.91-11.61,11-23.24,21.88-34.76,32.93-.81.78-1.06,2.47-1,3.73a34.21,34.21,0,0,0,.93,5.33q.51,13,1,26v3q-.7,13.46-1.42,26.9-.81,6.06-1.6,12.1c-1.39,7.21-2.38,14.52-4.28,21.59s-6.33,9.32-13.6,9.48c-6.07.14-13.68-8-16.19-15.65-1.32-4-2-8.3-2.94-12.47l0-5.91c.54-2.13,1.15-4.25,1.62-6.4,3-13.67,11.46-24.63,17.88-36.62,3.05-5.7,5.61-11.66,8.38-17.5l-1.74-1.05c-2.4,2.61-4.71,5.31-7.22,7.82a421.47,421.47,0,0,0-43.59,52.1c-2.26,3.14-2.4,5.48-.9,8.85a220,220,0,0,1,14.62,47.76c.51,2.71,1,5.41,1.52,8.12.78,9.71,2.08,19.42,2.14,29.14,0,7.2-2.27,14.05-10.22,16.75-7.52,2.56-13.85.58-19.81-4.72s-8.71-12.34-11.69-19.33q.5-9,1-17.92c.64-1.22,1.33-2.42,1.9-3.67,4.9-10.85,10-21.62,14.58-32.61,2.61-6.28,2.33-12.76-1.52-19.54-3,5-5.84,9.13-8,13.63q-11.9,24.83-23.32,49.86c-1.32,2.89-1.75,6.18-2.59,9.29.32,2.33.63,4.67.95,7,.08,1.21.17,2.41.26,3.62.24.79.49,1.59.74,2.38Q-478.88-136.61-478.86-128.6ZM-514.8-75.3l.77.23c0,1.83,0,3.66,0,5.49.07,4.17,2.31,7.48,6,8.19a12.39,12.39,0,0,0,9-2.07c5.61-4.47,4.71-11,3.05-17-2.2-7.92-10.95-9.83-16.09-3.41C-513.78-81.67-513.92-78.19-514.8-75.3Z" transform="translate(1409.39 752.27)"/><path class="cls-7" d="M-831-192.6c-.08,2.35-.17,4.7-.25,7a5.17,5.17,0,0,1-1.49-.15c-27.42-11.68-56-12.07-84.72-7.5-19.76,3.14-39.33,7.88-58.7,13-16.64,4.41-32.55,11.29-45.06,23.61-20.47,20.18-23.86,45-16.36,71.46,7.58,26.82,25.82,45.32,49.72,58.45,25.55,14,53.64,18,82.21,18.91,18.13.58,36.31,0,54.46,0a47.14,47.14,0,0,1,.09,5.44c-1.39,13.88-2.85,27.74-4.29,41.61-.26,1.71-.51,3.41-.77,5.12-18.68-2.66-37.63-4.09-56-8.24-39.72-9-74.3-27.53-100.91-59.24-20.19-24.06-30.29-52-31.86-83.15-.88-17.45-.06-34.86,3.89-52,4.14-18,10-35.19,23.75-48.51,14.47-14,32.45-21.08,51.53-25.83a310.37,310.37,0,0,1,56.48-8.31,283.43,283.43,0,0,1,54.1,2.2c9.36,1.22,18.67,2.8,28,4.22-.07,1.32-.08,2.65-.2,4Q-829.18-211.56-831-192.6Z" transform="translate(1409.39 752.27)"/><path class="cls-2" d="M-1102.3,124l-85.88,0c-.62-5.76-1-11.56-1.91-17.27-5.46-33.86-29.48-54-63.88-54.39-26.5-.32-51.71,5.13-76,15.23l-4.17-28.12c0-.36,0-.71,0-1.06l-4-36.06c29.81-9.36,60.35-11,91.13-7.59a256.31,256.31,0,0,1,73.74,19.78c19.31,8.33,36.85,19.34,50.18,36C-1105.81,72-1101.06,97.21-1102.3,124Z" transform="translate(1409.39 752.27)"/><path class="cls-2" d="M-1366.92-224.65c0-1.65,0-3.3,0-4.95-.76-6.11-1.58-12.22-2.26-18.34-.92-8.2-1.72-16.41-2.57-24.62,7.12.44,14.41.05,21.33,1.45,18.66,3.78,37.3,7.79,55.69,12.71,20.44,5.46,40.33,12.51,56.74,26.79,16,13.89,22.82,31.34,19.57,52.14-3.27,21-14.29,37.93-30.64,51-29.2,23.42-63.94,33.85-99.9,41.09l-1.26-2.25q-.49-4-1-8-.19-6-.4-12c32.65-12.24,44.94-52.77,24.56-81.81-9.17-13.06-22-20.87-37.58-24.09l-1.58-2.1v-3Z" transform="translate(1409.39 752.27)"/><path class="cls-7" d="M-847.42-37.73c-.14,1.71-.29,3.42-.44,5.13l-.6,3.12c-3.47.27-6.94.79-10.4.76-18.95-.19-37.91-.29-56.85-.85A145.17,145.17,0,0,1-968-40.8c-19.66-8.26-36.57-20.12-45.61-40.24-7.18-16-9.81-32.57-1.15-49,6.82-12.92,18.54-20.57,31.71-25.26,33.94-12.09,68.75-20.13,105.11-19.38a96.28,96.28,0,0,1,43.46,11.1q-1.95,18.44-3.89,36.88c-17.36-3.69-34.77-7.06-52.61-6.9a35.21,35.21,0,0,0-34.08,27c-4.71,19.56,4.89,39.36,24,49.36,17.6,9.18,36.09,8.33,54.81,4.62Q-846.79-45.15-847.42-37.73Z" transform="translate(1409.39 752.27)"/><path class="cls-8" d="M-827.18-234.48c-9.34-1.42-18.65-3-28-4.22a283.43,283.43,0,0,0-54.1-2.2,310.37,310.37,0,0,0-56.48,8.31c-19.08,4.75-37.06,11.81-51.53,25.83-13.74,13.32-19.61,30.47-23.75,48.51-4,17.15-4.77,34.56-3.89,52,1.57,31.1,11.67,59.09,31.86,83.15,26.61,31.71,61.19,50.27,100.91,59.24,18.35,4.15,37.3,5.58,56,8.24-.22,3-.45,6-.67,9l-1.44,12.06c-49-2.58-95.19-14.25-136-42.72-29.57-20.63-51.88-47.08-63.33-81.78a191.39,191.39,0,0,1-8.64-45.84,191.9,191.9,0,0,1,11.09-80.23c11.16-31,33.89-50.15,64-61.56,21.42-8.13,43.71-12.26,66.48-14,11.75-.87,23.54-1.88,35.3-1.78a344.18,344.18,0,0,1,64.22,6.85l.33,0Q-826-245-827.18-234.48Z" transform="translate(1409.39 752.27)"/><path class="cls-4" d="M-58,61.38h-47c-.67-5.41-1.31-10.83-2-16.24-1.52-12-3.09-23.94-4.57-35.92Q-113.88-9.24-116-27.73c-1.48-13-2.79-26-4.23-39-1.22-11-2.63-22-3.76-33-1.18-11.53-2.1-23.08-3.19-34.62-1.25-13.34-2.6-26.68-3.83-40-.79-8.58-1.39-17.17-2.14-25.75-1.26-14.34-2.67-28.67-3.84-43-.85-10.57-1.36-21.17-2.12-31.75-1.27-17.51-2.61-35-3.92-52.52l7.93-.18,8.06,1.1c2,11.23,4,22.45,6,33.69,6.11,35.69,12.09,71.4,18.26,107.08C-97.33-153.82-91.6-121.93-86-90c3.81,21.82,7.45,43.67,11.22,65.5,3.91,22.64,7.76,45.29,11.92,67.89C-61.78,49.47-59.67,55.38-58,61.38Z" transform="translate(1409.39 752.27)"/><path class="cls-9" d="M89.11-323.13l14.85-.54,9,1.15,15,.52,9,.15h8l11.2.55c-1.22,13.56-2.38,26.57-3.55,39.57-.16,1.72-.33,3.43-.49,5.14-.08,1.33-.16,2.66-.23,4-.26,1.34-.52,2.67-.77,4-.72,5.57-1.4,11.15-2.17,16.71-1.58,11.43-3.22,22.86-4.84,34.29,0,.67,0,1.34,0,2-.08,1-.17,2-.25,3l-.75,3q-7.87,40.9-15.76,81.8l-.72,3.11c-7.91,30.44-15.91,60.85-27.87,90-.93-7.66-2.11-15.31-2.74-23-1.18-14.51-2.24-29-3-43.57-1.18-23.17-2.1-46.36-3-69.54-.43-10.28-1-20.56-.94-30.84.17-38.57.58-77.13.84-115.7A41.49,41.49,0,0,0,89.11-323.13Z" transform="translate(1409.39 752.27)"/><path class="cls-9" d="M-327.18-167.54c0-.35,0-.71,0-1.06a7.1,7.1,0,0,0,.26-2q-1.92-14.28-3.94-28.53c-.7-4.84-1.54-9.67-2.32-14.5l.24-4c-.36-6-.67-11.94-1.1-17.91a15,15,0,0,0-.88-3.12q0-10,0-20a65.22,65.22,0,0,1-.69-7.35c.13-8.22.45-16.44.69-24.65q0-10.48,0-21c.28-1.68.57-3.36.85-5q0-6.45.1-12.9l3-1.26h6l14,.24,16,.94c.66,4.58,1.49,9.14,2,13.74,1.45,14.16,2.9,28.31,4.08,42.49,1.46,17.49,2.82,35,3.91,52.51.9,14.57,1.42,29.16,2,43.74.75,18.91,1.39,37.83,2,56.74.37,10.62.62,21.25,1.07,31.87.27,6.12.74,12.24,1.29,18.34,1.15,12.85,2.46,25.68,3.55,38.54.08,1-1.08,2-1.66,3-3.47-6.2-7.39-12.2-10.33-18.64-7-15.28-14.33-30.47-19.95-46.26-5.9-16.56-10.08-33.74-14.75-50.71C-323.94-151.89-325.42-159.75-327.18-167.54Z" transform="translate(1409.39 752.27)"/><path class="cls-8" d="M-834.46-163.55a96.28,96.28,0,0,0-43.46-11.1c-36.36-.75-71.17,7.29-105.11,19.38-13.17,4.69-24.89,12.34-31.71,25.26-8.66,16.4-6,33,1.15,49,9,20.12,26,32,45.61,40.24a145.17,145.17,0,0,0,52.27,11.23c18.94.56,37.9.66,56.85.85,3.46,0,6.93-.49,10.4-.76-.19,1.94-.32,3.9-.58,5.83-.7,5.3-1.45,10.58-2.18,15.87-18.15,0-36.33.6-54.46,0-28.57-.92-56.66-4.87-82.21-18.91-23.9-13.13-42.14-31.63-49.72-58.45-7.5-26.51-4.11-51.28,16.36-71.46,12.51-12.32,28.42-19.2,45.06-23.61,19.37-5.13,38.94-9.87,58.7-13,28.68-4.57,57.3-4.18,84.72,7.5a5.17,5.17,0,0,0,1.49.15c-.53,2.65-1.05,5.3-1.58,8Q-833.65-170.58-834.46-163.55Z" transform="translate(1409.39 752.27)"/><path class="cls-8" d="M-1348.94-87.35c36-7.24,70.7-17.67,99.9-41.09,16.35-13.1,27.37-30.06,30.64-51,3.25-20.8-3.6-38.25-19.57-52.14-16.41-14.28-36.3-21.33-56.74-26.79-18.39-4.92-37-8.93-55.69-12.71-6.92-1.4-14.21-1-21.33-1.45q-1.23-5-2.47-10c.06-1.34.11-2.67.16-4-.39-1.33-.77-2.67-1.16-4,.13-1,.25-2,.37-2.94,36.09-.7,70.39,7.87,104,20,16,5.78,31.48,12.61,44.59,23.85,16.54,14.18,27.31,31.49,29.27,53.66,2.25,25.45-6.45,47.37-22,66.8-19.4,24.18-45.72,38.38-74.29,48.34-17.49,6.1-35.7,10.14-53.58,15.11Z" transform="translate(1409.39 752.27)"/><path class="cls-10" d="M-58,61.38c-1.66-6-3.77-11.91-4.89-18-4.16-22.6-8-45.25-11.92-67.89C-78.59-46.34-82.23-68.19-86-90c-5.56-31.92-11.29-63.81-16.8-95.73C-109-221.42-115-257.13-121.1-292.82c-1.92-11.24-4-22.46-6-33.69l19.08.05q4.47,25.14,8.93,50.28,8.94,50.77,17.81,101.58c4.84,28,9.42,56.07,14.28,84.08,4.44,25.57,9.15,51.09,13.65,76.65,3.81,21.65,7.71,43.29,11,65,.47,3.15-2.39,6.8-3.7,10.23C-50,63.43-54,64.33-58,61.38Z" transform="translate(1409.39 752.27)"/><path class="cls-10" d="M10.08-324.26c0,49.66-.15,99.33,0,149,.05,18.29.59,36.59,1,54.88Q11.43-99.19,12-78q.44,16.44,1,32.88c.65,19.92,1.28,39.85,2,59.76.58,15.6,1.3,31.18,2,46.77H-2C-2.69,39.32-3.34,17.25-4.07-4.82-4.67-23.06-5.47-41.3-6-59.54c-.48-16.27-.69-32.56-1.06-48.84-.29-12.28-.84-24.56-.93-36.85q-.66-89.61-1.11-179.22Z" transform="translate(1409.39 752.27)"/><path class="cls-8" d="M-1102.3,124c1.24-26.82-3.51-52-20.76-73.54-13.33-16.64-30.87-27.65-50.18-36A256.31,256.31,0,0,0-1247-5.27c-30.78-3.38-61.32-1.77-91.13,7.59q-1.31-11.48-2.62-23c25.64-7.63,52-9.66,78.4-7.68,40.06,3,78.65,12.39,114.23,31.75,32.43,17.64,55.45,43,63.56,80.08a152.63,152.63,0,0,1,3.28,40.56Z" transform="translate(1409.39 752.27)"/><path class="cls-9" d="M-259-329.66l16,1.1c-.33,12.95-.91,25.89-.94,38.84q-.18,81.18,0,162.34c.05,21.78.64,43.55.94,65.32q.52,39.41,1,78.8Q-247,11.09-252,5.44c.22-.43.66-.88.62-1.27-2.86-25.12-6.13-50.2-8.52-75.36-1.66-17.47-2.25-35-3.1-52.59-.83-17.23-1.35-34.48-2-51.72-.65-16.4-1.19-32.82-2-49.21-.83-16.21-1.64-32.43-3-48.6-1.63-18.76-3.9-37.47-5.89-56.2l-.1-.28Z" transform="translate(1409.39 752.27)"/><path class="cls-10" d="M-242.08,16.75q-.49-39.4-1-78.81c-.3-21.77-.89-43.54-.94-65.32q-.19-81.17,0-162.34c0-12.95.61-25.89.94-38.84l19.05.07-.06,13q-.48,117.39-.92,234.78c0,18.28.58,36.57,1,54.86.26,12.29.62,24.57,1,36.86.26,8.79.63,17.58,1,26.37Z" transform="translate(1409.39 752.27)"/><path class="cls-10" d="M-276-329.51c2,18.73,4.26,37.44,5.89,56.2,1.41,16.17,2.22,32.39,3,48.6.84,16.39,1.38,32.81,2,49.21.69,17.24,1.21,34.49,2,51.72.85,17.54,1.44,35.12,3.1,52.59,2.39,25.16,5.66,50.24,8.52,75.36,0,.39-.4.84-.62,1.27-1.57-1.45-3.46-2.67-4.64-4.37-6.82-9.82-13.47-19.75-20.18-29.65.58-1,1.74-2.07,1.66-3-1.09-12.86-2.4-25.69-3.55-38.54-.55-6.1-1-12.22-1.29-18.34-.45-10.62-.7-21.25-1.07-31.87-.66-18.91-1.3-37.83-2-56.74-.57-14.58-1.09-29.17-2-43.74-1.09-17.52-2.45-35-3.91-52.51-1.18-14.18-2.63-28.33-4.08-42.49-.47-4.6-1.3-9.16-2-13.74Z" transform="translate(1409.39 752.27)"/><path class="cls-11" d="M-1079-656.88c-11.66,6.63-23.82,12.52-34.89,20-40.89,27.74-69.56,65.16-85.69,111.89-6.6,19.12-11.21,38.81-12.41,59.11-.8,13.57-2.24,27.19-1.78,40.73.92,26.82,4.28,53.41,11.17,79.44,1,3.63,1.8,7.3,2.69,10.95l-1.16.36c-4-12-8.63-23.79-11.75-36-4.58-17.92-9.29-36-11.53-54.25-1.16-9.47-6.67-12.07-12.9-15.54-16-8.92-32-17.73-48-26.59-.43-.24-.8-.57-2.34-1.68h60c.9-7.77,1.76-14.94,2.56-22.12a168.89,168.89,0,0,1,13.69-51.16c2.41-5.33,2.95-9.83.32-15.34-5.92-12.44-11.16-25.21-16.65-37.86-.43-1-.7-2.06-1.44-4.3,7.44,2.67,14,4.88,20.36,7.34,6,2.31,11.93,5.08,18,7.19,1.5.52,4.4-.14,5.36-1.32a208.62,208.62,0,0,1,60.91-51.47c12.73-7,26.23-12.7,39.39-19l3-1.18,3-.06Z" transform="translate(1409.39 752.27)"/><path class="cls-12" d="M-1326.93,99.36c-.06-1.32-.13-2.64-.2-4l-.12-5.1a61.6,61.6,0,0,1,5.71-3.07c22.68-9.37,46.31-14.45,70.84-13.59,10.92.39,21.19,4.27,29.06,12.62C-1211.61,96.89-1209,110-1209,124c-10.62.09-21.24.22-31.86.26q-39.59.12-79.18.18c-3.22.31-4-1.15-4.12-4.32-.1-3.94-1.14-7.86-1.77-11.78,0-2-.09-4-.13-6C-1326.34,101.39-1326.63,100.37-1326.93,99.36Z" transform="translate(1409.39 752.27)"/><path class="cls-8" d="M-846.18-52.59C-864.9-48.88-883.39-48-901-57.21c-19.16-10-28.76-29.8-24-49.36a35.21,35.21,0,0,1,34.08-27c17.84-.16,35.25,3.21,52.61,6.9q-.75,6.53-1.51,13.07v4l-1.23,4.94c-5.83-1.2-11.67-2.39-17.5-3.62-10.69-2.27-21.25-5.27-32.42-4.42-10.39.78-17.28,10.28-13.91,20,3.31,9.56,10.22,15.67,19.6,19.17,13.84,5.16,27.46,2.15,41.09-1Z" transform="translate(1409.39 752.27)"/><path class="cls-8" d="M-1209,124c0-14-2.62-27.13-12.65-37.76-7.87-8.35-18.14-12.23-29.06-12.62-24.53-.86-48.16,4.22-70.84,13.59a61.6,61.6,0,0,0-5.71,3.07q-1.38-11.37-2.77-22.74c24.34-10.1,49.55-15.55,76-15.23,34.4.41,58.42,20.53,63.88,54.39.93,5.71,1.29,11.51,1.91,17.27Z" transform="translate(1409.39 752.27)"/><path class="cls-6" d="M102.94-507.6l-9,20.52.66.58a14.94,14.94,0,0,0,2.48-1.71c11-11.27,21.7-22.78,32.93-33.79,7.77-7.63,16.64-13.25,28.42-12.72,7.59.33,13.2,3.44,16.3,10,2.75,5.79,2.35,12.33-1.78,17.29s-8.87,10.2-14.48,13.12c-18.21,9.47-36.93,17.94-55.46,26.8-1.87-5.63-5.15-7.43-11-5.52-6.28,2.05-12.41,4.59-18.69,6.67-2,.66-4.21.53-6.33.76,3.49-10.25,6.71-20.61,10.58-30.71,2.67-7,6.23-13.56,9.39-20.32C91.15-511.65,95.42-506.74,102.94-507.6Zm38,2.94c0-6.11-3-9-9.2-8.94-4.94.06-8.78,4.15-8.82,9.4a9.31,9.31,0,0,0,9.36,9.59C137-494.54,141-499.13,141-504.66Z" transform="translate(1409.39 752.27)"/><path class="cls-6" d="M52.79-438.59l-5,41c-3.8-.24-7.64-.26-11.41-.79-4.41-.62-7.86.39-9.77,4.63-1.05,2.33-1.78,4.8-2.65,7.21-4.52-9.23-8-18.82-8.82-29.13-.64-8.2-1.54-16.48-1-24.64.82-12.15,3.33-24.09,11.24-34a11.11,11.11,0,0,1,11.87-4C44.83-476.42,52.2-466.9,53-458.6c-7.84,1.37-10.41,4.45-10,12C43.28-441.22,45.84-439.13,52.79-438.59Z" transform="translate(1409.39 752.27)"/><path class="cls-13" d="M-18-437.5c-4.25-4.43-8.47-8.9-12.77-13.28-5.35-5.46-5.86-9.24-2-16.12-4-3.67-4.92-8-3.33-13.35,2.27-7.6,4-15.35,6-23,1.46-5.68,5.16-8.23,10.5-7.25,4.7.86,9,6.34,8,10.94-2.24,10-4.87,19.89-7.31,29.83-.25,1-.79,2.69-.32,3.14,5,4.79,10.11,9.39,15.21,14Z" transform="translate(1409.39 752.27)"/><path class="cls-14" d="M-1243-611.6q1.93-13,3.86-26l.12-2.9c1-5.34,2.14-10.67,3.09-16,.87-5,1.58-9.92,2.45-15.5l35.44,41.59c-10.72,4.58-21.43,9.19-32.17,13.73C-1234.4-614.92-1238.69-613.3-1243-611.6Z" transform="translate(1409.39 752.27)"/><path class="cls-14" d="M-842-345.69q6.72-20.78,13.46-41.55c.71-2.17,1.73-4.24,2.6-6.36l36.51,35.65-10.58,3.24-6,1.14L-835.18-347l-1.85.4Z" transform="translate(1409.39 752.27)"/><path class="cls-14" d="M-1079-656.88l0-.81c7.9-17.95,15.8-35.91,24.09-54.77l15.79,38.19c.24.86.47,1.72.71,2.58q1.71,5,3.43,10Z" transform="translate(1409.39 752.27)"/><path class="cls-14" d="M-814.18-527.57c6.78,1.92,13.57,3.77,20.32,5.77,9,2.65,17.89,5.42,26.83,8.13l1.75,1.18c-1.85.95-3.66,2-5.56,2.84q-20.61,9.06-41.26,18.06c-.95-.29-2.76-.59-2.75-.88C-814.73-504.17-814.45-515.87-814.18-527.57Z" transform="translate(1409.39 752.27)"/><path class="cls-12" d="M-1357.2-145.6v-2c-.24-3.54-.37-7.08-.76-10.6-1.27-11.45-2.64-22.88-4-34.32,19.33,5.12,29.32,27.84,20.37,46.85-2.81,6-6,11.86-13.08,14Q-1355.91-138.61-1357.2-145.6Z" transform="translate(1409.39 752.27)"/><path class="cls-6" d="M80.79-448.59c-2.46,11.61-5,23.21-7.34,34.84-.82,4-1.28,8.09-1.9,12.13-5.39-2.57-10.61-3.16-15.66,1-.91.74-2.45.72-3.7,1.05q4.08-21,8.15-42Z" transform="translate(1409.39 752.27)"/><path class="cls-14" d="M-1359.64-378.73l-49.75-12.71,21.4-9,4-1.26,19.55-6.84Q-1362.06-393.65-1359.64-378.73Z" transform="translate(1409.39 752.27)"/><path class="cls-15" d="M43.93,133.3c6.35-2,12.83-3.75,19-6.19,17.35-6.84,32.17-17.63,44.76-31.19,8.85-9.54,16.74-20,25-30A35.25,35.25,0,0,0,135.09,62L129,61.4c.08-3.48-.5-7.68,5-6.85,1.45.22,3.74,2.26,3.73,3.44-.05,4.32-.9,8.62-1.46,12.93-.29,2.22-.62,4.44-1,6.92-5.67,3.47-10.88,7.88-14,14.44-.44.94-1.76,1.44-2.58,2.23-1.89,1.8-3.66,3.74-5.62,5.46a27.17,27.17,0,0,1-6.16,4.12c-1.63,3.36-1.62,8.27-7.75,7.61-.64-.07-1.8,2-2.25,3.25-1.07,3-2.5,4.38-6.19,4.08-3.46-.28-8.2-1.43-9.22,4.58-.2,1.13-2.61,2.31-4.19,2.68-2.87.69-5.88.72-8.81,1.16-.9.14-2.16.53-2.5,1.19C62,136.51,54.14,134,47.73,135.23,46.62,135.44,45.2,134,43.93,133.3Z" transform="translate(1409.39 752.27)"/><path class="cls-16" d="M-377.9-339.56q9.12-8.55,18.22-17.1c.66-.62,1.25-1.33,1.87-2-.19-.47-.39-.93-.58-1.39L-384-352.59c1.67-2,3-5,5.06-5.71,11.3-3.64,22.77-6.78,34.24-9.88,5.21-1.4,10.82,4.41,10.28,10.34-.14,1.47-.36,2.93-.55,4.4l-5,4.85c-4.68,1-9.39,1.78-14,2.91C-362-343.75-369.94-341.61-377.9-339.56Z" transform="translate(1409.39 752.27)"/><path class="cls-17" d="M80.79-448.59l-20.45,7q3.3-12,6.61-24c2.12-.23,4.35-.1,6.33-.76C79.56-468.45,85.69-471,92-473c5.89-1.91,9.17-.11,11,5.52-4.55,2.37-9,5-13.67,7-4.2,1.86-7,4.45-7.42,9.22A9.42,9.42,0,0,1,80.79-448.59Z" transform="translate(1409.39 752.27)"/><path class="cls-16" d="M314-316.15q3.12-7.71,6.25-15.43c1.25,6.54,2.4,13.11,3.83,19.62a11.43,11.43,0,0,0,2.52,5.33c3.14,3.29,5.44,6.56,3.72,11.41-1.51,4.27-4.46,6.48-8.89,6.59s-8.89-3.74-10.7-8.28c-.71-1.79-2.11-3.29-3.2-4.93q3.15-6.59,6.31-13.17C313.85-315.39,313.91-315.77,314-316.15Z" transform="translate(1409.39 752.27)"/><path class="cls-17" d="M119.59-536.3l-4.46-.28c-6.6-.42-11.1-6.56-8.68-12.61a45.89,45.89,0,0,1,6.34-10.6c3-3.85,7.17-4.91,11.5-2.47,4.07,2.28,6.09,5.88,4.83,10.78a10.81,10.81,0,0,0-.13,2l-8.89,11.93-.51,1.27Z" transform="translate(1409.39 752.27)"/><path class="cls-17" d="M-236-663.54a54.85,54.85,0,0,0-3.43-6.91c-3-4.39-2.3-10.87,1.67-13.7s10.65-1.73,13.71,2.43c1.27,1.73,2.56,3.46,3.75,5.24,4.67,7,2.35,13.45-5.59,15.75-1.07.3-2.09.78-3.13,1.17l-6-3.22-1-.81Z" transform="translate(1409.39 752.27)"/><path class="cls-13" d="M241.12-587.57c-4.82.13-9.61-.22-11.77-5.41-2.45-5.89-2.89-12.4.72-17.59,1.69-2.43,6.7-3.83,10-3.55,4.09.35,7,3.94,6.8,8.53-.3,5.38-1.2,10.72-1.84,16.09l0,0L243-588.47l.09-.09-1.11.8A1.38,1.38,0,0,1,241.12-587.57Z" transform="translate(1409.39 752.27)"/><path class="cls-17" d="M24-386.56c.87-2.41,1.6-4.88,2.65-7.21C28.51-398,32-399,36.37-398.4c3.77.53,7.61.55,11.41.79q1.08,9,2.15,17.89c0,.37,0,.74,0,1.1-7.44,1.92-14.49.6-21.34-2.53-.4-.18-1.11.34-1.67.53Z" transform="translate(1409.39 752.27)"/><path class="cls-16" d="M50-378.62c0-.36,0-.73,0-1.1q1.13-9.94,2.26-19.89c1.25-.33,2.79-.31,3.7-1.05,5-4.12,10.27-3.53,15.66-1a80.2,80.2,0,0,0-1.23,8.11c-.06.91,1,1.89,1.61,2.84-1.3,1.54-2.31,3.73-4,4.52C62.09-383.38,56-381.09,50-378.62Z" transform="translate(1409.39 752.27)"/><path class="cls-17" d="M-212.76-699.44c-1,9.71-5.56,13.78-13.06,11.74-5.18-1.41-9.41-7.29-9.21-12.73.17-4.86,2.78-7.87,7.36-8.67,2.49-.43,5.19.31,7.79.53Q-216.31-704-212.76-699.44Z" transform="translate(1409.39 752.27)"/><path class="cls-16" d="M102.94-507.6c-7.52.86-11.79-4-16-9,.37-2.66.75-5.33,1.12-8,5.28-6.23,10.8-6.47,17.57-.83,1.62,1.35,3.35,2.57,5,3.85Z" transform="translate(1409.39 752.27)"/><path class="cls-17" d="M-124.21-536.61a17.87,17.87,0,0,0-2.49,2.16c-2.8,3.47-6.43,4.77-10.6,3.53-4.61-1.37-6.77-5.2-7.64-9.59s.15-8.16,4.24-10.74c4.51-2.84,9.41-1.59,13.67,3.65Z" transform="translate(1409.39 752.27)"/><path class="cls-17" d="M-460.1-302.71c2.11,3.16,4.78,6.08,6.16,9.53A9.45,9.45,0,0,1-457-281.73c-3.48,2.66-7.61,3.25-11.6.75-3.24-2-5.14-8.26-3.94-12.47.41-1.43,1-2.79,1.52-4.18a5.69,5.69,0,0,1,.06-.83Z" transform="translate(1409.39 752.27)"/><path class="cls-15" d="M-812.1-491.59q20.64-9,41.26-18.06c1.9-.84,3.71-1.89,5.56-2.84l5.7-1.74c.44,1.63,1.72,3.76,1.13,4.78a9.32,9.32,0,0,1-4.92,3.72c-2.62.84-5.58.59-8.29,1.26-1.19.29-2.22,1.6-3.13,2.62-1.16,1.31-1.94,3.8-3.21,4-6.36,1.23-12.83,1.88-20,2.83-1.58,6.2-7.29,7.55-13.89,7.38Z" transform="translate(1409.39 752.27)"/><path class="cls-16" d="M196-444.25a24.64,24.64,0,0,1,1.4,4.69,12.49,12.49,0,0,1-.42,5.21c-1.88,5.38-7.91,7.39-16.3,5.69-3.9-.79-6.87-5.08-6.67-9.83s2.74-7.61,7.61-8.15c-.31,2.55-.63,5.09-1,8.13Z" transform="translate(1409.39 752.27)"/><path class="cls-16" d="M-445-341.88l-8.94-6.75-.21-4c0-1,0-2,0-3,.17-.67.33-1.34.49-2,3.35-1.41,5.64-4.64,10.16-4.18s7,2.82,8.12,6.71c1.27,4.26-.32,7.89-3.79,10.45C-440.87-343.38-443-342.78-445-341.88Z" transform="translate(1409.39 752.27)"/><path class="cls-16" d="M292.2-243.59q-.63-4-1.27-8,0-3,0-6l.3-2c4.27-.26,8.28-3.7,12.88-.53,3.45,2.37,6,7.44,4.66,11.63s-4.33,6.2-8.71,5.87C297.42-242.82,294.81-243.26,292.2-243.59Z" transform="translate(1409.39 752.27)"/><path class="cls-17" d="M107.73-614a44.6,44.6,0,0,1,4.65,2.44c4.29,2.93,5.66,7.4,3.74,11.68-2,4.49-7.6,7.51-12.33,6-3-1-5.64-3.06-8.44-4.65Z" transform="translate(1409.39 752.27)"/><path class="cls-16" d="M-91.8-425.63c4.59,3.17,9.25,6.25,13.75,9.55a9.5,9.5,0,0,1,3.79,10.57c-1,4.16-4.3,6-8.28,6.91a13.3,13.3,0,0,0-2.6,1.15Z" transform="translate(1409.39 752.27)"/><path class="cls-16" d="M-16.14-586.64c4.15-.28,7.81.94,9.4,4.93,1.69,4.25,1.25,8.54-2.51,11.82-3.13,2.73-5.16,7-10.56,6.41-3.76-.38-7.14-1-8.44-4.84-1.37-4-1.88-8.16,2.18-11.27.77,2.62,1.43,5.27,2.34,7.83.87,2.4,2,4.71,3,7.06l1.47,0q1.2-8.46,2.39-16.93Z" transform="translate(1409.39 752.27)"/><path class="cls-17" d="M-492-547.65a26.47,26.47,0,0,0-1,4.63c-.24,5.76-3.43,9.38-8.52,9.42a9.22,9.22,0,0,1-9.53-8.78c-.3-5.49,3.26-9.75,8.58-10.2,1.16-.1,2.32,0,3.48,0Z" transform="translate(1409.39 752.27)"/><path class="cls-17" d="M-451.6-603.88c-.74,5-.59,10.39-7,12.34-5.42,1.66-10-.55-12-6.17-1.56-4.48,1.48-10.27,6.22-11.86.75-.25,1.49-.55,2.24-.82l9.07,5.72,1.34.83Z" transform="translate(1409.39 752.27)"/><path class="cls-17" d="M365-687.49c.58-3.47.27-7.47,1.94-10.29,2.48-4.16,10.55-5.27,16-3.29,5.18,1.88,7,5.05,7,12.28-6.6,0-13.19,0-19.78.18A27.07,27.07,0,0,0,365-687.49Z" transform="translate(1409.39 752.27)"/><path class="cls-16" d="M-206.2-579.17c2.85-6.92,6.42-9.93,11-9.31a9.3,9.3,0,0,1,8.14,8.63c.39,3.91-2.67,8.78-6.39,10.19-.88.33-1.74.72-2.61,1.08Z" transform="translate(1409.39 752.27)"/><path class="cls-16" d="M-458.06-565c.95-2.95,1.4-6.2,3-8.78,2.34-3.86,7.25-4.69,11.43-2.68a9.56,9.56,0,0,1,5.42,11c-.46,1.93-1.17,3.79-1.76,5.68-5-1.29-10.07-2.55-15.09-3.9A19,19,0,0,1-458.06-565Z" transform="translate(1409.39 752.27)"/><path class="cls-16" d="M305.92-712.68a7.67,7.67,0,0,0,.94,2.24c5.67,6.39,5.53,9.87-.6,16.08-3.67,3.73-7.15,7.85-13.25,4.78Z" transform="translate(1409.39 752.27)"/><path class="cls-15" d="M-1088-656.73l-40,7.05c.18-7.37,4.45-10.11,13.12-8.8,2.85.44,5.82.05,8.73.09,5.87.08,11.74.19,17.6.36C-1088.38-658-1088.21-657.18-1088-656.73Z" transform="translate(1409.39 752.27)"/><path class="cls-16" d="M-277.95-500.66a18.75,18.75,0,0,0-2.61,2c-3.95,4.3-7.88,5.26-11.89,2.79-4.48-2.76-5.8-7.78-3.42-13.08.27-.61.6-1.19.9-1.78Z" transform="translate(1409.39 752.27)"/><path class="cls-17" d="M52.79-438.59c-6.95-.54-9.51-2.63-9.81-8-.44-7.55,2.13-10.63,10-12Q52.86-448.59,52.79-438.59Z" transform="translate(1409.39 752.27)"/><path class="cls-16" d="M273-674.24c1.29,4,1.18,7.71-1.34,11.24s-6.43,3.87-10.23,3.24c-3.05-.51-5.65-2.07-5.48-5.88Z" transform="translate(1409.39 752.27)"/><path class="cls-15" d="M321.51-226.44c8.8-7.75,11.58-18.52,14.61-29.16.6.66,1.71,1.31,1.72,2,.06,5.33,0,10.67-.25,16-.06,1.18-1.22,3.35-1.72,3.3-6.54-.58-4.94,9-11,8.69A18.86,18.86,0,0,1,321.51-226.44Z" transform="translate(1409.39 752.27)"/><path class="cls-15" d="M-1035-661.66q-1.73-5-3.43-10c1.67-.93,4.3-3,4.85-2.6,2,1.63,3.3,4.11,4.46,6.55,2.12,3.19,8.62-2.19,9.13,4.93Z" transform="translate(1409.39 752.27)"/><path class="cls-16" d="M-199.93-425.65c-4.58,1.79-8.52.33-10.33-3.83-1.93-4.43-2.56-9.43-3.75-14.18Q-207-434.66-199.93-425.65Z" transform="translate(1409.39 752.27)"/><path class="cls-15" d="M291.21-259.6l-.3,2c-1-1.85-2.62-3.67-2.71-5.56-.19-3.91.64-7.86.73-11.81.16-6.74.79-7.45,7.88-7.63-1.73,6.26-3.49,12.51-5.15,18.8A26.33,26.33,0,0,0,291.21-259.6Z" transform="translate(1409.39 752.27)"/><path class="cls-15" d="M28.11,61.33,48.72,47.18c.8,4.16.32,7.24-4.77,8.5-1.38.34-2,3.73-3,5.73Z" transform="translate(1409.39 752.27)"/><path class="cls-15" d="M-478.86-128.6q0-8-.05-16c5.59,1.28,6.83,3.08,6.79,11.07C-472.14-129.18-475.85-129.21-478.86-128.6Z" transform="translate(1409.39 752.27)"/><path class="cls-15" d="M313.8-315q-3.17,6.58-6.31,13.17c-.76.78-1.51,1.57-2.26,2.35-.32-4.13-1.69-8.54-.67-12.31S310.08-315.61,313.8-315Z" transform="translate(1409.39 752.27)"/><path class="cls-15" d="M-1325.92,108.36c.63,3.92,1.67,7.84,1.77,11.78.08,3.17.9,4.63,4.12,4.32-1.43,1-2.79,2.54-4.32,2.72-1,.12-3.35-1.76-3.3-2.65C-1327.36,119.13-1326.56,113.75-1325.92,108.36Z" transform="translate(1409.39 752.27)"/><path class="cls-15" d="M-334.95-290.6c-.24,8.21-.56,16.43-.69,24.65a65.22,65.22,0,0,0,.69,7.35c-1-1.64-2.86-3.25-2.93-4.93-.33-7.62-.3-15.27,0-22.89C-337.83-287.85-336-289.21-334.95-290.6Z" transform="translate(1409.39 752.27)"/><path class="cls-15" d="M-334.93-238.63a15,15,0,0,1,.88,3.12c.43,6,.74,11.94,1.1,17.91-1-1-2.79-2-2.93-3.15a150.34,150.34,0,0,1-1-15.15C-336.92-236.79-335.62-237.72-334.93-238.63Z" transform="translate(1409.39 752.27)"/><path class="cls-15" d="M-259-329.66l-17.05-.13c.09-.32.07-.72.27-.94C-272.93-333.91-261.68-333.18-259-329.66Z" transform="translate(1409.39 752.27)"/><path class="cls-15" d="M137-321.85l-9-.15c.48-2.07,1-4.13,1.63-7.08C132.8-326.88,136.52-326.28,137-321.85Z" transform="translate(1409.39 752.27)"/><path class="cls-15" d="M-311-330.52l-14-.24c1.79-5.27,6.19-2.28,9.36-2.64C-314.24-333.56-312.58-331.55-311-330.52Z" transform="translate(1409.39 752.27)"/><path class="cls-15" d="M48.75,47.15l8.1-9.06C57.14,46.16,55.83,47.63,48.75,47.15Z" transform="translate(1409.39 752.27)"/><path class="cls-15" d="M-871,124.47c2.25-1.35,6.63,2.27,7.17-3.07,4.48,1.32,2.66,3.75.39,5C-866.11,127.84-869.56,129.14-871,124.47Z" transform="translate(1409.39 752.27)"/><path class="cls-15" d="M-1375.2-290.6c.39,1.33.77,2.67,1.16,4a6.64,6.64,0,0,1-1.9.42,15.51,15.51,0,0,1-4.44-.71c-.4-.14-.58-2.4-.27-2.57a15.33,15.33,0,0,1,4-1.12A6.55,6.55,0,0,1-1375.2-290.6Z" transform="translate(1409.39 752.27)"/><path class="cls-15" d="M-575.07-479.6c0,3.33,0,6.67,0,10C-578.2-472.62-578.18-477.91-575.07-479.6Z" transform="translate(1409.39 752.27)"/><path class="cls-15" d="M-1009-663l-4,.17,1.92-2.71C-1010.41-664.69-1009.72-663.84-1009-663Z" transform="translate(1409.39 752.27)"/><path class="cls-15" d="M-334.09-316.6c-.28,1.68-.57,3.36-.85,5C-336.32-313.52-337.17-315.39-334.09-316.6Z" transform="translate(1409.39 752.27)"/><path class="cls-18" d="M-196.1-328.75H-200C-198.71-332.21-197.4-329.46-196.1-328.75Z" transform="translate(1409.39 752.27)"/><path class="cls-15" d="M-494.14-477.6l-.84,5.11C-495.49-474.33-497.66-476.43-494.14-477.6Z" transform="translate(1409.39 752.27)"/><path class="cls-15" d="M-331-330.76l-3,1.26c.5-1.24,1-2.47,1.52-3.71Z" transform="translate(1409.39 752.27)"/><path class="cls-15" d="M-350-488.77l-4,.09C-352.76-491.4-351.42-491.42-350-488.77Z" transform="translate(1409.39 752.27)"/><path class="cls-15" d="M-1366.92-224.65l.72,4.05Z" transform="translate(1409.39 752.27)"/><path class="cls-15" d="M216-426.43h4Q218-422.48,216-426.43Z" transform="translate(1409.39 752.27)"/><path class="cls-15" d="M-647.86-390.6v-4C-645.23-393.27-645.23-391.93-647.86-390.6Z" transform="translate(1409.39 752.27)"/><path class="cls-15" d="M151.9-272.6c.07-1.33.15-2.66.23-4C154.8-275.1,154.8-273.76,151.9-272.6Z" transform="translate(1409.39 752.27)"/><path class="cls-15" d="M-454.17-355.6c0,1,0,2,0,3l-1.74-1.71Z" transform="translate(1409.39 752.27)"/><path class="cls-15" d="M-1001-662.82l-2-.16,1.08-2.19C-1001.64-664.39-1001.34-663.6-1001-662.82Z" transform="translate(1409.39 752.27)"/><path class="cls-15" d="M143.88-212.6c.08-1,.17-2,.25-3l1.68,1.37Z" transform="translate(1409.39 752.27)"/><path class="cls-15" d="M-1326.93,99.36c.3,1,.59,2,.88,3C-1326.34,101.39-1326.63,100.37-1326.93,99.36Z" transform="translate(1409.39 752.27)"/><path class="cls-15" d="M-561-538.43h3l-1.73,1.68Z" transform="translate(1409.39 752.27)"/><path class="cls-15" d="M-479.65-147c-.09-1.21-.18-2.41-.26-3.62C-479.83-149.39-479.74-148.19-479.65-147Z" transform="translate(1409.39 752.27)"/><path class="cls-15" d="M-1057.41-717.87c-.12.28-.18.71-.38.79s-.54-.2-.82-.32c.13-.28.19-.71.39-.79S-1057.69-718-1057.41-717.87Z" transform="translate(1409.39 752.27)"/><path class="cls-15" d="M-526.09-64.6c-.27.68-.55,1.36-.83,2C-526.64-63.24-526.36-63.92-526.09-64.6Z" transform="translate(1409.39 752.27)"/><path class="cls-3" d="M243-588.47l2.08-1.07Z" transform="translate(1409.39 752.27)"/><path class="cls-18" d="M-175.89-328.58l-1.15.74.09-2C-176.6-329.39-176.25-329-175.89-328.58Z" transform="translate(1409.39 752.27)"/><path class="cls-3" d="M242-587.76l1.11-.8Z" transform="translate(1409.39 752.27)"/><path class="cls-3" d="M-451.67-603.84l-1.34-.83Z" transform="translate(1409.39 752.27)"/><path class="cls-3" d="M119.59-536.3l.51-1.27Z" transform="translate(1409.39 752.27)"/><path class="cls-3" d="M-236.08-663.59l1,.81Z" transform="translate(1409.39 752.27)"/><path class="cls-7" d="M-1163.45-325.54c13.4.74,26.81,1.4,40.21,2.25,12.4.79,24.78,1.77,37.17,2.72,12.72,1,25.42,2,38.14,3-6.06,7.7-12.08,15.42-18.17,23.08-5.88,7.41-11.29,15.28-17.86,22-13.24,13.61-24,14.42-39.23,3.28C-1142.76-283.48-1154.85-303.31-1163.45-325.54Z" transform="translate(1409.39 752.27)"/><path class="cls-11" d="M-1073-653.63c5.33,3.84,11.07,7.23,15.91,11.62,17.32,15.68,30.76,34.36,41,55.33,1.37,2.8,2.45,4.06,6.32,3.39,14.65-2.52,29.42-4.29,44.16-6.28a38.51,38.51,0,0,1,4.94,0c-8.48,8.79-16.57,17.3-24.82,25.66-4.19,4.26-8.93,8-12.86,12.49-1.3,1.47-1.65,4.72-1.06,6.75,6.57,22.48,11.32,45.33,12.18,68.72.39,10.55,7.49,14.91,14.09,20.37,9.56,7.93,19.08,15.91,29.79,24.85l-40.43,8.32c-3.54,33.14-7,65.6-10.47,98.05l-1.86-.17c.38-7.42.7-14.84,1.14-22.26.59-9.91,1.63-19.82,1.84-29.74.31-15.16.59-30.34,0-45.47-.74-17.19-2.47-34.34-3.83-51.49a386.37,386.37,0,0,0-12.09-68.79c-8.26-31-19.67-60.72-40-86.1-6-7.47-13.23-13.92-19.9-20.84-1.37-1.43-2.72-2.88-4.08-4.33Z" transform="translate(1409.39 752.27)"/><path class="cls-8" d="M-1163.45-325.54c8.6,22.23,20.69,42.06,40.26,56.35,15.26,11.14,26,10.33,39.23-3.28,6.57-6.74,12-14.61,17.86-22,6.09-7.66,12.11-15.38,18.17-23.08L-1022-316c-9,11.28-18,22.61-27,33.84-6,7.36-11.87,14.77-18.19,21.81-9,10-19.16,18.45-33.34,20.09-12.12,1.4-22.52-3-32.12-9.66-17.82-12.36-29.54-30-40-48.37-5.33-9.35-9.43-19.41-14.08-29.14Z" transform="translate(1409.39 752.27)"/><path class="cls-19" d="M-1129.28-442.17c-8-3.49-14.87-6.68-21.91-9.55-9-3.67-11.53-6.83-10.82-14.43.54-5.83,5.51-9.45,10.87-7.27,12.31,5,24.46,10.36,36.65,15.62,4.12,1.78,8.2,3.66,12.25,5.6,4.58,2.19,5.54,6.16,5.23,10.82-.28,4.26-2.61,6.61-6.52,7.79-6.31,1.93-11.76,4.89-15.78,10.57-3.5,4.94-10.91,5.09-15.56,1.07-4.22-3.65-4.32-9-.14-14.1C-1133.46-437.94-1131.68-439.63-1129.28-442.17Z" transform="translate(1409.39 752.27)"/><path class="cls-19" d="M-966.59-638.59c11.93-.06,23.87-.53,35.36,3.77,8.52,3.19,14.78,8.5,18.23,17.11,1.72,4.29,1.14,7.79-2.25,10.78-3.19,2.83-9.24,3.22-12.57.82-1.33-1-2.9-2.08-3.49-3.49-3-7.19-9.27-7.76-15.66-8-11.93-.42-23.87-.66-35.8-1-6.79-.21-10.41-4-10.26-10.74.12-5.65,4.19-9.24,10.47-9.23h16Z" transform="translate(1409.39 752.27)"/><path class="cls-19" d="M-865-566.34c.09,5.2-2.54,8.15-8.79,9.72-8.33,2.08-16.64,4.31-25,6a12.38,12.38,0,0,0-9.29,7.24c-1.6,3.27-3.48,6.41-5.27,9.58-3.54,6.27-7.28,7.53-13.58,4.63-4.74-2.18-7-8.2-4.79-13.5,1.86-4.4,4.23-8.58,6.31-12.88,4.29-8.84,11.87-12.87,21-14.86,8.55-1.86,17-4.18,25.56-6.07C-870.55-578.28-865.17-574.23-865-566.34Z" transform="translate(1409.39 752.27)"/><path class="cls-19" d="M-1053.86-490.24c-1.7-.94-2.81-1.65-4-2.18-5.41-2.38-7.52-6.9-6-13.07,1.11-4.65,4.59-6.34,10.8-6.2,8.5.18,16.06,2.8,23.28,7.13s5.27,13.55.09,20c-1.71,2.14-4.28,3.59-7,5.78,8,2.75,10.82,6.36,10.68,12.1-.12,4.41-2.55,7.22-6.39,8.64-7.16,2.64-16.95-.31-21.75-6.25s-5.44-15.48-1.73-22C-1055.24-487.41-1054.7-488.6-1053.86-490.24Z" transform="translate(1409.39 752.27)"/><path class="cls-14" d="M-1348.73-513.5c-7.75-16.81-15.44-33.64-23.27-50.41-2.41-5.16-5.16-10.16-8.37-16.41,6.66,3,12.32,5.54,17.92,8.16,12.56,5.87,25.09,11.8,37.64,17.67a21.91,21.91,0,0,0,2.78.88c-2,3.59-3.76,7.31-6,10.75-5.92,9.19-12,18.28-18.11,27.36A10.62,10.62,0,0,1-1348.73-513.5Z" transform="translate(1409.39 752.27)"/><path class="cls-19" d="M-1123.21-558.14c-6.16-1.84-11.73-3.17-17-5.19-4.13-1.58-5.76-5.45-5.72-9.67a10.23,10.23,0,0,1,6.53-9.74,9.91,9.91,0,0,1,5.67-.13c5.57,1.26,11,3.11,16.6,4.23,7.85,1.58,14.09,4.82,16.3,13.2a6.11,6.11,0,0,0,5.3,5c5.42,1.1,8.31,5.92,7.1,10.7-1.75,6.88-6.25,10.24-12.11,8.78-4.81-1.21-9.58-2.59-14.3-4.1-6.88-2.2-7.88-3.69-8.17-11.14C-1123.07-557-1123.18-557.83-1123.21-558.14Z" transform="translate(1409.39 752.27)"/><path class="cls-19" d="M-1033.12-375.52c1.23.57,2.08.95,2.92,1.36,5.49,2.67,7.27,6.66,5.42,12.18s-6.7,8.65-12,7.14a43,43,0,0,1-12.13-5.42,15.32,15.32,0,0,1-4.6-21.06,207.86,207.86,0,0,1,17.58-22.7c3.05-3.53,7.36-4.92,12.11-2s6.42,10.18,3,14.66C-1024.76-386.13-1028.85-381-1033.12-375.52Z" transform="translate(1409.39 752.27)"/><path class="cls-14" d="M-896.08-641.66l59.18-21.64c-3.74,8.7-6.79,16.35-10.28,23.79s-7.45,14.72-11.21,22.06c-2.93-1.73-5.94-3.36-8.79-5.21C-876.84-628.95-886.45-635.32-896.08-641.66Z" transform="translate(1409.39 752.27)"/><path class="cls-19" d="M-917-487.42c-.78-7.65,4.62-10.23,12-11.93,13.51-3.12,26.32-.54,38.39,6,4.17,2.25,6.41,5.66,5.61,10.62-.68,4.29-2.82,7.74-7.16,8.54a12.9,12.9,0,0,1-8-1.14,35,35,0,0,0-29.1-2.74C-912.7-475.7-917-479.4-917-487.42Z" transform="translate(1409.39 752.27)"/><path class="cls-19" d="M-1270.31-538.91c2.3,5,3.74,9.48-.56,13.74-4.91,4.87-10.86,5.18-15.86.33q-5.58-5.38-11-10.95c-6.8-7-4.57-15.64,4.84-18.32,6.69-1.91,13.46-3.51,20.23-5.12,7.22-1.71,11.3.74,13.12,7.7,1.42,5.41-1.86,10.15-8.23,11.91Z" transform="translate(1409.39 752.27)"/><path class="cls-19" d="M-869-380.7c0,5.84-3.66,10.77-7.84,11.9-4.7,1.27-8.62-.53-10.94-5.44A54.23,54.23,0,0,0-908-397c-5.24-3.37-6.7-9.38-3.71-14.12,3.52-5.58,9-6.57,15-2.91,11,6.74,19.29,16.09,25.55,27.26A30.72,30.72,0,0,1-869-380.7Z" transform="translate(1409.39 752.27)"/><path class="cls-19" d="M-1132.33-363c-.8,8.43-8.24,13.33-15.11,8.95a74.82,74.82,0,0,0-25.43-10.52c-4.4-.91-6.88-6-6.09-10.57s4.76-8.69,9-8.42c13.26.84,25.2,5.25,34.9,14.59C-1133.57-367.53-1133.2-365-1132.33-363Z" transform="translate(1409.39 752.27)"/><path class="cls-19" d="M-1301-448.65a15.15,15.15,0,0,1-5.15,12.67,9,9,0,0,1-10.18,1.63c-3.6-1.57-5.8-4.38-5.71-8.53a17.63,17.63,0,0,1,.42-4.43c1.4-4.68-.5-7.93-4.1-10.68-5.83-4.45-6.63-9.67-2.44-14.94,3.65-4.6,10-5.05,15.08-1.22C-1304.92-468.08-1300.82-460.07-1301-448.65Z" transform="translate(1409.39 752.27)"/><path class="cls-19" d="M-1287.64-395c.47-4.5,2.22-7.62,6.17-9.3,4.19-1.78,8-1.22,11.33,2.08,5.17,5.17,10.37,10.32,15.51,15.52,4.45,4.51,5,9.48,1.46,13.74-3.9,4.74-9.75,6-14.47,1.83a222.71,222.71,0,0,1-17.42-17.74C-1286.47-390.42-1286.81-392.94-1287.64-395Z" transform="translate(1409.39 752.27)"/><path class="cls-19" d="M-922.61-334.83c-2.42,2.82-4.19,5.73-6.72,7.63a7.78,7.78,0,0,1-9.74-.17c-6.36-5-12.66-10.09-18.65-15.52-4.5-4.09-4.57-9.67-.84-13.68,4.13-4.44,9.67-4.65,14.46-.64,5.57,4.65,11.4,9,16.72,13.95C-925.4-341.43-924.55-338.38-922.61-334.83Z" transform="translate(1409.39 752.27)"/><path class="cls-11" d="M-1074-654.6l-1.36-.37.26-.4,1.1.77Z" transform="translate(1409.39 752.27)"/><path class="cls-11" d="M-1073.06-653.58l-1-1h0l1,1Z" transform="translate(1409.39 752.27)"/><path class="cls-8" d="M-987-281.26c0,6.55-3.69,10.57-9.86,10.66-6.39.09-10.29-3.79-10.25-10.18,0-6.63,4.09-10.83,10.43-10.81C-990.86-291.58-987-287.47-987-281.26Z" transform="translate(1409.39 752.27)"/><path class="cls-8" d="M-1268.08-52.88a10.36,10.36,0,0,1-10.12,10.73,10.19,10.19,0,0,1-10.65-10.13c-.24-5.63,4.71-10.9,10.47-11.15C-1273-63.67-1268.18-58.77-1268.08-52.88Z" transform="translate(1409.39 752.27)"/><path class="cls-8" d="M-1015.68,91.46c-6.13,0-10.39-4.33-10.18-10.33s4.67-10.61,10.27-10.68a10.54,10.54,0,0,1,10.5,10.34A10.49,10.49,0,0,1-1015.68,91.46Z" transform="translate(1409.39 752.27)"/><path class="cls-8" d="M-1113.95-24.93c-.07,6.51-3.82,10.34-10.14,10.33s-10.09-4.06-9.94-10.48,4.62-10.69,10.78-10.51C-1117.52-35.42-1113.89-31.26-1113.95-24.93Z" transform="translate(1409.39 752.27)"/><path class="cls-8" d="M-1144.75-113.61a10,10,0,0,1-10.22-10,10.6,10.6,0,0,1,11-10.95,10.1,10.1,0,0,1,9.76,10A10.75,10.75,0,0,1-1144.75-113.61Z" transform="translate(1409.39 752.27)"/><path class="cls-10" d="M-143-327.43c1.31,17.51,2.65,35,3.92,52.52.76,10.58,1.27,21.18,2.12,31.75,1.17,14.36,2.58,28.69,3.84,43,.75,8.58,1.35,17.17,2.14,25.75,1.23,13.34,2.58,26.68,3.83,40,1.09,11.54,2,23.09,3.19,34.62,1.13,11,2.54,22,3.76,33,1.44,13,2.75,26,4.23,39q2.1,18.48,4.41,37c1.48,12,3,24,4.57,35.92.68,5.41,1.32,10.83,2,16.24h-19q-3.52-28.27-7-56.56c-2.3-18.36-4.73-36.7-6.85-55.08C-139.49-64-140.61-77.9-142-91.71c-1.55-14.79-3.36-29.56-4.82-44.36-1.23-12.51-2-25.06-3.18-37.59-1.2-13.16-2.65-26.31-3.84-39.48-.83-9.23-1.42-18.49-2.13-27.73q-1.95-25.23-3.92-50.47-.59-7.68-1-15.37c-.39-7-.71-13.9-1.06-20.85Z" transform="translate(1409.39 752.27)"/><path class="cls-13" d="M-667.09-386.48c-4.5,2-9.14,3.79-13.45,6.16-3.37,1.86-6.32,4.48-9.46,6.76l-.63-.31.42.62v0c-1.48-.13-3-.2-4.45-.39-4.46-.58-7.4-3.22-8.19-7.49s-.14-8.49,4.62-10.95c6.76-3.49,13.36-7.27,20-11,4.63-2.62,9.86-2.47,12.61.54,3.63,4,3.49,9.75-.33,14.41C-666.39-387.61-666.72-387-667.09-386.48Z" transform="translate(1409.39 752.27)"/><path class="cls-13" d="M-253-402.68c-1,7.65-6.35,11.95-12.94,9.46a121.3,121.3,0,0,1-17.78-8.69A9.45,9.45,0,0,1-287-414.62c2.1-3.74,7.76-5.73,12.14-3.76a149.45,149.45,0,0,1,17.36,8.79C-255.39-408.28-254.48-405-253-402.68Z" transform="translate(1409.39 752.27)"/><path class="cls-13" d="M-637.6-301.46c-.83,5.87-1.36,11.8-2.57,17.59-1,4.59-4.84,6.26-9.07,6.16a8.89,8.89,0,0,1-8.71-8.64,176.42,176.42,0,0,1,1.08-18.81c.7-5.77,5-8.9,10.45-8.43,5.9.52,8.36,3.48,8.39,10.08v2Z" transform="translate(1409.39 752.27)"/><path class="cls-13" d="M-429.34-464.18c-4.52.24-7-2.28-8.64-5.8-1.77-3.72-1-7.1,1.84-10q4.51-4.65,9.15-9.16c4.18-4.08,9.85-4.41,13.86-.88,3.55,3.12,4.13,8.76.64,13a88.13,88.13,0,0,1-10.9,10.87C-424.85-464.86-427.33-464.79-429.34-464.18Z" transform="translate(1409.39 752.27)"/><path class="cls-17" d="M-488.71-495.54l3.65-9.09c.41.2,1.1.68,1.21.57,1.87-1.87,3.6-3.89,5.53-5.71,3.81-3.6,8.21-3.75,12.05-.55,3.43,2.87,4.62,8.42,2.2,12.15a113.34,113.34,0,0,1-6.94,9c-2.68,3.32-6.61,4.88-10.16,3.07-2.85-1.46-4.64-5-6.84-7.67A6.25,6.25,0,0,1-488.71-495.54Z" transform="translate(1409.39 752.27)"/><path class="cls-17" d="M-641.07-461.63c4.13-5.18,8.24-10.39,12.43-15.53a23.71,23.71,0,0,0,4-5.76L-636-480.78c2-2.78,3.77-5.81,6.1-8.29,4.11-4.39,9.05-4.51,13.16-.79,3.89,3.52,4.38,9,1,13.35s-6.92,8.87-10.47,13.24C-629.58-459.14-634-458.7-641.07-461.63Z" transform="translate(1409.39 752.27)"/><path class="cls-13" d="M-545-453.1c0-8.09,9.87-16.12,16.82-13.68,5.34,1.88,8.45,8.2,5.5,12.86a28.26,28.26,0,0,1-9,8.95C-538-441.13-545-445.69-545-453.1Z" transform="translate(1409.39 752.27)"/><path class="cls-13" d="M-346.89-566.6c-6-.06-11.29-5.85-11.09-12.2.16-5,4.77-9.79,9.45-9.79,5.31,0,11.69,7.12,11.4,13.08C-337.31-571.63-340.66-565.49-346.89-566.6Z" transform="translate(1409.39 752.27)"/><path class="cls-13" d="M-607-382c0-5.94,5.18-10.58,11.89-10.62,5.65,0,9.94,3.75,10.07,8.85.13,5.44-6.4,11.21-12.62,11.15A9.1,9.1,0,0,1-607-382Z" transform="translate(1409.39 752.27)"/><path class="cls-17" d="M-250.3-507.6c5.68.07,8.83,3.66,9,9.73.2,5.53-4.25,9.43-9.64,9.28a9.29,9.29,0,0,1-9.13-9.27C-259.89-503.74-255.94-507.69-250.3-507.6Z" transform="translate(1409.39 752.27)"/><path class="cls-17" d="M-662-469.48l-2.91,1.9-1.07,1.1,0,0c-8.78-.23-12.12-3.11-12.12-10.17,0-3.88,1.23-7,5-8.29s7.66-1.39,10.7,1.69,2.9,6.84,1.66,10.66C-661-471.55-661.56-470.53-662-469.48Z" transform="translate(1409.39 752.27)"/><path class="cls-17" d="M-337.35-457.59a9.31,9.31,0,0,1-9.63-8.77,9.64,9.64,0,0,1,9.31-10.24,9.29,9.29,0,0,1,9.63,9.29A9.64,9.64,0,0,1-337.35-457.59Z" transform="translate(1409.39 752.27)"/><path class="cls-17" d="M-168.81-465.6c-4.55,1.16-9-4.32-9.13-9.07-.13-5.23,4.61-9.88,9.79-9.94,4.88-.05,9,4.16,9.11,9.34C-158.92-469.73-163-465.65-168.81-465.6Z" transform="translate(1409.39 752.27)"/><path class="cls-13" d="M-150.95-685.6c5.68,0,9,3.36,8.93,9.05,0,5.19-4.9,10.14-9.78,9.94-4.72-.2-9.29-5.2-9.18-10C-160.87-681.69-156.46-685.62-150.95-685.6Z" transform="translate(1409.39 752.27)"/><path class="cls-17" d="M-539-476.59c0,5.46-4.42,10.06-9.61,10a9,9,0,0,1-8.84-9.49c.37-6.6,4.23-10.06,9-9.63C-542.39-485.19-539-482.43-539-476.59Z" transform="translate(1409.39 752.27)"/><path class="cls-13" d="M-583.84-561.6c5.84.05,8.8,3.05,8.81,9,0,5.63-3.78,9.9-8.89,10s-9.22-4.42-9.11-10.27S-589.72-561.65-583.84-561.6Z" transform="translate(1409.39 752.27)"/><path class="cls-16" d="M-395.95-348.55q-11.94,3.42-23.89,6.83c-1.38.39-2.8.63-4.2.94,0-2.55-.64-5.24,0-7.63,1.45-5.86,6.41-8.55,12.11-6.58C-406.53-353.12-401.28-350.72-395.95-348.55Z" transform="translate(1409.39 752.27)"/><path class="cls-17" d="M-673.85-306.59l1.71-17c4.19-1.67,8.31-1.8,11.34,2a9.88,9.88,0,0,1,1,11.56c-2.17,4.08-5.81,4.56-9.74,4.4A26.66,26.66,0,0,1-673.85-306.59Z" transform="translate(1409.39 752.27)"/><path class="cls-16" d="M-754.79-358.6c3.34-6.91,6.41-14,12.81-18.82.91,3.39,2.71,6.35.89,10.38C-743.91-360.8-747.7-357.33-754.79-358.6Z" transform="translate(1409.39 752.27)"/><path class="cls-16" d="M-374.08-521.49c-2.16.81-4.77,1.12-6.37,2.55-3.14,2.82-5.72,6.26-8.53,9.43-2.68-9.74,1.3-16.06,9.67-15C-377.47-524.23-375.82-522.52-374.08-521.49Z" transform="translate(1409.39 752.27)"/><path class="cls-16" d="M-599-502.62l14-9.05C-586.26-502.65-592.72-498.47-599-502.62Z" transform="translate(1409.39 752.27)"/><path class="cls-15" d="M-194.84-381.78l.69,1.87-1.5-.86Z" transform="translate(1409.39 752.27)"/><path class="cls-16" d="M-384-352.6l-1,.79Z" transform="translate(1409.39 752.27)"/><path class="cls-10" d="M-383.93-381.83l.77.08-.4.13Z" transform="translate(1409.39 752.27)"/><path class="cls-13" d="M357-719.54c0,8.49-7,13.08-13.15,9.77a43.45,43.45,0,0,1-9.46-7.08c-3.3-3.19-3.17-8.94-.32-12.27a9.7,9.7,0,0,1,13.05-1.7,50.28,50.28,0,0,1,7.46,6.48C356-722.73,356.58-720.38,357-719.54Z" transform="translate(1409.39 752.27)"/><path class="cls-13" d="M439-703.11c0,6.36-4.59,11.44-10.42,11.51a9.34,9.34,0,0,1-9.58-9.27c-.09-5.38,5.57-11.65,10.78-11.64C434.28-712.5,440.26-708.18,439-703.11Z" transform="translate(1409.39 752.27)"/><path class="cls-13" d="M180-589.47c0,5.59-4,9.7-9.23,9.57s-8.82-4-8.77-9.9,3.82-9.64,9.17-9.51S180-595.32,180-589.47Z" transform="translate(1409.39 752.27)"/><path class="cls-17" d="M206.9-620.6a9.22,9.22,0,0,1,9.08,9.07c0,5.43-4.51,10-9.63,9.92-4.52-.09-9.15-4.78-9.25-9.36C197-616.41,201.22-620.58,206.9-620.6Z" transform="translate(1409.39 752.27)"/><path class="cls-17" d="M462-715.33c0,5.87-3.4,9.65-8.84,9.74a9.27,9.27,0,0,1-9.16-9.18,9.19,9.19,0,0,1,9.51-9.83C459.07-724.59,461.94-721.47,462-715.33Z" transform="translate(1409.39 752.27)"/><path class="cls-15" d="M219.27-623.29l-2.85,1.06-.33-.74,2-1.31Z" transform="translate(1409.39 752.27)"/><path class="cls-10" d="M98.78-34.66c-3.32,8-6.44,16-10,23.88C87-6.84,84.31-3.28,82.06.45c-1.33-14.5-2.73-29-3.94-43.5Q76.85-58.14,76-73.28c-1.1-20.37-2-40.74-3.09-61.11-.61-11.92-1.72-23.83-1.85-35.75-.52-47.26-.76-94.53-1-141.8,0-3.78.56-7.57.86-11.37l10-.3,8.17.48a41.49,41.49,0,0,1,.79,5.82c-.26,38.57-.67,77.13-.84,115.7,0,10.28.51,20.56.94,30.84,1,23.18,1.87,46.37,3,69.54.75,14.54,1.81,29.06,3,43.57C96.67-50,97.85-42.32,98.78-34.66Z" transform="translate(1409.39 752.27)"/><path class="cls-13" d="M381.92-289.51l-13-12c.77-1.62,1.18-3.61,2.39-4.8,6.18-6.07,9.14-13,7.74-21.86-.89-5.7,3.48-10.21,8.92-10.4,5.73-.19,9.58,3.62,10,9.42,1.08,15.16-2.59,28.33-15.3,37.91C382.25-290.93,382.17-290.11,381.92-289.51Z" transform="translate(1409.39 752.27)"/><path class="cls-17" d="M149-412.57c-3.22,1.13-6.45,2.22-9.64,3.42-1.84.69-3.62,1.57-5.42,2.37-9.45-7-9.29-12.13-.11-19.44A51.16,51.16,0,0,1,154.78-436a9.59,9.59,0,0,1,11.45,6.88c1.31,4.24-1.35,9.42-5.73,11.26-3.33,1.39-6.63,2.84-9.94,4.27l-1.62,1.09Z" transform="translate(1409.39 752.27)"/><path class="cls-17" d="M308-360.65l-10.18-8.3v12.36c-2-1.18-4.34-2-5.78-3.61q-7.54-8.58-14.53-17.65c-3-3.89-1.94-9.34,1.85-12.58,3.58-3.07,9-3.4,12.25.12A161.69,161.69,0,0,1,307.3-371.1C309-368.58,307.83-364.19,308-360.65Z" transform="translate(1409.39 752.27)"/><path class="cls-17" d="M356-318.59l-8.89-11c2.91-8.16,10.13-12.33,16.5-17.05,3.72-2.76,9.72-1,12.05,2.47s2,9.72-1.31,12.71C368.72-326.47,363.62-320.69,356-318.59Z" transform="translate(1409.39 752.27)"/><path class="cls-13" d="M180.81-357.66c1.24-7.71,5.9-11.56,12.76-9.72a32.36,32.36,0,0,1,10.08,5.13c3.73,2.69,4.06,7.39,1.58,12.07a8.86,8.86,0,0,1-10.61,3.88c-2.79-1-5.86-1.88-8-3.72C184.2-352,182.7-355.07,180.81-357.66Z" transform="translate(1409.39 752.27)"/><path class="cls-16" d="M260.91-407.48,243-421.61C251.76-424.58,261.08-417.22,260.91-407.48Z" transform="translate(1409.39 752.27)"/><path class="cls-10" d="M271.9-425.33l-.18,1.72-1.42-1.53Z" transform="translate(1409.39 752.27)"/><path class="cls-18" d="M148.94-412.53l1.62-1.09Z" transform="translate(1409.39 752.27)"/><path class="cls-13" d="M-53.25-400.6c-4.32.62-8.79-.1-10.88-5.82s0-10.54,5.79-12.12a27.32,27.32,0,0,1,9.81-.88c6.07.62,9.05,4.93,8.49,11.3-.42,4.89-3.82,7.48-9.85,7.52C-50.73-400.59-51.56-400.6-53.25-400.6Z" transform="translate(1409.39 752.27)"/><path class="cls-13" d="M11-660.6c5.42,3.88,5.66,9.46,4.7,15.21-.59,3.52-5.9,6.9-9.58,6.64-4-.28-8.6-4.67-9.08-8.79-.79-6.75,1.14-13.19,12-14.05l0,0,2,1Z" transform="translate(1409.39 752.27)"/><path class="cls-13" d="M-35.3-518.6A10.56,10.56,0,0,1-46-529.17a9.23,9.23,0,0,1,8.94-9.42,10.82,10.82,0,0,1,11.06,11C-26-521.52-29-518.64-35.3-518.6Z" transform="translate(1409.39 752.27)"/><path class="cls-17" d="M9-661.59c-1.3-3.26-3.68-6.51-3.67-9.76,0-5.5,4.44-8.45,10.27-8.25,4.27.15,8.21,4.32,8.34,8.82a10.46,10.46,0,0,1-8.49,10.09,30.09,30.09,0,0,1-4.46.09h0l-2-1Z" transform="translate(1409.39 752.27)"/><path class="cls-13" d="M42-583.61c0,5.59-3.74,9.82-8.83,10s-9.23-4.27-9.17-9.63c.09-6.49,3-9.31,9.45-9.32C39.06-592.61,42-589.55,42-583.61Z" transform="translate(1409.39 752.27)"/><path class="cls-13" d="M-514.8-75.3c.88-2.89,1-6.37,2.78-8.55,5.14-6.42,13.89-4.51,16.09,3.41,1.66,6,2.56,12.51-3.05,17a12.39,12.39,0,0,1-9,2.07c-3.72-.71-6-4-6-8.19,0-1.83,0-3.66,0-5.49Z" transform="translate(1409.39 752.27)"/><path class="cls-17" d="M-496-172.5l-.87.93c-3.52-.08-7.29.63-10.51-.4-4.77-1.53-6.38-6.91-4.45-11.88s6.9-7.18,12.27-5.44c3.87,1.25,6.4,6.53,5.25,11.1C-494.8-176.28-495.45-174.4-496-172.5Z" transform="translate(1409.39 752.27)"/><path class="cls-16" d="M-516-91.6l7.89-18c4.77.81,7.1,4,8,8.42.81,4.13-1.05,7.95-4.43,9.21S-512.14-91.65-516-91.6Z" transform="translate(1409.39 752.27)"/><path class="cls-16" d="M-455-252.66l12-16.93c1,2.61,2.18,5.17,3,7.83,1.44,4.37-.33,7.84-3.83,10.27C-447.73-248.77-451.58-249.58-455-252.66Z" transform="translate(1409.39 752.27)"/><path class="cls-8" d="M-1351.6-109.59c-.8-4-1.78-7.87-2.35-11.84-.48-3.37-.48-6.8-.69-10.2,7-2.18,10.27-8.08,13.08-14,9-19-1-41.73-20.37-46.85-.57-3.12-1.33-6.22-1.68-9.37-.5-4.52-.69-9.07-1-13.61,15.62,3.23,28.42,11,37.59,24.1C-1306.66-162.36-1318.95-121.83-1351.6-109.59Z" transform="translate(1409.39 752.27)"/><path class="cls-7" d="M-841.09-104.66q-1.57,15.06-3.14,30.13c-13.63,3.19-27.25,6.2-41.09,1-9.38-3.5-16.29-9.61-19.6-19.17-3.37-9.76,3.52-19.26,13.91-20,11.17-.85,21.73,2.15,32.42,4.42C-852.76-107-846.92-105.86-841.09-104.66Z" transform="translate(1409.39 752.27)"/><path class="cls-17" d="M141-504.66c0,5.53-3.95,10.12-8.66,10.05A9.31,9.31,0,0,1,123-504.2c0-5.25,3.88-9.34,8.82-9.4C138-513.67,141-510.77,141-504.66Z" transform="translate(1409.39 752.27)"/><path class="cls-3" d="M-690.21-373.25l-.42-.62.63.31Z" transform="translate(1409.39 752.27)"/><path class="cls-3" d="M-666-466.48l1.07-1.1Z" transform="translate(1409.39 752.27)"/><path class="cls-3" d="M9-661.61l2,1Z" transform="translate(1409.39 752.27)"/></svg>