<svg height="60" width="120" xmlns="http://www.w3.org/2000/svg" xmlns:xlink="http://www.w3.org/1999/xlink"><clipPath id="a"><path d="m-200-175h1000v562h-1000z"/></clipPath><clipPath id="b"><path clip-rule="evenodd" d="m370 89a24 24 0 1 1 -34 0 24 24 0 0 1 34 0zm-17-23a40 40 0 1 1 -.05 0zm101 23a24 24 0 1 1 -34 0 24 24 0 0 1 34 0zm11.3-11.3a40 40 0 1 1 -28.3-11.7 40 40 0 0 1 28.28 11.72zm-212.3 68.1 4 .2h60l-.2-4c-.54-6.6-5.2-11.4-11.8-11.8l-4-.2h-36l48-48-.2-4a12.1 12.1 0 0 0 -11.8-11.8l-4-.2h-60l.2 4a12.41 12.41 0 0 0 11.8 11.8l4 .2h36l-48 48 .2 4a12.23 12.23 0 0 0 11.8 11.8zm273.84-55.8a17.29 17.29 0 0 1 2 8l.2 4v28l.2 4a12.29 12.29 0 0 0 11.76 11.8l4 .2v-44l.2-4a17.44 17.44 0 0 1 2-8.05 16 16 0 0 1 27.69.05 17.54 17.54 0 0 1 1.94 8l.2 4v28l.2 4a12.24 12.24 0 0 0 11.77 11.8l4 .2v-48a32 32 0 0 0 -56-21.17 32 32 0 0 0 -41.92-5.35c-3.08-3.48-10.08-5.48-14.08-5.48v80l4-.2c6.68-.44 11.54-5.16 11.8-11.8l.2-4v-28l.2-4a17.45 17.45 0 0 1 2-8 16 16 0 0 1 27.68 0z"/></clipPath><clipPath id="c"><circle cx="107" cy="106" r="102"/></clipPath><clipPath id="d"><circle cx="107" cy="106" r="100"/></clipPath><clipPath id="e"><circle cx="107" cy="106" r="92"/></clipPath><clipPath id="f"><path clip-rule="evenodd" d="m135 94.06 26-19c2.27-1.85 4-1.42 4 2v57.94c0 3.84-2.16 3.4-4 2l-26-19zm-88-16.86v43.2a17.69 17.69 0 0 0 17.77 17.6h63a3.22 3.22 0 0 0 3.23-3.2v-43.2a17.69 17.69 0 0 0 -17.77-17.6h-63a3.22 3.22 0 0 0 -3.23 3.2z"/></clipPath><g clip-path="url(#a)" transform="matrix(.189959 0 0 .189959 2.755302 9.943774)"><g clip-path="url(#b)"><path d="m232 61h366v90h-366z" fill="#4a8cff"/></g><g clip-path="url(#c)"><path d="m0-1h214v214h-214z" fill="#e5e5e4"/></g><g clip-path="url(#d)"><path d="m2 1h210v210h-210z" fill="#fff"/></g><g clip-path="url(#e)"><path d="m10 9h194v194h-194z" fill="#4a8cff"/></g><g clip-path="url(#f)"><path d="m42 69h128v74h-128z" fill="#fff"/></g></g></svg>